<svg width="50" height="67" viewBox="0 0 50 67" fill="none" xmlns="http://www.w3.org/2000/svg">
<g clip-path="url(#clip0_1_942)">
<path d="M10.6508 43.4179C10.9051 42.5713 11.9371 42.1344 12.7208 42.4134C12.637 40.8326 13.2383 39.2818 14.5414 38.2619C14.6485 38.1884 14.7505 38.1081 14.847 38.0216C14.8056 38.0342 14.8943 37.7737 14.9101 37.7136C15.0156 37.2971 14.986 34.4561 14.9594 34.4067C14.8131 34.1293 14.7524 33.8158 14.7849 33.5049C14.717 33.2842 14.674 33.0569 14.6568 32.8269C14.6272 32.1818 15.1753 31.5086 15.7125 31.1948C16.4321 30.7744 17.268 30.7531 18.0782 30.8122C19.0048 30.879 19.5844 30.7696 20.4844 30.4577C21.2887 30.1787 22.0044 29.8503 22.8324 29.4813C24.7821 28.6147 26.6974 27.6783 28.5782 26.6723C28.872 26.5127 29.2099 26.4493 29.5429 26.4915C29.8758 26.5336 30.1864 26.6791 30.4294 26.9067C34.5107 30.5475 38.1597 34.6304 41.3069 39.0775C41.4347 39.2636 41.5077 39.4808 41.5178 39.7051C42.1901 40.803 42.6334 42.0212 42.8219 43.289C42.9865 43.8189 43.1344 44.3545 43.2704 44.8921C43.9062 45.0791 44.3971 45.6263 44.3902 46.3237C44.3606 49.1705 43.5179 52.0115 41.7347 54.2791C40.1053 56.3529 37.71 57.9114 35.0505 58.3231C34.4314 58.4199 33.8429 58.3085 33.4447 57.7845C33.3755 57.6922 33.3167 57.5928 33.2693 57.4881C32.5792 57.6567 31.8833 57.7894 31.1884 57.8978C30.1139 58.3298 29.0306 58.7415 27.9177 59.0679C26.6307 59.4545 25.3015 59.6896 23.9581 59.7683C22.5958 59.838 20.9891 59.7683 19.8653 58.9159C19.4228 58.5865 19.1083 58.1991 19.1083 57.6179C19.1083 57.5859 19.1083 57.553 19.1083 57.521C18.8757 57.4348 18.647 57.337 18.4183 57.2353C17.6297 56.8788 16.9397 56.3548 16.2655 55.8298C15.0412 54.8786 13.7942 53.8926 12.776 52.7234C10.5463 50.1537 9.66603 46.6967 10.6508 43.4179Z" fill="#94E3E7"/>
<path d="M3.62058 35.2424C5.47473 34.3784 7.83456 34.9082 8.96716 36.6488C9.03477 36.7523 9.09064 36.8627 9.13375 36.9782C9.55367 37.2242 9.80601 37.7288 9.47284 38.2567C8.88731 39.1857 8.27123 40.0971 7.6177 40.9805C7.29635 41.4164 6.96613 41.8455 6.63197 42.2707C6.3126 42.6746 5.98336 43.2287 5.52402 43.4912C4.59645 44.023 3.40076 43.1154 2.75708 42.5061C2.0575 41.8523 1.5696 41.0103 1.35439 40.0855C0.94926 38.1996 1.79205 36.0909 3.62058 35.2424Z" fill="#94E3E7"/>
<path d="M27.1886 44.672C27.3535 44.5924 27.5254 44.5275 27.7021 44.4783C27.7435 44.364 27.7219 43.5097 28.1576 43.3063C29.3838 42.7251 31.9664 42.6002 32.2217 42.5808C32.5716 42.5546 32.411 43.2588 32.5578 43.8507C32.6889 44.3824 33.1542 44.8018 33.0182 44.9917C32.9887 45.0995 32.9299 45.1974 32.8481 45.2748C32.7663 45.3523 32.6646 45.4064 32.5539 45.4314C31.7387 45.6513 30.8959 45.722 30.057 45.7937C29.2182 45.8654 28.3754 45.9942 27.5365 45.9322C26.9145 45.8886 26.5222 44.9917 27.1886 44.672Z" fill="#FFFCE9"/>
<path d="M23.9323 46.285C24.4508 46.1687 24.9762 46.0515 25.5095 45.9682C25.8046 45.8462 26.1084 45.7452 26.4183 45.666C26.9033 45.5536 27.3538 45.7135 27.8328 45.7629C28.8185 45.8675 29.7984 45.6776 30.7516 45.4723C31.5914 45.2902 32.4381 45.0219 33.2997 45.1284C33.3892 45.1287 33.4781 45.1434 33.5628 45.172C34.519 45.3657 35.4653 45.697 36.4037 45.9605C37.0819 46.1542 36.9951 47.0182 36.4934 47.2439C36.4215 47.5945 36.1119 47.8871 35.6684 47.7379L34.1898 47.2429C33.9364 47.1587 33.6772 47.0608 33.414 46.993C32.4086 47.8648 30.3395 47.8105 29.2296 47.9016C28.235 47.9839 27.265 48.1283 26.3611 48.5622C25.8771 48.7956 25.4178 48.8731 24.9604 48.537C24.503 48.2009 24.0673 47.7902 23.6277 47.4173C23.2383 47.0889 23.4463 46.3944 23.9323 46.285Z" fill="#5C2254"/>
<path d="M26.183 48.7561C26.1848 48.7235 26.1895 48.6911 26.1968 48.6592C26.2194 48.605 26.2431 48.5517 26.2658 48.4975C26.328 48.3928 26.4171 48.306 26.524 48.2456C26.6115 48.1949 26.7096 48.1644 26.8109 48.1565C27.8982 47.4251 29.1361 46.9378 30.4366 46.7294C31.7371 46.521 33.0684 46.5965 34.3359 46.9506C34.4265 46.9206 34.5232 46.9129 34.6175 46.9281C34.7119 46.9433 34.801 46.9809 34.8771 47.0378L35.0052 47.124C35.0527 47.1386 35.0986 47.1577 35.1422 47.1811C35.8796 47.153 36.1457 48.3047 35.3443 48.513C35.074 48.5863 34.8103 48.6813 34.5557 48.7968C32.2629 50.2749 29.3728 50.1809 26.7419 49.5601C26.5964 49.5302 26.4667 49.4502 26.3762 49.3344H26.3712C26.2873 49.2513 26.2262 49.1487 26.1938 49.036C26.1622 48.9458 26.1584 48.8484 26.183 48.7561Z" fill="#A4659C"/>
<path d="M4.51381 45.3822C5.29352 43.5806 6.49611 42.0046 7.73221 40.4839C8.1265 39.9996 8.50009 39.4949 9.05505 39.1772C10.4351 38.3491 11.8476 39.8553 11.7106 41.2985C10.6263 47.8116 13.0127 54.4476 19.4298 57.2528C19.7186 57.3845 19.8458 57.7158 19.8113 58.0228C22.9656 59.6549 30.4217 59.222 32.7066 56.3161C33.2497 55.4792 34.5893 56.2347 34.0679 57.0978C33.8273 57.4794 33.2793 58.4112 33.0526 58.7793L33.0624 58.7861C33.8126 58.4074 35.4883 58.3647 36.4198 58.1197C41.7368 56.0768 44.9779 50.0375 43.9113 44.5589C43.8423 44.2034 47.5822 40.2117 47.6758 40.1865C48.1214 40.0664 48.4644 40.3454 48.6458 40.727C49.6916 42.9549 47.7517 44.2306 47.7162 44.4214C51.0726 48.5642 49.8227 54.7479 46.4289 58.5633C43.5092 62.4552 39.7634 62.895 35.8195 62.8524C31.4734 65.2739 25.8735 66.6232 20.9153 65.6333C20.3032 66.1544 19.3303 65.6837 18.6481 65.4522C17.4939 65.0938 16.445 64.0244 16.7832 62.7604C16.9428 62.1792 17.485 61.9486 18.0242 61.8034C18.5634 61.6581 18.7142 62.5095 18.1553 62.5724C18.1295 62.6205 18.0963 62.6643 18.0567 62.7022C17.8468 63.6873 18.6028 64.2908 19.5195 64.3005C19.8034 64.2879 20.0558 64.1465 20.3081 64.2259C20.7507 62.8902 22.0183 62.5124 20.7399 60.98C18.6146 59.098 15.4879 60.7011 12.9635 60.1247C6.97912 58.45 1.66309 51.4826 4.51381 45.3822Z" fill="#00386B"/>
<path d="M9.24938 37.1404L9.20206 37.1103L9.16164 37.0784L9.07195 36.9999C9.00294 36.9353 8.93493 36.8708 8.8679 36.8062C8.78707 36.7093 8.70328 36.625 8.61752 36.5379C8.53539 36.4449 8.445 36.3593 8.34743 36.2822L8.31786 36.255C8.21929 35.9925 9.37357 34.1657 9.38639 34.1521C9.43074 34.0892 9.47609 34.0262 9.51749 33.9584C9.53523 33.9294 9.55199 33.8993 9.56875 33.8703C9.92953 33.0373 10.3632 32.6547 10.4559 31.7732C10.4717 31.5582 10.2765 30.8472 10.2923 30.6109C10.3406 29.8282 10.9596 29.0717 11.8201 29.1095C12.1015 29.1202 12.3753 29.2023 12.6149 29.3477C12.8545 29.4932 13.0517 29.6971 13.1874 29.9396C13.2343 29.9372 13.2814 29.9372 13.3283 29.9396C14.1248 29.9745 14.8946 30.6002 14.8562 31.441C14.7734 33.2368 14.7205 35.0336 14.6975 36.8314C14.7941 37.6325 14.7891 38.4423 14.6827 39.2423C14.5841 40.0172 14.0538 40.7834 13.1548 40.7436C12.3436 40.7078 11.6595 40.1092 11.6299 39.2907C11.1348 38.9826 10.7006 38.5887 10.3485 38.1284C10.1607 37.8793 9.99012 37.6181 9.83785 37.3467C9.68996 37.3442 9.54334 37.3194 9.40315 37.2731C9.39327 37.2387 9.37349 37.2079 9.34621 37.1844C9.31893 37.1608 9.2853 37.1456 9.24938 37.1404Z" fill="#00386B"/>
<path d="M9.7988 38.4255C9.66375 37.822 9.88456 37.0868 10.1468 36.5851C10.6002 35.724 11.4184 35.1195 12.2602 34.6536C12.6476 34.4396 12.9955 35.0246 12.6081 35.2348C12.3521 35.3746 12.1046 35.5289 11.8669 35.6968C11.8669 35.7331 11.8609 35.7691 11.8491 35.8034C11.6214 36.4378 11.9073 37.1885 12.2917 37.7406C12.5143 37.9162 12.6798 38.1519 12.7678 38.4187L12.8841 38.4671C13.0437 38.382 13.2201 38.3317 13.4012 38.3195C13.5823 38.3073 13.764 38.3335 13.9339 38.3964C14.2049 38.5026 14.4828 38.5907 14.7659 38.6599C14.9377 38.7141 15.1167 38.7435 15.2972 38.747C15.9212 38.7906 16.1843 38.7674 16.7048 38.6444C16.8783 38.6037 17.0488 38.5611 17.2194 38.5194L17.2765 38.5059C17.7132 38.3928 18.1586 38.315 18.6082 38.2734C19.2566 38.2413 19.9061 38.3066 20.5344 38.4671C21.6699 38.7325 22.7572 39.242 23.8178 39.7089C24.7825 40.1237 25.6897 40.6572 26.5177 41.2965H26.5276C27.3822 41.3342 28.1047 41.9745 28.1047 42.8463C28.1047 45.171 25.6789 46.2878 23.6256 46.3759C22.3506 46.4206 21.0881 46.1169 19.9784 45.4984C19.6009 45.8199 19.0292 45.9052 18.559 45.789C16.6466 45.3046 14.6446 44.7874 12.9975 43.6725C11.4558 42.6283 10.1763 41.1541 9.74459 39.3282C9.68064 39.0279 9.69936 38.7163 9.7988 38.4255Z" fill="#00386B"/>
<path d="M32.4155 43.067C32.4589 42.4578 32.7615 41.7265 33.0789 41.1869C33.3746 40.6803 33.8803 40.2919 34.3298 39.9209C34.8611 39.4821 35.4141 39.0831 36.0598 38.8225C37.3126 38.3179 38.6562 38.4602 39.9613 38.6375C41.3689 38.8312 43.0446 39.3059 44.4404 38.8787C44.9224 38.7315 45.4261 38.4118 45.6321 37.9411C45.8953 37.3473 45.6124 36.6557 45.3364 36.1007C45.3079 36.0931 45.2799 36.0837 45.2526 36.0726C45.1624 35.8492 45.0049 35.6583 44.8012 35.5253C44.7174 35.0865 44.9924 34.5722 45.5553 34.5809C45.9855 34.5833 46.4051 34.7126 46.7598 34.9519C47.6815 35.3665 48.4306 36.0416 48.4967 37.1545C48.5187 37.6699 48.4578 38.1854 48.3163 38.6821C48.2889 38.9769 48.2345 39.2686 48.1536 39.5538C48.0899 39.8442 47.9992 40.1283 47.8826 40.4023C47.8787 40.4444 47.8722 40.4861 47.8628 40.5273C47.6115 41.585 47.1521 42.5924 46.4217 43.4157C45.6686 44.2662 44.6228 44.7534 43.5178 44.9936L43.4714 45.0023C42.4201 45.5068 41.2982 45.8545 40.1426 46.0339C39.603 46.1146 39.0559 46.137 38.5113 46.1008C38.5233 46.0568 38.5259 46.0109 38.5189 45.9658C38.512 45.9208 38.4956 45.8777 38.4708 45.8392C38.4677 45.8079 38.4572 45.7778 38.44 45.7512C38.4229 45.7246 38.3997 45.7024 38.3723 45.6862C38.3354 45.6663 38.2931 45.6585 38.2514 45.6639C38.2098 45.6693 38.1709 45.6876 38.1406 45.7162C38.0083 45.8216 37.8645 45.9122 37.7118 45.9865C37.5699 45.9564 37.4289 45.9254 37.285 45.9041C37.0051 45.8625 36.7685 45.9865 36.4964 46.0426C35.2791 46.2974 33.7591 45.6271 33.0464 44.6391C32.7152 44.1655 32.3761 43.6376 32.4155 43.067Z" fill="#00386B"/>
<path d="M9.34828 31.831L9.29801 31.7748C9.28717 31.798 9.27533 31.8203 9.26449 31.8426C9.29012 31.8387 9.3197 31.8339 9.34828 31.831Z" fill="#4868A0"/>
<path d="M10.7603 23.9621C11.8082 22.3942 13.1897 21.0684 14.8096 20.076C16.5504 18.9941 18.5258 18.2734 20.5269 17.8249C22.5683 17.3687 24.7951 17.0742 26.8355 17.6903C27.284 17.8259 27.8676 18.2201 28.3456 18.1514C28.6256 18.1107 28.8888 17.9344 29.1599 17.8608C29.452 17.7829 29.7524 17.739 30.0549 17.73C30.4686 17.7193 30.8818 17.7642 31.2831 17.8637C31.3477 17.8602 31.4122 17.8718 31.4714 17.8976L31.57 17.9373C32.2182 18.1385 32.8454 18.4002 33.4428 18.719C33.8252 18.9113 34.1931 19.1301 34.5439 19.3738C34.8185 19.5521 35.0798 19.7495 35.3256 19.9646C36.3113 20.8364 37.0752 21.9309 37.8224 23.0022C37.8502 23.038 37.8702 23.079 37.8812 23.1227C37.8922 23.1664 37.8939 23.2119 37.8863 23.2563C37.8788 23.3006 37.862 23.343 37.8371 23.3808C37.8122 23.4186 37.7797 23.4509 37.7416 23.4759C38.2898 24.5116 38.6703 25.625 38.8693 26.776C38.9678 27.3572 39.4775 28.5331 38.8141 28.3258C36.9609 27.7553 33.9722 27.3204 32.2146 28.1524C31.8745 28.3132 31.4773 28.2958 31.1993 28.0236C30.6212 27.4588 30.0852 26.8538 29.5955 26.2132C29.5431 26.3399 29.4825 26.4631 29.4142 26.5823C29.2046 26.9384 28.9252 27.2502 28.5923 27.4996C28.2593 27.749 27.8793 27.931 27.4743 28.0352C27.2978 28.4323 26.8365 28.6977 26.319 28.4159L25.4673 27.9529C25.4255 27.9299 25.3856 27.9037 25.3481 27.8744C24.205 27.361 22.9372 27.177 21.692 27.3436C21.4948 27.3688 21.2977 27.4046 21.1124 27.4472L21.0138 27.4686C19.5875 27.8124 18.4391 28.6135 17.4386 29.7109C17.062 30.1236 16.7919 31.159 16.3543 31.5145C15.3439 32.3272 14.0221 32.2642 12.6499 32.1722C10.7524 32.0443 9.51826 30.5885 9.32703 28.7975C9.1427 27.0889 9.83369 25.3725 10.7603 23.9621Z" fill="#E85253"/>
<path d="M34.4616 23.7432C34.5907 23.2792 35.0442 23.0923 35.4917 23.1678C38.0723 23.6056 40.3395 24.9821 42.5179 26.343C43.4248 26.9106 42.586 28.3364 41.6722 27.7649C39.6022 26.4728 37.4996 25.1709 35.0461 24.7564C34.6006 24.6847 34.3492 24.1413 34.4616 23.7432Z" fill="#374E82"/>
<path d="M16.519 25.0846C16.7349 25.0188 16.8886 24.825 17.0542 24.6836C17.2758 24.4855 17.5219 24.3156 17.7866 24.178C18.3436 23.9029 18.9606 23.7479 19.5609 23.5968C20.646 23.3248 21.7477 23.1212 22.8592 22.9875C22.988 22.8711 23.1513 22.7982 23.3252 22.7794C23.4992 22.7605 23.6747 22.7968 23.8262 22.8829C23.8779 22.9128 23.9256 22.9489 23.9681 22.9905C24.1007 23.0663 24.2116 23.1738 24.2905 23.303C24.3694 23.4322 24.4138 23.5789 24.4196 23.7295C24.4196 24.2138 24.0342 24.5044 23.5817 24.5528H23.5699C22.8464 25.073 21.8833 25.2425 21.0218 25.4934L17.2642 26.5879C17.2159 26.6022 17.1664 26.6122 17.1163 26.618C17.0671 26.6373 17.0178 26.6557 16.9645 26.6722C15.9325 26.986 15.4909 25.3975 16.519 25.0846Z" fill="#374E82"/>
<path d="M27.0967 20.4796C27.4713 19.6621 28.3919 19.3541 29.2288 19.6708C29.7325 19.8645 30.116 20.2404 30.4048 20.6859C30.77 21.059 31.0484 21.5054 31.221 21.9945C31.5699 22.9845 31.4832 24.4229 30.8365 25.2879C30.2293 26.0976 29.1973 26.1596 28.4471 25.5784C28.3915 25.5853 28.335 25.5803 28.2815 25.5635C28.2281 25.5468 28.179 25.5188 28.1376 25.4816C27.7111 25.1125 27.3758 24.6528 27.1572 24.1374C26.9386 23.622 26.8424 23.0644 26.8759 22.5069C26.8079 21.8202 26.8197 21.084 27.0967 20.4796Z" fill="#FED130"/>
<path d="M17.6386 11.5703C15.4887 10.622 13.2738 9.75217 11.5991 8.07064C9.78829 6.2535 8.86959 3.33987 10.3768 1.05973C10.7553 0.488241 11.5695 0.866004 11.4611 1.5082C11.326 2.35555 11.5387 3.22095 12.0525 3.91427C12.1825 4.06882 12.3232 4.21445 12.4734 4.35015C13.271 4.8922 14.1758 5.26316 15.129 5.43888C15.9175 5.5958 16.7061 5.62292 17.5065 5.6452C17.9807 5.65779 18.4863 5.71882 18.8777 5.97647C19.272 5.84668 19.7343 5.87961 20.1936 5.98713C20.401 6.00933 20.6053 6.05383 20.8028 6.11983C21.2953 6.18951 21.7481 6.42465 22.0842 6.78527C23.0971 7.35021 23.9772 8.11896 24.6668 9.0412C25.141 9.02667 25.5451 9.27174 25.8931 9.63788C25.977 9.6957 26.0448 9.7733 26.0902 9.86357L26.1139 9.89359C26.6719 10.5942 27.1296 11.3666 27.4742 12.1892C28.0489 13.5802 28.3968 15.5746 27.142 16.7214C26.8187 17.0169 26.4017 16.8648 26.2164 16.5849C26.1689 16.5691 26.1228 16.5497 26.0784 16.5267C25.9391 16.5239 25.8051 16.4732 25.6999 16.3834C25.6249 16.3235 25.5428 16.2728 25.4554 16.2323C25.1748 16.1821 24.9011 16.0996 24.6402 15.9862L24.6038 15.9707L24.5624 15.9591C24.0925 15.8209 23.6266 15.6705 23.1646 15.5077C22.2508 15.1881 21.3509 14.8229 20.4726 14.42C19.6909 14.0616 18.7673 13.6993 18.1591 13.0746C17.8949 12.8033 17.75 12.413 17.9471 12.0594C17.9819 11.9979 18.0258 11.9418 18.0773 11.8928C18.0487 11.8609 18.0191 11.8299 17.9915 11.796L17.6386 11.5703Z" fill="#3CE878"/>
<path d="M29.2499 30.4295C29.492 29.6947 29.924 29.0342 30.5037 28.5126L31.7309 27.5807C32.6577 27.0473 33.7126 26.7668 34.7867 26.7681L36.3983 26.9802C37.4096 27.2552 38.331 27.7831 39.0726 28.5126L39.1712 28.6094C39.7509 29.1311 40.1829 29.7915 40.425 30.5263C40.7691 31.2442 40.9474 32.028 40.9474 32.8215C40.9474 33.615 40.7691 34.3987 40.425 35.1167C40.1832 35.8516 39.7512 36.5122 39.1712 37.0336L37.945 37.9654C37.0181 38.4986 35.9633 38.7795 34.8892 38.779L33.2775 38.5659C32.2655 38.292 31.3436 37.7639 30.6023 37.0336L30.5037 36.9367C29.9237 36.4153 29.4917 35.7548 29.2499 35.0198C28.9064 34.3017 28.7284 33.5181 28.7284 32.7246C28.7284 31.9312 28.9064 31.1476 29.2499 30.4295Z" fill="#FAF9E7"/>
<path d="M33.451 34.613C32.7509 34.613 32.1834 34.0553 32.1834 33.3673C32.1834 32.6794 32.7509 32.1217 33.451 32.1217C34.1511 32.1217 34.7186 32.6794 34.7186 33.3673C34.7186 34.0553 34.1511 34.613 33.451 34.613Z" fill="black"/>
<path d="M24.2224 38.8953C24.4461 38.4797 25.2081 38.5282 25.5728 38.2521C25.9682 37.9418 26.3065 37.5674 26.5733 37.145C27.1845 36.2064 27.5039 35.136 27.7966 34.0696C27.9228 33.6114 27.9938 33.0787 28.4196 32.7862C28.9637 32.4113 29.4615 32.7019 29.8676 33.0961C30.305 33.4998 30.6948 33.9505 31.0298 34.4396C31.3679 34.9598 31.5099 35.5758 31.8519 36.093C31.9061 36.1763 31.9653 36.2548 32.0254 36.3313L33.0456 37.1798C33.1955 37.3048 33.3413 37.4288 33.4793 37.5566C33.5769 37.5819 33.6678 37.6276 33.7457 37.6907C33.8237 37.7537 33.8868 37.8325 33.9308 37.9218C34.4532 38.8904 34.8495 39.9656 34.3468 41.0214C33.8924 41.9726 32.9204 42.5237 31.9209 42.7833C30.7969 43.0816 29.6221 43.1476 28.4709 42.9771C27.428 42.8163 26.2244 42.5896 25.3865 41.9184C24.5999 41.2868 23.7147 39.8387 24.2224 38.8953Z" fill="#E794DC"/>
<path d="M16.5447 32.6276C16.6147 31.0865 17.1302 29.4883 18.319 28.4151C19.5078 27.3418 20.9637 26.6716 22.6059 26.6716C24.2095 26.6913 25.7441 27.3154 26.8928 28.4151C27.9446 29.4476 28.7361 31.1437 28.6671 32.6276C28.5971 34.1677 28.0816 35.766 26.8928 36.8392C25.704 37.9125 24.2491 38.5827 22.6059 38.5827C21.0024 38.5627 19.4678 37.9386 18.319 36.8392C17.2731 35.8057 16.4776 34.1096 16.5447 32.6276Z" fill="#FAF9E7"/>
<path d="M22.5789 34.4803C21.8788 34.4803 21.3113 33.9226 21.3113 33.2346C21.3113 32.5467 21.8788 31.989 22.5789 31.989C23.279 31.989 23.8465 32.5467 23.8465 33.2346C23.8465 33.9226 23.279 34.4803 22.5789 34.4803Z" fill="black"/>
<path d="M0.418288 44.2138C0.534603 43.3024 0.582902 42.3628 1.03239 41.5395C1.32811 40.9903 2.18372 41.4784 1.88406 42.0238C1.6258 42.4965 1.55483 43.0244 1.48977 43.5503C1.45429 43.8322 1.41683 44.1141 1.38233 44.3969C1.36755 44.517 1.30248 44.6778 1.3981 44.7514C1.49372 44.825 1.70367 44.6546 1.78549 44.611C2.20072 44.4114 2.52869 44.0712 2.70912 43.653C2.9654 43.1135 3.21184 42.5546 3.25521 41.954C3.30055 41.3361 4.28727 41.3302 4.24094 41.954C4.17687 42.8258 3.83679 43.7276 3.38631 44.4841C3.02356 45.0904 2.14232 45.721 1.41486 45.7704C1.24108 45.7871 1.06592 45.7582 0.907276 45.6865C0.748631 45.6149 0.612197 45.5031 0.511933 45.3626C0.275359 45.0188 0.36703 44.5974 0.418288 44.2138Z" fill="#FED033"/>
<path d="M37.4327 46.2721C37.4358 46.2653 37.4374 46.2578 37.4374 46.2503C37.4374 46.2428 37.4358 46.2354 37.4327 46.2285C37.4205 46.1325 37.3706 46.045 37.2937 45.9845C37.2099 45.9263 37.0828 45.9176 36.8994 46.0087C36.8844 46.0173 36.8711 46.0284 36.86 46.0416C36.7373 46.3322 36.5875 46.6111 36.4125 46.8746C36.0983 47.3507 35.7071 47.7731 35.2542 48.1251C34.7959 48.475 34.2834 48.7503 33.7362 48.9407C33.1795 49.1358 32.6047 49.2769 32.0201 49.3621C31.4306 49.4542 30.8356 49.5079 30.2389 49.5228C29.0511 49.549 27.8524 49.4047 26.7622 48.9814C26.2194 48.7726 25.7078 48.4927 25.2412 48.1493L25.1643 48.0912L25.1367 48.0689L25.0815 48.0253C25.0451 47.9953 25.0076 47.9663 24.9721 47.9353C24.9002 47.8742 24.8302 47.8122 24.7612 47.7474C24.7612 47.7474 24.5877 47.6108 24.3669 47.4074C24.1226 47.1797 23.8922 46.9381 23.6769 46.6838C23.5064 46.4746 23.394 46.3351 23.3191 46.2586C23.2442 46.1821 23.2037 46.1724 23.1899 46.2111C23.1633 46.2867 23.2412 46.5666 23.4009 46.8795C23.5219 47.1233 23.6669 47.3549 23.8336 47.5711C24.0077 47.8067 24.1984 48.03 24.4044 48.2394C24.4793 48.3092 24.5571 48.375 24.635 48.4409L24.7543 48.5378L24.7848 48.561L24.8637 48.6211C24.9258 48.6695 24.9899 48.7179 25.0539 48.7596C25.5676 49.116 26.1284 49.4018 26.7208 49.6091C27.9037 50.0275 29.1526 50.1592 30.3798 50.1215C30.9937 50.1016 31.6055 50.0417 32.2113 49.9423C32.8248 49.8465 33.4273 49.692 34.0103 49.4812C34.6042 49.2656 35.1601 48.9597 35.6574 48.5746C36.1547 48.1871 36.5848 47.7229 36.931 47.2001C37.1275 46.9069 37.2955 46.5962 37.4327 46.2721Z" fill="#1D1D1D"/>
<path d="M33.3872 45.1313C33.394 45.1279 33.3999 45.1231 33.4047 45.1173C33.4095 45.1114 33.4129 45.1047 33.4148 45.0974C33.4634 45.0145 33.4779 44.9164 33.4552 44.8233C33.4247 44.7264 33.3301 44.6441 33.128 44.6102C33.1107 44.6073 33.093 44.6073 33.0757 44.6102L32.8658 44.7313L32.6479 44.8398C32.505 44.9163 32.3522 44.9773 32.2044 45.0413C31.1655 45.4658 30.0453 45.6641 28.9209 45.6224L28.6479 45.6089C28.5572 45.6089 28.4675 45.5914 28.3768 45.5837H28.226C28.1274 45.5837 28.0002 45.5662 27.8474 45.5566C27.6947 45.5469 27.5241 45.5207 27.3497 45.5023C27.1752 45.4839 27.0017 45.4461 26.84 45.4258C26.6261 45.3803 26.4694 45.3502 26.359 45.3386V45.4655C26.3894 45.4409 26.4271 45.4266 26.4664 45.4248C26.497 45.4248 26.5167 45.4248 26.5226 45.4045C26.5285 45.3841 26.5226 45.3638 26.4842 45.3347C26.4561 45.3147 26.4238 45.3012 26.3897 45.2952C26.3555 45.2891 26.3205 45.2908 26.287 45.2999V45.5043C26.4359 45.5969 26.5914 45.6788 26.7523 45.7493C27.0035 45.8569 27.2629 45.9449 27.5281 46.0128C27.6316 46.0457 27.739 46.0641 27.8396 46.0893C27.9401 46.1145 28.0367 46.1358 28.1156 46.1484L28.3886 46.1939C28.5562 46.2162 28.7247 46.2172 28.8933 46.2278C30.1087 46.2728 31.3195 46.0576 32.4419 45.5972C32.6036 45.5285 32.7662 45.4616 32.922 45.3793L33.1576 45.2621L33.3872 45.1313Z" fill="#1D1D1D"/>
<path d="M25.482 48.4331C25.4754 48.4365 25.4697 48.4413 25.4652 48.4472C25.4608 48.4531 25.4578 48.4598 25.4564 48.467C25.3864 48.6133 25.3499 48.8971 25.7619 48.9446C25.7798 48.9451 25.7977 48.9434 25.8152 48.9397C26.0945 48.7615 26.379 48.5933 26.6688 48.4351C27.9069 47.757 29.2485 47.2592 30.6403 47.0548C31.3337 46.9516 32.0369 46.9275 32.736 46.9831C33.0843 47.0121 33.4305 47.0613 33.7729 47.1303L34.0785 47.2001C34.1722 47.2214 34.2629 47.2495 34.3555 47.2746L34.3949 47.2824C34.4206 47.2872 34.458 47.294 34.5034 47.3056C34.5941 47.3289 34.7252 47.3541 34.871 47.3957C35.1668 47.4693 35.5335 47.5895 35.839 47.6999C35.9376 47.7406 36.0273 47.7745 36.1032 47.7967L36.2461 47.6408C36.2045 47.5961 36.1542 47.56 36.0982 47.5347C36.0421 47.5094 35.9815 47.4954 35.9199 47.4936C35.8489 47.4936 35.8262 47.5187 35.8321 47.542C35.844 47.5875 35.9741 47.6534 36.0381 47.7938L36.2353 47.5769C36.1604 47.5187 36.0736 47.4568 35.979 47.3919C35.9187 47.3428 35.8525 47.3012 35.7819 47.2679C35.6488 47.1875 35.4585 47.0916 35.2624 46.9976C34.9973 46.8729 34.7247 46.7642 34.4462 46.6722C34.3476 46.6441 34.2491 46.617 34.1505 46.5956L34.0016 46.5617L33.9652 46.553L33.9376 46.5472L33.904 46.5395L33.768 46.5143C33.4066 46.4469 33.0411 46.4026 32.6739 46.3816C32.306 46.3527 31.9366 46.3462 31.5679 46.3622C31.2007 46.3774 30.8347 46.4137 30.4717 46.4707C29.0283 46.7092 27.6388 47.1958 26.3672 47.9081C26.0675 48.0728 25.7718 48.2491 25.482 48.4331Z" fill="#1D1D1D"/>
<path d="M48.7287 40.2734C48.7248 40.2665 48.7195 40.2605 48.713 40.2558C48.7065 40.2511 48.6991 40.2478 48.6912 40.2463C48.6467 40.2248 48.5982 40.2126 48.5486 40.2104C48.4991 40.2083 48.4497 40.2162 48.4034 40.2337C48.3097 40.2753 48.2417 40.3819 48.223 40.5717C48.2203 40.5878 48.2203 40.6041 48.223 40.6202C48.3964 40.8639 48.5239 41.1362 48.5995 41.4241C48.6943 41.784 48.7038 42.1605 48.6271 42.5245C48.5047 43.072 48.1981 43.5631 47.7567 43.9183C47.7213 43.9484 47.6828 43.9755 47.6454 44.0026L47.6168 44.0229C47.6099 44.0229 47.6109 44.0278 47.599 44.0355L47.5655 44.0549L47.4315 44.1353C47.3427 44.1895 47.2481 44.2409 47.1554 44.2932L47.0855 44.3329C47.0805 44.3329 47.0855 44.3329 47.0855 44.3397V44.3474L47.0973 44.3639L47.119 44.3959L47.2067 44.5266L47.3812 44.7862L47.4265 44.854L47.4472 44.886L47.4886 44.9509C47.5438 45.0361 47.598 45.1223 47.6503 45.2105C47.7025 45.2986 47.7558 45.3848 47.806 45.473C47.8563 45.5611 47.9046 45.6502 47.9549 45.7403C48.4735 46.6933 48.8626 47.709 49.1121 48.7615C49.3615 49.8095 49.468 50.8924 49.2974 51.9347C49.1269 52.9769 48.6942 53.9843 48.1984 54.9558C47.7047 55.9285 47.1196 56.8537 46.4507 57.7193C45.7881 58.5831 45.0274 59.3699 44.1835 60.0644C43.7593 60.4071 43.3128 60.7223 42.8468 61.0078C42.6152 61.1521 42.3747 61.2819 42.1351 61.4117L41.7685 61.5928C41.6462 61.6548 41.5191 61.7052 41.3949 61.7614C40.8927 61.9792 40.3751 62.1611 39.8463 62.3058C39.5821 62.3716 39.317 62.4385 39.0478 62.4859C38.9808 62.4985 38.9148 62.513 38.8507 62.5247L38.6536 62.5537L38.5924 62.5624C38.5126 62.5731 38.4318 62.5876 38.3509 62.5963L38.1085 62.6196L37.9586 62.6448C37.865 62.6622 37.7319 62.6748 37.5801 62.6961C37.4283 62.7174 37.2538 62.7329 37.0784 62.7503C36.9029 62.7678 36.7245 62.7765 36.5628 62.792C36.4248 62.8027 36.3115 62.8036 36.2178 62.8094C36.1448 62.8131 36.0721 62.8209 36 62.8327C35.8935 62.853 35.861 62.8792 35.8856 62.9121C35.9519 62.9639 36.029 63.0007 36.1114 63.0196C36.2579 63.0674 36.4082 63.1027 36.5609 63.1252C36.6362 63.144 36.713 63.1563 36.7905 63.162C36.9443 63.1853 37.1562 63.193 37.3731 63.2095C37.59 63.2259 37.8078 63.2192 37.9724 63.2192L38.2474 63.2095C38.3322 63.1998 38.417 63.1949 38.5008 63.1824L38.7965 63.1407C39.3565 63.0545 39.9091 62.9269 40.4496 62.7591C40.9888 62.589 41.5158 62.3832 42.0267 62.143C42.5359 61.9015 43.0273 61.6254 43.4974 61.3168C43.9674 61.0103 44.416 60.6731 44.84 60.3075C45.6871 59.5797 46.4501 58.7624 47.115 57.8704C47.7777 56.9817 48.358 56.0364 48.8489 55.0459C49.3418 54.0647 49.7745 53.0186 49.9332 51.893C50.0919 50.7675 49.9638 49.6352 49.7026 48.56C49.442 47.4808 49.0411 46.439 48.5098 45.4604C48.4596 45.3635 48.4113 45.2725 48.3541 45.1804C48.2969 45.0884 48.2466 44.9954 48.1905 44.9044C48.1343 44.8133 48.0781 44.7223 48.0209 44.6322L47.9568 44.5353L48.0081 44.4985C48.0554 44.4646 48.1067 44.4307 48.1481 44.393C48.3306 44.2472 48.4959 44.0818 48.6409 43.8999C49.0485 43.386 49.2772 42.7568 49.2932 42.1054C49.3091 41.454 49.1116 40.8148 48.7297 40.2821L48.7287 40.2734Z" fill="#1D1D1D"/>
<path d="M2.7994 43.1186C2.81011 43.1292 2.82465 43.1351 2.83981 43.1351C2.9365 43.1557 3.03754 43.1387 3.12173 43.0876C3.20552 43.0295 3.25579 42.9143 3.2272 42.7196C3.22462 42.7026 3.21894 42.6862 3.21045 42.6711C3.06262 42.5401 2.92335 42.4 2.79348 42.2517C2.72941 42.1771 2.66633 42.1016 2.6062 42.0231L2.58352 41.9941L2.57268 41.9795L2.50368 41.8827C2.46622 41.8323 2.43271 41.7781 2.39722 41.7267C2.12018 41.3041 1.92005 40.8374 1.80579 40.3474C1.69125 39.8557 1.65797 39.3491 1.70721 38.847C1.75229 38.3425 1.8763 37.8478 2.07489 37.3805C2.27065 36.9136 2.53938 36.4796 2.87136 36.0942C3.03319 35.9056 3.21493 35.7345 3.41351 35.5837C3.61142 35.4396 3.8262 35.3192 4.05324 35.2253C4.52049 35.0435 5.02206 34.9626 5.52395 34.988C6.03017 35.015 6.52687 35.1342 6.98873 35.3396C7.45802 35.5503 7.8934 35.8274 8.28103 36.162C8.67532 36.5107 9.09819 36.8671 9.2983 37.2536C9.32202 37.299 9.3418 37.3463 9.35744 37.395C9.36631 37.4183 9.36828 37.4386 9.37518 37.4599C9.38208 37.4812 9.38208 37.5035 9.38307 37.5248C9.38795 37.6206 9.37492 37.7165 9.34462 37.8077C9.25438 38.0364 9.14007 38.2552 9.00356 38.4605C8.73041 38.912 8.43432 39.3498 8.11641 39.772C7.47864 40.6235 6.77582 41.44 6.09764 42.2905C5.41946 43.1409 4.76494 44.0262 4.2563 45.0113C3.73229 45.9991 3.41521 47.0801 3.3238 48.1904C3.23963 49.2966 3.35407 50.4087 3.66191 51.4759C3.96472 52.5407 4.43215 53.5534 5.04784 54.4787C5.66006 55.3959 6.38255 56.2372 7.19968 56.9845C8.01216 57.7271 8.89214 58.395 9.82861 58.9799C10.7582 59.561 11.7636 60.0948 12.8844 60.3544C13.1615 60.4132 13.4425 60.4537 13.7252 60.4754C14.0095 60.4973 14.2949 60.5019 14.5798 60.489C15.1456 60.4657 15.6947 60.3921 16.2329 60.3185C16.7598 60.2402 17.2911 60.1943 17.8238 60.181C18.3356 60.1675 18.8461 60.2386 19.334 60.3912C19.5673 60.4667 19.7889 60.5736 19.9924 60.7089C20.1947 60.8443 20.3762 61.0074 20.5316 61.1932C20.8372 61.5574 21.0245 62.0136 20.9821 62.4592C20.9579 62.6836 20.886 62.9005 20.771 63.0959C20.6561 63.2913 20.5006 63.4608 20.3148 63.5934C20.1321 63.7255 19.9216 63.8156 19.6987 63.8569C19.4807 63.8933 19.2568 63.8732 19.0491 63.7988C18.9461 63.7645 18.8488 63.7156 18.7603 63.6535C18.6752 63.5975 18.6013 63.5266 18.5424 63.4443C18.4851 63.3682 18.4448 63.281 18.4241 63.1886C18.4061 63.1089 18.4098 63.0261 18.435 62.9483C18.4658 62.8608 18.513 62.7797 18.574 62.7091C18.6405 62.638 18.7184 62.5782 18.8046 62.5318C18.881 62.4914 18.9663 62.4698 19.053 62.4689C19.1229 62.4656 19.1913 62.4889 19.2443 62.5338L19.2561 62.5405C19.1674 62.6374 20.092 61.7656 19.6898 62.1202L19.6504 62.0737C19.6243 62.0427 19.5963 62.0132 19.5666 61.9855C19.5088 61.9287 19.4476 61.8753 19.3833 61.8257C18.9939 61.535 18.5095 61.3948 18.022 61.4315C17.6939 61.4565 17.3791 61.5697 17.1121 61.7589C16.8491 61.9439 16.6357 62.1889 16.4902 62.4727C16.3431 62.7598 16.2751 63.0798 16.293 63.4007C16.3126 63.7151 16.4061 64.0208 16.5661 64.2937C16.7196 64.5566 16.9176 64.7918 17.1516 64.9892C17.2677 65.0857 17.3906 65.1741 17.5193 65.2537C17.6464 65.3303 17.7781 65.3995 17.9135 65.4609C18.4397 65.6815 18.9927 65.8342 19.5587 65.9152C20.1028 66.0076 20.6489 66.0847 21.197 66.1467C23.3934 66.3875 25.6118 66.3601 27.8014 66.0654C28.8983 65.9244 29.9826 65.7003 31.0444 65.3951C32.1152 65.0902 33.1468 64.6654 34.1189 64.1291C34.6703 63.8213 35.1954 63.4702 35.6892 63.0791C35.8104 62.9822 35.9356 62.8854 36.0529 62.7769L36.2303 62.6209L36.3969 62.4611C36.4541 62.4069 36.5122 62.3536 36.5664 62.2964L36.665 62.1928L36.6808 62.1763C36.7232 62.1318 36.7675 62.0901 36.8089 62.0436L37.0554 61.7715L37.149 61.6417C37.2082 61.5613 37.289 61.4479 37.3747 61.3114C37.5659 61.0162 37.7308 60.7054 37.8676 60.3824C37.9496 60.2108 38.0111 60.0304 38.051 59.8449C38.0697 59.7402 38.051 59.7025 38.0135 59.716C37.9317 59.7402 37.7671 59.9669 37.564 60.2323C37.5158 60.2877 37.4708 60.3455 37.429 60.4057C37.3836 60.4638 37.3304 60.5345 37.2752 60.6072L37.0889 60.8367C36.9558 60.9898 36.8227 61.1447 36.7143 61.2542L36.5862 61.3888L36.5359 61.4382L36.3299 61.6659L36.2214 61.7753L36.1751 61.8228C36.1288 61.8693 36.0844 61.9196 36.0351 61.9623C35.9366 62.0514 35.8449 62.1453 35.7453 62.2315C35.5482 62.4069 35.3441 62.5764 35.1332 62.7362C34.7114 63.0577 34.2667 63.349 33.8025 63.608C32.871 64.1219 31.8823 64.5288 30.8561 64.8207C29.8233 65.1172 28.7687 65.3348 27.7018 65.4716C25.5638 65.7587 23.3978 65.7851 21.2532 65.5501C20.7183 65.49 20.185 65.4151 19.6534 65.3253C19.126 65.2333 18.6124 65.1229 18.158 64.9166C18.0459 64.8655 17.9369 64.8079 17.8317 64.7442C17.7282 64.6814 17.6294 64.6115 17.536 64.5349C17.3556 64.3829 17.2029 64.2018 17.0845 63.9993C16.9699 63.807 16.9024 63.5911 16.8874 63.3687C16.877 63.1524 16.9239 62.9371 17.0234 62.7439C17.1244 62.5473 17.2721 62.3775 17.4542 62.249C17.6314 62.1232 17.8405 62.0478 18.0584 62.031C18.2817 62.0147 18.5057 62.0519 18.711 62.1395C18.8643 62.2019 19.0034 62.2938 19.1201 62.4098C19.1395 62.4282 19.1579 62.4476 19.1753 62.4679L19.2009 62.4979C18.8066 62.8718 19.7559 62.0136 19.6425 62.0872L19.6129 62.0649C19.4532 61.9381 19.2535 61.8696 19.0481 61.8712C18.8609 61.8712 18.6765 61.916 18.5109 62.002C18.3567 62.0828 18.218 62.1893 18.1008 62.3168C17.9843 62.4506 17.895 62.6052 17.8376 62.772C17.7809 62.9513 17.773 63.142 17.815 63.3251C17.8532 63.4954 17.9271 63.6561 18.0318 63.7968C18.1305 63.9343 18.2533 64.0534 18.3946 64.1485C18.5287 64.2415 18.6753 64.3159 18.8303 64.3693C19.1379 64.4781 19.4689 64.5071 19.7914 64.4536C20.1069 64.3964 20.4049 64.2692 20.6627 64.0816C20.917 63.8981 21.1303 63.6654 21.2897 63.3978C21.4525 63.1277 21.5516 62.8252 21.5795 62.5125C21.6045 62.2014 21.5605 61.8888 21.4503 61.5961C21.3433 61.3119 21.188 61.0476 20.991 60.8144C20.7982 60.5853 20.5732 60.3844 20.3227 60.2178C20.0741 60.0527 19.8034 59.9223 19.5183 59.8303C18.9655 59.6555 18.3867 59.5733 17.8061 59.5872C17.2483 59.6006 16.6919 59.6485 16.1402 59.7306C15.5981 59.8013 15.0658 59.8749 14.5414 59.8962C14.2818 59.908 14.0217 59.9038 13.7626 59.8836C13.5059 59.8611 13.251 59.8216 12.9997 59.7654C11.9893 59.531 11.0391 59.037 10.1411 58.4694C9.24032 57.9014 8.39432 57.2536 7.61369 56.5341C6.83266 55.8199 6.14196 55.016 5.55648 54.1397C4.9754 53.2672 4.53392 52.3123 4.24743 51.3084C3.95921 50.3091 3.85145 49.2679 3.92904 48.232C4.01416 47.1997 4.30948 46.1947 4.79747 45.2767C5.27653 44.3488 5.90739 43.4906 6.57177 42.6547C7.23615 41.8187 7.94687 40.9973 8.60237 40.1236C8.92865 39.6858 9.24211 39.2344 9.526 38.7618C9.68606 38.5185 9.81829 38.2586 9.92029 37.9869C9.97532 37.8227 9.99774 37.6498 9.98633 37.4774C9.98633 37.4328 9.97549 37.3882 9.96859 37.3437C9.96169 37.2991 9.94887 37.2546 9.93507 37.2139C9.90806 37.1348 9.87511 37.0577 9.8365 36.9834C9.69176 36.7195 9.50658 36.479 9.28745 36.2704C9.18888 36.1687 9.08341 36.0767 8.98188 35.9799L8.83106 35.8433C8.77848 35.7955 8.72526 35.749 8.67137 35.7038C8.23862 35.3298 7.752 35.0207 7.22728 34.7865C6.69315 34.5519 6.11917 34.4172 5.53479 34.3894C4.94356 34.3596 4.35277 34.4558 3.80287 34.6712C3.52707 34.7853 3.26627 34.9317 3.02612 35.1071C2.79251 35.2839 2.57872 35.4845 2.38835 35.7057C2.01824 36.1396 1.71926 36.6275 1.50218 37.1519C1.39182 37.4136 1.30122 37.683 1.23111 37.9578C1.16292 38.2329 1.1158 38.5127 1.09015 38.7947C1.03613 39.3612 1.07541 39.9326 1.20646 40.4869C1.33763 41.0433 1.56574 41.5732 1.8807 42.0531C1.92112 42.1122 1.95956 42.1723 2.00195 42.2304L2.07982 42.3369L2.09164 42.3534L2.11727 42.3863C2.18529 42.4755 2.25626 42.5607 2.32921 42.645C2.47555 42.8125 2.63259 42.9707 2.7994 43.1186Z" fill="#1D1D1D"/>
<path d="M5.06923 44.2964C5.06923 44.2964 5.06924 44.2964 5.07909 44.2838C5.15884 44.111 5.20242 43.9242 5.20724 43.7346C5.20829 43.7259 5.20829 43.7171 5.20724 43.7084C5.20724 43.7084 5.15203 43.6968 5.07416 43.6774C4.99629 43.658 4.89575 43.629 4.7952 43.5961C4.59806 43.5312 4.40091 43.4449 4.40091 43.4449C4.30583 43.4467 4.21124 43.4591 4.11899 43.4818C3.90903 43.5176 3.89918 43.6639 3.96719 43.7801C3.95832 43.7801 4.00465 43.8382 4.05591 43.8925C4.10717 43.9467 4.16138 43.998 4.16138 43.998C4.16138 43.998 4.37528 44.0949 4.60101 44.1675C4.71437 44.2053 4.82872 44.2383 4.91645 44.2644C5.00418 44.2906 5.06627 44.2964 5.06923 44.2964Z" fill="#1D1D1D"/>
<path d="M44.312 44.9452C44.3116 44.9379 44.3095 44.9307 44.3057 44.9243C44.3019 44.9179 44.2967 44.9124 44.2903 44.9084C44.1819 44.7864 43.9325 44.6469 43.7255 45.0053C43.7171 45.0207 43.7115 45.0374 43.7088 45.0547L43.7679 45.4044C43.7866 45.5206 43.7965 45.6388 43.8103 45.756L43.831 45.9323L43.8428 46.0408L43.8773 46.6374V47.2341C43.8396 48.8335 43.4675 50.4082 42.7841 51.8603C42.105 53.3133 41.1105 54.6027 39.8703 55.6379C38.6314 56.6747 37.1886 57.4498 35.6317 57.9151C35.5331 57.9432 35.4346 57.9752 35.3409 58.0014L35.0452 58.074C34.9466 58.0972 34.8481 58.1234 34.7495 58.1447L34.4538 58.2009C34.3552 58.2203 34.2566 58.2406 34.158 58.2571L33.8574 58.2978L33.5883 58.3346L33.6031 58.3123L33.6662 58.2106C33.6938 58.1641 33.7233 58.1195 33.749 58.073C33.9666 57.7052 34.1528 57.3203 34.3059 56.9223C34.3434 56.8254 34.3798 56.7218 34.4143 56.6211L34.4636 56.469C34.4725 56.4438 34.4794 56.4186 34.4873 56.3934L34.5247 56.2617C34.5819 56.0631 34.6174 55.8742 34.6637 55.6805L34.7751 55.1207L34.8037 54.9773L34.8175 54.9056V54.8872C34.8175 54.8872 34.8234 54.8698 34.8175 54.8756L34.7879 54.894L34.5474 55.048L34.0654 55.3551C33.8978 55.4703 33.7164 55.5943 33.5548 55.6999C33.47 55.7561 33.3852 55.8132 33.2985 55.8684C32.6118 56.3142 31.9025 56.7255 31.1733 57.1005C30.1294 57.6432 29.031 58.0779 27.8957 58.3975C27.3309 58.5544 26.7564 58.6751 26.1756 58.7588C25.5967 58.8391 25.0126 58.8786 24.4279 58.877C23.2584 58.8826 22.0964 58.6927 20.9917 58.3152C20.7182 58.22 20.4497 58.1114 20.1873 57.9897L20.0178 57.9132L20.007 57.9074L19.9961 57.9016L20.972 57.1364L21.3229 56.8603C21.3504 56.8405 21.3767 56.8191 21.4018 56.7964H21.2825L21.042 56.8032L20.5619 56.8167H20.0996H19.868H19.7526C19.7198 56.819 19.6869 56.819 19.6541 56.8167L19.4451 56.7867C19.3751 56.7751 19.3041 56.7702 19.2351 56.7538L19.0281 56.7073C18.8891 56.6801 18.7541 56.6336 18.6181 56.593C18.482 56.5523 18.3499 56.4961 18.2169 56.4486C17.684 56.2312 17.1794 55.9522 16.7136 55.6176C15.7706 54.9318 14.9396 54.1087 14.2493 53.1766C13.5454 52.2491 12.9592 51.2408 12.5036 50.1739C12.0446 49.1118 11.7407 47.9913 11.6007 46.8457L11.5504 46.2819C11.5396 46.1851 11.5396 46.094 11.5376 46.0001V45.7172L11.5327 45.4354C11.5327 45.3385 11.5435 45.2475 11.5484 45.1535V45.0654L11.5583 44.8978C11.5619 44.7863 11.5714 44.6751 11.5869 44.5646C11.5869 44.5646 11.6026 44.3437 11.6164 44.0406C11.6164 44.0028 11.6164 43.964 11.6164 43.9233L11.6322 43.8023C11.6421 43.719 11.6519 43.6337 11.6618 43.5475C11.6717 43.4613 11.6795 43.3741 11.6884 43.2889C11.6884 43.2463 11.6973 43.2037 11.7002 43.163C11.7032 43.1223 11.714 43.0816 11.7209 43.0419C11.8195 42.5121 11.8067 42.3309 11.7338 42.3639C11.6608 42.3968 11.5268 42.6544 11.3878 42.9712C11.3498 43.0381 11.3222 43.1103 11.3059 43.1853L11.1423 43.7364C11.1135 43.8369 11.0898 43.9387 11.0713 44.0415L11.0171 44.3127C10.9846 44.4716 10.9639 44.5781 10.9639 44.5781C10.9521 44.6828 10.9491 44.7883 10.9422 44.8929L10.9324 45.0499L10.9166 45.3279C10.9067 45.5041 10.9166 45.6804 10.9166 45.8567C10.9166 46.2112 10.957 46.5609 10.9856 46.9125C11.1325 48.1128 11.4511 49.2868 11.9319 50.3996C12.407 51.5118 13.018 52.563 13.7515 53.5302C14.4775 54.5112 15.3517 55.3775 16.344 56.099C16.8492 56.4611 17.3961 56.7635 17.9734 56.9998C18.1213 57.054 18.2691 57.117 18.417 57.1586C18.5671 57.2087 18.7198 57.2511 18.8744 57.2855L19.106 57.3378C19.1829 57.3553 19.2627 57.3621 19.3416 57.3746L19.5772 57.4086H19.5999H19.6403L19.2105 57.7456L19.034 57.8841L18.9463 57.9529L18.902 57.9868C18.902 57.9926 18.8832 57.9994 18.8842 58.0043L18.9089 58.0168L19.2972 58.2193L19.6856 58.4217L19.7339 58.4469C19.7438 58.4524 19.754 58.4573 19.7645 58.4614L19.8177 58.4857L19.9232 58.5341C20.2031 58.6658 20.4919 58.7782 20.7837 58.8818C21.9534 59.2816 23.1836 59.4834 24.422 59.4785C25.0374 59.48 25.6521 59.4382 26.2614 59.3535C26.8691 59.2663 27.4704 59.1401 28.0613 58.9758C29.2371 58.6447 30.3748 58.1948 31.4562 57.6333C32.2027 57.2503 32.9289 56.83 33.6317 56.3741L33.8988 56.1987L33.8929 56.2162C33.886 56.2404 33.8801 56.2636 33.8722 56.2869L33.8259 56.4273C33.7943 56.5242 33.7608 56.6123 33.7273 56.7044C33.586 57.0727 33.4143 57.4291 33.2137 57.7698C33.1901 57.8125 33.1625 57.8531 33.1368 57.8958L33.0984 57.9587L33.0757 57.9946L33.0343 58.0537L32.8727 58.2929C32.8165 58.3733 32.7445 58.4644 32.6814 58.5496L32.4843 58.8082L32.3857 58.9351L32.3384 58.999L32.3138 59.031C32.3078 59.0378 32.3069 59.0417 32.3138 59.0387H32.3325L32.9535 58.9893L33.5735 58.94C33.6001 58.94 33.6258 58.9399 33.6445 58.9332L33.6869 58.9274L33.7657 58.9167L33.9244 58.8954L34.2418 58.8518C34.3473 58.8344 34.4518 58.8131 34.5563 58.7937L34.8707 58.7336C34.9752 58.7114 35.0777 58.6833 35.1822 58.659L35.4927 58.5825C35.5913 58.5554 35.6968 58.5215 35.7983 58.4924C37.4366 58.0031 38.9549 57.1877 40.2587 56.097C41.5649 55.0052 42.6131 53.6466 43.3302 52.116C44.0493 50.5889 44.4409 48.9328 44.4806 47.2506V46.621L44.4441 45.9933L44.4313 45.878L44.4106 45.693C44.3948 45.569 44.385 45.4451 44.3652 45.322L44.312 44.9452Z" fill="#1D1D1D"/>
<path d="M15.151 32.3069C15.152 32.2997 15.1514 32.2924 15.1492 32.2856C15.1469 32.2787 15.1432 32.2724 15.1382 32.2671C15.0603 32.1306 14.8503 31.9233 14.5665 32.2226C14.5546 32.2364 14.5453 32.2521 14.5389 32.2691C14.5162 32.6033 14.4994 32.9374 14.4837 33.2726C14.4357 34.3574 14.4229 35.4433 14.4452 36.5301L14.46 37.0899C14.46 37.0899 14.4827 37.3195 14.5221 37.6295C14.5615 37.9394 14.6207 38.3278 14.6897 38.6465C14.7074 38.7434 14.7242 38.8276 14.7409 38.8993L14.9479 38.9545C14.989 38.8765 15.0019 38.787 14.9844 38.7007C14.9749 38.6493 14.9518 38.6012 14.9174 38.5613C14.8651 38.5051 14.8296 38.509 14.8188 38.5303C14.81 38.5694 14.8047 38.6093 14.803 38.6494C14.7968 38.7096 14.7688 38.7656 14.7242 38.8073L15.009 38.8819C15.0159 38.7976 15.0228 38.7037 15.0268 38.6049C15.0357 38.6397 15.0386 38.2358 15.0475 37.8241L15.0682 36.9931L15.0564 36.5175C15.0347 35.4449 15.0478 34.372 15.0958 33.2987C15.1066 32.9684 15.1283 32.6381 15.151 32.3069Z" fill="#1D1D1D"/>
<path d="M8.15624 35.6599C8.15188 35.6653 8.14867 35.6716 8.1468 35.6782C8.14494 35.6849 8.14447 35.6918 8.1454 35.6987C8.13949 35.8517 8.19863 36.1433 8.60475 36.0377C8.62205 36.0322 8.63835 36.024 8.65305 36.0135C8.85611 35.7377 9.04898 35.4546 9.23167 35.164C9.37263 34.9354 9.50965 34.7049 9.63681 34.4695C9.72848 34.3019 9.8172 34.1334 9.90098 33.9629C9.90098 33.9629 9.99364 33.7459 10.0981 33.4466C10.2143 33.1184 10.3092 32.7832 10.382 32.4431C10.4297 32.2605 10.4578 32.0735 10.4658 31.8852C10.4658 31.7777 10.4441 31.7438 10.4076 31.7631C10.3327 31.8009 10.2026 32.0537 10.0548 32.3511C10.0548 32.3162 9.89999 32.6843 9.71369 33.0466C9.52739 33.4088 9.3194 33.7692 9.3194 33.7692C9.24974 33.9087 9.17713 34.0468 9.10156 34.1837C8.97933 34.4094 8.84626 34.6303 8.70727 34.8482C8.53575 35.1252 8.35043 35.3955 8.15624 35.6599Z" fill="#1D1D1D"/>
<path d="M41.3634 38.8855C41.3693 38.8855 41.3713 38.8855 41.3851 38.8855C41.4713 38.8347 41.5437 38.7641 41.5961 38.6797C41.6485 38.5954 41.6792 38.4998 41.6858 38.4012C41.6877 38.3916 41.6877 38.3817 41.6858 38.3722L41.6069 38.3247C41.5606 38.2908 41.4926 38.2511 41.4177 38.192C41.2307 38.0517 41.0545 37.8983 40.8903 37.7329C40.7255 37.5666 40.5708 37.391 40.427 37.2069C40.3107 37.0558 40.2397 36.9512 40.2397 36.9512L40.0958 36.8127C40.011 36.7332 39.9055 36.6315 39.8089 36.5492C39.6581 36.402 39.5724 36.37 39.527 36.4146C39.4817 36.4591 39.4807 36.5792 39.5132 36.7119C39.5344 36.8147 39.5675 36.9148 39.6118 37.0103C39.6443 37.0858 39.6769 37.1633 39.7045 37.2205L39.7508 37.3173C39.9632 37.6194 40.2009 37.9036 40.4615 38.1668C40.6457 38.3509 40.8434 38.5215 41.0529 38.6773C41.1387 38.7441 41.2185 38.7925 41.2718 38.8303L41.3634 38.8855Z" fill="#1D1D1D"/>
<path d="M16.2809 31.8757C16.2947 31.8699 16.2997 31.867 16.3125 31.8456C16.3697 31.7671 16.395 31.6704 16.3834 31.5744C16.3637 31.4776 16.2799 31.3807 16.0877 31.3284C16.0704 31.3257 16.0528 31.3257 16.0355 31.3284C15.7374 31.4567 15.4312 31.5661 15.1188 31.6558C14.4657 31.844 13.7894 31.9427 13.1089 31.9493C12.4356 31.9493 11.7594 31.8524 11.1916 31.5686C10.6222 31.2698 10.1736 30.7891 9.92003 30.2058C9.65481 29.6092 9.53854 28.9589 9.58094 28.3092C9.61942 27.6408 9.75008 26.9806 9.96932 26.3468C10.175 25.7015 10.4468 25.0784 10.7806 24.487C11.4517 23.2989 12.3233 22.2315 13.3582 21.3302C13.8761 20.8791 14.4273 20.4663 15.0074 20.0953C15.5884 19.7258 16.1963 19.3989 16.826 19.1169C17.4566 18.8436 18.1117 18.6283 18.7827 18.4738C19.4579 18.311 20.145 18.1832 20.836 18.0863C22.2188 17.8829 23.6164 17.7922 25.0145 17.8151L25.2392 17.82H25.2767H25.3496L25.4955 17.8277C25.5941 17.8335 25.6926 17.8345 25.7843 17.8451H25.9292C26.0199 17.8519 26.148 17.8577 26.2959 17.8771C26.6257 17.9211 26.9512 17.9924 27.2688 18.0902C27.5251 18.1754 27.6927 18.2394 27.7962 18.2665C27.8319 18.279 27.8698 18.2843 27.9076 18.282C27.9113 18.2798 27.9146 18.2768 27.9171 18.2733C27.9197 18.2698 27.9215 18.2659 27.9224 18.2616C27.9238 18.2579 27.9238 18.2538 27.9224 18.25C27.9228 18.2481 27.9228 18.2461 27.9224 18.2442L27.9155 18.2839L27.9214 18.2491C27.9214 18.2374 27.9214 18.2491 27.9214 18.2432C27.9214 18.2432 27.9214 18.2432 27.9273 18.2432C27.9332 18.2432 27.9273 18.2316 27.9194 18.2248C27.91 18.2089 27.8995 18.1937 27.8879 18.1793C27.8536 18.1386 27.816 18.1007 27.7755 18.066C27.658 17.9642 27.531 17.8737 27.396 17.7957C27.1572 17.6527 26.9021 17.538 26.636 17.4538C26.4404 17.3882 26.2405 17.3357 26.0376 17.2969C25.9529 17.2814 25.8819 17.2717 25.8326 17.264C25.7833 17.2562 25.7547 17.2523 25.7547 17.2523L25.459 17.2359L25.3082 17.2281H25.2708L25.0588 17.2233C24.8824 17.2233 24.7049 17.2146 24.5295 17.2175C23.1213 17.2249 21.7159 17.3415 20.3263 17.5662C19.629 17.6745 18.938 17.8193 18.2563 18.0001C17.9153 18.097 17.5742 18.1938 17.2381 18.3169C17.0685 18.3721 16.9039 18.4476 16.7363 18.5106C16.5688 18.5735 16.414 18.6588 16.2523 18.7324C15.6112 19.0343 14.9949 19.3847 14.409 19.7804L14.1882 19.9267L13.9753 20.0836C13.8334 20.1902 13.6885 20.2899 13.5505 20.4013L13.1404 20.7365C13.0034 20.8469 12.8772 20.9709 12.7461 21.0881L12.549 21.2654C12.4859 21.3264 12.4248 21.3903 12.3627 21.4523C12.2394 21.5782 12.1113 21.7003 11.992 21.8301L11.6401 22.2253C11.58 22.2902 11.5248 22.358 11.4706 22.4277L11.306 22.635L11.1413 22.8413C11.0881 22.912 11.0428 22.9847 10.9876 23.0563C10.889 23.2007 10.7816 23.3469 10.6859 23.4903L10.407 23.9388C10.3587 24.0124 10.3163 24.0899 10.2749 24.1683L10.1497 24.4008L10.0235 24.6333C9.9841 24.7117 9.94862 24.7921 9.91116 24.8715C9.8392 25.0323 9.76034 25.1902 9.6943 25.3559L9.50405 25.8489C9.47054 25.9302 9.44491 26.0145 9.41928 26.0988L9.34042 26.3506C9.23142 26.6871 9.14579 27.0305 9.08413 27.3783C9.01828 27.73 8.98103 28.0863 8.97275 28.4438C8.96439 28.807 8.99545 29.17 9.0654 29.5268C9.13695 29.8883 9.2566 30.2391 9.42125 30.57C9.58618 30.9061 9.80296 31.2152 10.0639 31.4863C10.3296 31.7605 10.6435 31.9853 10.9905 32.1498C11.327 32.3041 11.6836 32.412 12.0502 32.4704C12.4119 32.5306 12.7785 32.5579 13.1453 32.5518C13.8695 32.54 14.5887 32.4318 15.2834 32.2302C15.6233 32.1333 15.9565 32.0149 16.2809 31.8757Z" fill="#1D1D1D"/>
<path d="M28.216 18.0186C28.2016 18.0252 28.1903 18.0369 28.1845 18.0515C28.156 18.0908 28.136 18.1353 28.1257 18.1825C28.1153 18.2296 28.1149 18.2783 28.1244 18.3256C28.152 18.4225 28.2476 18.5067 28.4388 18.5561C28.4551 18.5587 28.4718 18.5587 28.4881 18.5561C28.7684 18.4211 29.0673 18.3268 29.3752 18.2762C30.1116 18.1406 30.8933 18.1871 31.6493 18.3256C32.0277 18.3982 32.4008 18.4953 32.7661 18.6162C33.1287 18.7398 33.4807 18.8914 33.8189 19.0695C34.1517 19.2509 34.466 19.4633 34.7573 19.704C35.052 19.9489 35.3287 20.214 35.5853 20.4973C35.8436 20.7811 36.0841 21.0843 36.3167 21.3932L36.505 21.6538C36.5622 21.7313 36.6144 21.8136 36.6696 21.8931C36.6696 21.8931 36.8116 22.0703 37.0018 22.3144C37.1921 22.5585 37.4286 22.8704 37.6337 23.1232C38.302 24.0008 38.1995 23.5591 37.9146 22.9363C37.9382 22.9644 37.7559 22.5982 37.5548 22.2301C37.4562 22.0451 37.3488 21.8621 37.2699 21.7226L37.1319 21.492C37.0777 21.4107 37.0205 21.3293 36.9624 21.2499L36.8756 21.1298L36.8155 21.0465L36.7248 20.9273C36.4854 20.6073 36.2291 20.2998 35.9569 20.0062C35.6817 19.7094 35.3852 19.4323 35.0698 19.177C34.7479 18.9205 34.4028 18.6936 34.0387 18.499C33.3101 18.1314 32.5307 17.8703 31.7252 17.7241C31.3223 17.6486 30.9139 17.6046 30.5039 17.5924C30.0885 17.5769 29.6727 17.6065 29.2639 17.6805C28.8999 17.7431 28.5469 17.857 28.216 18.0186Z" fill="#1D1D1D"/>
<path d="M29.9606 26.2141C29.9606 26.2141 29.9606 26.2141 29.9429 26.2141C29.7556 26.2738 29.5948 26.3949 29.4875 26.557C29.482 26.5646 29.4783 26.5732 29.4766 26.5822C29.4766 26.5822 29.5436 26.6684 29.6402 26.7847C29.7369 26.9009 29.868 27.0539 30.004 27.2002C30.2741 27.4908 30.5649 27.7678 30.5649 27.7678C30.7005 27.8443 30.8447 27.9051 30.9946 27.949C31.312 28.0458 31.3042 27.8676 31.2154 27.6952C31.1842 27.6294 31.1455 27.5674 31.1001 27.5102L30.972 27.3164C30.972 27.3164 30.7019 27.0627 30.4515 26.7876C30.3253 26.65 30.2041 26.5086 30.1134 26.4001C30.0227 26.2916 29.9646 26.218 29.9606 26.2141Z" fill="#1D1D1D"/>
<path d="M29.5548 26.4553C29.5548 26.4485 29.5548 26.4456 29.546 26.433C29.4967 26.3719 29.4307 26.3259 29.3557 26.3003C29.2399 26.2623 29.1163 26.2529 28.9959 26.2732C28.9858 26.2743 28.976 26.2776 28.9673 26.2828C28.9351 26.3893 28.8925 26.4924 28.8402 26.5909C28.7197 26.8071 28.5676 27.0049 28.3887 27.1779C28.2018 27.3592 28.0007 27.526 27.7874 27.6767C27.61 27.8026 27.4868 27.883 27.4868 27.883L27.3271 28.0341C27.2344 28.1203 27.1171 28.2278 27.0156 28.3111C26.8372 28.4429 26.7702 28.5049 26.8056 28.564C26.8411 28.623 26.9821 28.6434 27.1457 28.6182C27.2694 28.6027 27.3902 28.5701 27.5045 28.5213C27.5952 28.4874 27.6829 28.4477 27.749 28.4177L27.8564 28.3664C27.8564 28.3664 27.9836 28.284 28.1719 28.1484C28.4079 27.9806 28.6301 27.7947 28.8362 27.5924C29.0543 27.379 29.2393 27.1352 29.3853 26.8689C29.4553 26.7367 29.512 26.5982 29.5548 26.4553Z" fill="#1D1D1D"/>
<path d="M27.9725 19.4278C27.9738 19.435 27.9766 19.4419 27.9809 19.4479C27.9852 19.4539 27.9907 19.459 27.9971 19.4627C28.1115 19.5712 28.3747 19.7135 28.558 19.3474C28.5654 19.3308 28.5701 19.3131 28.5718 19.2951L28.3352 18.3129C27.8405 16.3861 26.9536 14.5778 25.728 12.9971C25.1187 12.2086 24.4331 11.48 23.6806 10.8216C23.5821 10.7402 23.4943 10.655 23.3977 10.5755L23.102 10.3421L22.8063 10.1096C22.7077 10.035 22.6023 9.96433 22.5007 9.89168L22.2139 9.68924C22.1331 9.62919 22.0463 9.57494 21.9606 9.52167C21.9606 9.52167 21.7516 9.40834 21.4677 9.26208C21.3257 9.18846 21.1562 9.12066 20.9886 9.04801C20.828 8.97485 20.6635 8.91018 20.4958 8.85429C19.4322 8.48524 19.787 8.80392 20.3597 9.1594C20.342 9.1594 20.4248 9.19718 20.547 9.28145L21.0162 9.58463C21.104 9.63887 21.1877 9.69893 21.2666 9.75608L21.4825 9.91203L21.6944 10.0631C21.7762 10.1125 21.8521 10.1697 21.931 10.2239L22.2839 10.4738L22.4288 10.5765L22.5678 10.6869L22.8448 10.9068C23.034 11.0492 23.2065 11.21 23.3849 11.3659C24.0895 11.9952 24.7317 12.6886 25.3032 13.4369C25.4412 13.6306 25.5851 13.8136 25.7181 14.0074L26.1045 14.5973L26.4584 15.2056C26.5738 15.4099 26.6743 15.6221 26.7827 15.8303C27.1948 16.6736 27.5182 17.5561 27.7478 18.464L27.9725 19.4278Z" fill="#1D1D1D"/>
<path d="M27.504 15.7925C27.504 15.8003 27.4981 15.8032 27.504 15.8206C27.5275 15.901 27.5606 15.9784 27.6026 16.0511C27.6327 16.0977 27.6789 16.1321 27.7327 16.148C27.7779 16.1585 27.8247 16.1599 27.8705 16.1521C27.9162 16.1442 27.9599 16.1274 27.9988 16.1025C28.0188 16.0901 28.0368 16.0747 28.052 16.057C28.1386 15.8696 28.1881 15.6678 28.1979 15.4622C28.2117 15.2772 28.2058 15.1125 28.2098 14.9382C28.1897 13.2973 27.7264 11.6911 26.8672 10.2839C26.7686 10.1183 26.6592 9.95946 26.5518 9.79964C26.5518 9.79964 26.5143 9.75217 26.4483 9.67662C26.3822 9.60107 26.2945 9.49452 26.1801 9.37538C26.0516 9.23877 25.9078 9.11691 25.7514 9.01214C25.6656 8.95605 25.5741 8.90897 25.4783 8.87169C25.3851 8.83547 25.2873 8.81232 25.1875 8.80292C24.8642 8.76805 24.6641 8.88428 24.5852 8.96177C24.5064 9.03926 24.5113 9.0877 24.5507 9.09254C24.5902 9.09738 24.6671 9.07704 24.7686 9.07317C24.8924 9.06749 25.016 9.08763 25.1313 9.13225C25.1156 9.13225 25.1915 9.15356 25.292 9.21458C25.4274 9.3036 25.5467 9.41426 25.6449 9.54198C25.7565 9.68592 25.8601 9.83563 25.9554 9.99045C26.0402 10.1173 26.0904 10.2065 26.0904 10.2065L26.2206 10.4002C26.2629 10.4651 26.3014 10.5319 26.3428 10.5939C27.1443 11.9097 27.5766 13.4107 27.5956 14.944C27.5956 15.1029 27.5956 15.2714 27.5858 15.4186C27.5823 15.5472 27.5545 15.6739 27.504 15.7925Z" fill="#1D1D1D"/>
<path d="M24.4899 9.14972C23.6189 7.69434 22.2728 6.57097 20.6702 5.96198C20.34 5.83799 19.9802 5.73435 19.6362 5.79053C19.2922 5.84671 18.9462 6.10243 18.9097 6.44823C18.9501 5.99394 18.5213 5.61133 18.0718 5.49994C17.6223 5.38855 17.1492 5.46992 16.6859 5.48929C15.7987 5.52706 14.9116 5.33431 14.0718 5.03113C13.3817 4.78316 12.7184 4.44995 12.1989 3.95402C11.6794 3.45808 11.3028 2.77036 11.3048 2.0526C11.3068 1.33485 11.7316 0.604509 12.4118 0.342012C11.1402 0.279051 9.97606 1.26608 9.58867 2.45749C9.20128 3.6489 9.47531 4.97107 10.05 6.0879C10.8642 7.6716 12.2432 8.9221 13.7731 9.86554C15.3029 10.809 16.9925 11.4686 18.6712 12.1215C18.4927 12.2454 18.1921 12.1602 18.0718 12.3394C17.9516 12.5186 18.1507 12.7394 18.3301 12.8654C19.4814 13.6742 20.6515 14.4917 21.9842 14.9576C22.9798 15.3053 24.0542 15.4545 24.9709 15.9795C25.3317 16.1868 25.6609 16.4512 26.0552 16.5897C26.4495 16.7282 26.9424 16.7079 27.2194 16.4028L27.0735 16.2391" stroke="black" stroke-width="0.517087" stroke-linecap="round" stroke-linejoin="round"/>
<path d="M17.8546 8.38262C17.8604 8.38669 17.867 8.3895 17.8739 8.39084C17.8809 8.39217 17.8881 8.39201 17.895 8.39036C17.992 8.38848 18.0855 8.35434 18.1602 8.2935C18.2351 8.2257 18.2785 8.11043 18.2065 7.9138C18.1997 7.89686 18.19 7.88114 18.1779 7.86731C17.8782 7.68717 17.5674 7.52542 17.2474 7.38299C16.4145 7.01007 15.5559 6.74661 14.723 6.4628C13.89 6.17899 13.0778 5.87194 12.3572 5.43025C12.2034 5.33597 12.0536 5.2362 11.9077 5.13094C11.9077 5.13094 11.7165 5.01567 11.4681 4.84035C11.1964 4.66211 10.9504 4.44871 10.7367 4.2059C10.6311 4.06704 10.5443 3.91532 10.4784 3.75452C10.44 3.65766 10.4094 3.63054 10.3798 3.65766C10.3353 3.73494 10.3173 3.82429 10.3286 3.91241C10.3379 4.07806 10.3811 4.24015 10.4557 4.38897C10.4847 4.46624 10.5249 4.53899 10.575 4.60498C10.6886 4.77188 10.8177 4.92817 10.9604 5.07185C11.1662 5.27944 11.3841 5.47511 11.613 5.65787C11.75 5.75474 11.891 5.8516 12.0339 5.9349C12.8225 6.41921 13.682 6.73789 14.5248 7.02654C15.3676 7.31519 16.2104 7.57285 16.995 7.92639C17.2911 8.06035 17.5783 8.21274 17.8546 8.38262Z" fill="#1D1D1D"/>
<path d="M36.149 23.407C38.5561 23.561 40.8755 24.7088 42.5798 26.3846C42.9258 26.7246 43.258 27.266 42.9574 27.6438C42.8198 27.7908 42.6357 27.8878 42.4349 27.9189C42.1106 27.9925 40.355 26.8156 38.4023 25.8848C36.4496 24.9539 34.3934 24.5926 34.3372 24.0444C34.281 23.4961 34.6861 23.5126 34.9947 23.4303C35.3032 23.3479 36.149 23.407 36.149 23.407Z" stroke="black" stroke-width="0.517087" stroke-miterlimit="10"/>
<path d="M24.531 23.8323C24.5103 23.5552 24.4196 23.3702 24.2176 23.2453C24.0075 23.1321 23.7746 23.066 23.5354 23.0516C21.1898 22.7889 18.8275 23.3803 16.8956 24.7137C16.4569 25.0188 15.901 25.3443 15.8182 25.8664C15.621 27.1304 17.4348 26.6723 19.6221 25.7569C21.8094 24.8416 24.6355 25.2455 24.531 23.8323Z" stroke="black" stroke-width="0.517087" stroke-miterlimit="10"/>
<path d="M26.759 23.2608C26.4376 21.4304 27.1891 19.7751 28.4375 19.5634C29.6858 19.3517 30.9584 20.6639 31.2798 22.4942C31.6012 24.3245 30.8497 25.9799 29.6014 26.1916C28.353 26.4033 27.0804 25.0911 26.759 23.2608Z" stroke="black" stroke-width="0.517087" stroke-linecap="round" stroke-linejoin="round"/>
<path d="M39.1254 26.2442C39.1254 26.2442 39.1254 26.2384 39.1067 26.2384C38.9094 26.2366 38.7179 26.3039 38.5665 26.4282C38.5594 26.4342 38.5532 26.4411 38.5477 26.4485C38.5477 26.4534 38.5832 26.5454 38.6266 26.681C38.67 26.8166 38.7252 26.9987 38.7626 27.1818C38.8175 27.4259 38.8573 27.673 38.8819 27.9218C38.933 28.0619 38.9936 28.1985 39.0633 28.3306C39.0731 28.3529 39.084 28.3722 39.0938 28.3897L39.4881 29.0493L39.3344 28.4003C39.3299 28.3729 39.3185 28.3471 39.3013 28.3251C39.2841 28.3031 39.2616 28.2857 39.2358 28.2744C39.2231 28.2696 39.2093 28.2681 39.1958 28.2701C39.1823 28.2722 39.1696 28.2776 39.1589 28.286C39.1224 28.3151 39.0919 28.3626 39.0524 28.3703L39.3738 28.3858C39.3843 28.3631 39.3936 28.3398 39.4014 28.3161C39.4298 28.243 39.4477 28.1664 39.4546 28.0884C39.4753 27.9674 39.4881 27.8424 39.4881 27.8424C39.4608 27.5731 39.4173 27.3056 39.358 27.0413C39.3137 26.8428 39.2594 26.6462 39.2111 26.498C39.1628 26.3498 39.1274 26.249 39.1254 26.2442Z" fill="#1D1D1D"/>
<path d="M34.5498 38.6824C35.7295 38.7302 36.8976 38.438 37.9105 37.8419C38.9234 37.2458 39.7368 36.3717 40.2507 35.3272C40.7646 34.2827 40.9565 33.1133 40.8029 31.963C40.6493 30.8127 40.1568 29.7316 39.3861 28.8528C38.6153 27.9739 37.5999 27.3357 36.4648 27.0165C35.3297 26.6974 34.1244 26.7113 32.9973 27.0565C31.8701 27.4017 30.8702 28.0632 30.1206 28.9596C29.3711 29.8559 28.9045 30.9481 28.7784 32.1016" stroke="black" stroke-width="0.48163" stroke-linecap="round" stroke-linejoin="round"/>
<path d="M29.0643 32.2148C29.0488 32.2088 29.0315 32.2088 29.016 32.2148C28.9672 32.2267 28.9216 32.2487 28.8823 32.2795C28.843 32.3102 28.8109 32.349 28.7883 32.393C28.7469 32.4899 28.7735 32.6081 28.8809 32.7631C28.8905 32.7756 28.9021 32.7864 28.9154 32.795C29.2064 32.8745 29.4801 33.0058 29.7227 33.1825C30.0999 33.4582 30.4294 33.7918 30.6986 34.1705C30.8352 34.3605 30.9578 34.5599 31.0653 34.7672C31.1728 34.9744 31.2674 35.1963 31.3669 35.4258C31.4668 35.6644 31.5797 35.8975 31.705 36.1242C31.8385 36.3642 32.0043 36.5854 32.1979 36.7819C32.3862 36.961 32.5836 37.1308 32.7893 37.2904C32.9745 37.4386 33.1497 37.5984 33.3137 37.7689C33.637 38.1023 33.8976 38.4893 34.0836 38.9119C34.1732 39.1192 34.2394 39.3355 34.2807 39.557C34.3205 39.7756 34.3308 39.9983 34.3113 40.2195C34.2804 40.6602 34.1247 41.0836 33.8618 41.4419C33.7304 41.6142 33.5704 41.7635 33.3887 41.8836C33.1921 42.0101 32.9854 42.1206 32.7706 42.2139C32.3397 42.4232 31.886 42.5837 31.4182 42.6924C30.9371 42.7779 30.4507 42.8313 29.9623 42.8523C28.9766 42.9162 27.9839 42.9162 27.0662 42.6634C26.6109 42.542 26.1782 42.3497 25.7848 42.0938C25.3998 41.8443 25.0765 41.5133 24.8385 41.1252L24.7961 41.0526C24.7833 41.0322 24.7636 40.9935 24.7655 40.9973L24.7517 40.9683L24.7222 40.9082C24.7017 40.869 24.6836 40.8285 24.6679 40.7872C24.6315 40.7068 24.6049 40.6225 24.5763 40.5392L24.529 40.4094C24.5152 40.3677 24.5014 40.3125 24.4836 40.2612C24.4659 40.2099 24.454 40.1401 24.4373 40.0675C24.4075 39.9161 24.3907 39.7625 24.387 39.6083C24.3838 39.4487 24.3964 39.2891 24.4245 39.1318C24.4348 39.0736 24.4482 39.0161 24.4649 38.9594C24.4767 38.908 24.4915 38.8625 24.5043 38.8102C24.53 38.7308 24.533 38.6461 24.5132 38.5651C24.5097 38.5442 24.501 38.5244 24.488 38.5075C24.4749 38.4907 24.4579 38.4772 24.4383 38.4683C24.4343 38.4664 24.4299 38.4655 24.4255 38.4656C24.4211 38.4657 24.4168 38.4668 24.413 38.4689C24.4091 38.471 24.4058 38.474 24.4033 38.4776C24.4009 38.4812 24.3993 38.4853 24.3988 38.4896C24.3826 38.5481 24.357 38.6037 24.3229 38.6542C24.2973 38.6978 24.2589 38.7434 24.2165 38.8141C24.17 38.888 24.1294 38.9654 24.0952 39.0456C24.0553 39.1169 24.0261 39.1936 24.0085 39.2732C23.9508 39.47 23.9177 39.673 23.9099 39.8776C23.9027 40.0874 23.9172 40.2974 23.9533 40.5043C23.9691 40.5896 23.9858 40.6593 23.9967 40.7097C24.0075 40.76 24.0174 40.7862 24.0174 40.7862C24.0509 40.883 24.0913 40.9857 24.1337 41.0836C24.1544 41.133 24.18 41.1804 24.2027 41.2279L24.2204 41.2628L24.2263 41.2744C24.2336 41.2897 24.2418 41.3046 24.251 41.3189L24.3013 41.4061C24.369 41.5224 24.4447 41.6341 24.528 41.7403C24.8582 42.1576 25.2709 42.5049 25.7414 42.7612C26.2009 43.013 26.6959 43.1964 27.2101 43.3056C28.2304 43.5274 29.2624 43.4945 30.255 43.4218C30.7685 43.3988 31.2787 43.3288 31.779 43.2126C32.2745 43.0726 32.7554 42.8868 33.2152 42.6576C33.4598 42.5443 33.6911 42.4053 33.9052 42.243C34.1249 42.0699 34.314 41.8624 34.4651 41.6289C34.7577 41.168 34.9194 40.6386 34.9333 40.0956C34.9458 39.5602 34.8303 39.0293 34.5962 38.5458C34.3687 38.0744 34.0625 37.6439 33.6903 37.272C33.5089 37.0911 33.3167 36.921 33.1146 36.7625C32.9308 36.6194 32.756 36.4654 32.5912 36.3015C32.2955 35.9934 32.0983 35.5798 31.9101 35.1333C31.8115 34.9105 31.7129 34.679 31.5937 34.4494C31.473 34.2204 31.3357 34.0003 31.1826 33.7908C30.8773 33.3658 30.5046 32.9916 30.0786 32.6827C29.7727 32.4666 29.4288 32.308 29.0643 32.2148Z" fill="#1D1D1D"/>
<path d="M22.5778 38.8922C24.0772 38.8919 25.525 38.3546 26.6503 37.381C27.7756 36.4075 28.5013 35.0642 28.6915 33.6028C28.8817 32.1414 28.5234 30.662 27.6836 29.4414C26.8439 28.2209 25.5802 27.3429 24.1292 26.9719C22.6782 26.6008 21.1393 26.7621 19.8006 27.4255C18.4619 28.089 17.4151 29.2091 16.8562 30.5762C16.2973 31.9433 16.2646 33.4638 16.7642 34.8529C17.2637 36.242 18.2614 37.4046 19.5704 38.1231" stroke="black" stroke-width="0.491233" stroke-miterlimit="10"/>
<path d="M4.63651 41.5941C4.63806 41.587 4.63816 41.5797 4.6368 41.5725C4.63545 41.5654 4.63267 41.5585 4.62863 41.5525C4.56555 41.4072 4.37924 41.1815 4.06479 41.4488C4.0515 41.461 4.04049 41.4755 4.03226 41.4914C3.97411 41.8179 3.91496 42.1414 3.84202 42.4601C3.76448 42.8155 3.66037 43.1648 3.53053 43.5052C3.40612 43.8371 3.24059 44.1526 3.03767 44.4448C2.63451 45.0172 2.05194 45.4822 1.39939 45.6323C1.31758 45.6459 1.23181 45.6662 1.15493 45.672C1.0895 45.6806 1.0232 45.6806 0.957782 45.672C0.909384 45.6638 0.863731 45.6442 0.824711 45.6149C0.783834 45.5819 0.750284 45.541 0.726138 45.4948C0.662622 45.361 0.627091 45.2161 0.621652 45.0686C0.617102 44.9827 0.617102 44.8967 0.621652 44.8109C0.621652 44.7208 0.621654 44.6307 0.630526 44.5407C0.649159 44.1793 0.697616 43.8201 0.775425 43.4665L0.796127 43.3696L0.812883 43.3008L0.848367 43.1642C0.871039 43.0732 0.900615 42.9841 0.926244 42.894C0.926244 42.894 0.939057 42.8398 0.961728 42.7506C0.9844 42.6615 1.01791 42.5346 1.0603 42.3913C1.14409 42.1007 1.27322 41.7452 1.39348 41.4498C1.49994 41.2018 1.57189 41.0391 1.60344 40.9374C1.63498 40.8357 1.62512 40.796 1.58372 40.8027C1.50388 40.8163 1.288 41.0178 1.09086 41.3035C0.930025 41.5222 0.789487 41.7546 0.670938 41.998C0.621652 42.0949 0.572363 42.1917 0.532934 42.2886C0.493505 42.3855 0.451124 42.4688 0.421552 42.5453C0.35748 42.6964 0.32298 42.801 0.32298 42.801C0.293408 42.8979 0.265807 42.9947 0.242149 43.0916L0.204691 43.2379L0.152445 43.48C0.0764629 43.8601 0.0313067 44.2456 0.0174006 44.6327V44.9233C0.0177346 45.0278 0.0243186 45.1323 0.0371164 45.2361C0.0595277 45.4716 0.140425 45.6981 0.272706 45.8958C0.353925 46.0093 0.460464 46.103 0.584193 46.1699C0.705801 46.2348 0.840368 46.2728 0.978484 46.2813C1.20252 46.2916 1.42673 46.2651 1.64188 46.2028C1.84721 46.1507 2.04569 46.0753 2.23331 45.9781C2.41877 45.8847 2.59414 45.773 2.75673 45.6449C2.91892 45.521 3.06966 45.3832 3.20721 45.2332C3.34595 45.0862 3.47284 44.9288 3.58672 44.7625C4.04705 44.0961 4.29151 43.3415 4.46303 42.6005C4.51725 42.2566 4.57836 41.9263 4.63651 41.5941Z" fill="#1D1D1D"/>
<path d="M3.80688 41.7607C3.81285 41.7461 3.81285 41.7298 3.80688 41.7152C3.79429 41.6675 3.77164 41.6229 3.74039 41.5843C3.70914 41.5458 3.67 41.5141 3.6255 41.4914C3.52693 41.4517 3.40765 41.4749 3.24895 41.5883C3.23563 41.5981 3.22427 41.6102 3.21544 41.6241C3.17996 41.7665 3.12672 41.9273 3.07842 42.0871C3.03012 42.2469 2.97985 42.4019 2.92859 42.5559C2.73933 43.1197 2.50966 43.6592 2.16465 44.1057C2.07994 44.2163 1.98703 44.3205 1.88668 44.4176C1.83838 44.4651 1.78811 44.5145 1.73586 44.5523C1.71356 44.5707 1.69019 44.5878 1.66588 44.6036L1.64912 44.6142V44.5736C1.64734 44.5067 1.64898 44.4398 1.65405 44.3731C1.66782 44.2017 1.69351 44.0315 1.73094 43.8636L1.75164 43.7154C1.76544 43.6185 1.78614 43.4897 1.80881 43.3386C1.85711 43.0373 1.91822 42.6605 1.97047 42.3351C2.06904 41.7994 2.06904 41.6241 1.99117 41.657C1.9133 41.69 1.77431 41.9408 1.63927 42.2576C1.53373 42.5008 1.44159 42.7495 1.36326 43.0025C1.29623 43.202 1.23413 43.4054 1.18879 43.5584C1.14344 43.7115 1.11584 43.82 1.11584 43.82C1.08092 43.9885 1.05688 44.159 1.04388 44.3304C1.03797 44.4147 1.036 44.5009 1.03797 44.5871V44.6201V44.6617C1.03981 44.6997 1.04376 44.7375 1.0498 44.775C1.05571 44.8118 1.05966 44.8496 1.06656 44.8855C1.07543 44.9186 1.08696 44.951 1.10106 44.9823C1.1273 45.0445 1.16755 45.0999 1.21877 45.1446C1.27 45.1892 1.33086 45.2218 1.39677 45.24C1.53884 45.2704 1.68709 45.2551 1.81965 45.1964C1.855 45.1817 1.88955 45.1652 1.92316 45.147C1.94049 45.1383 1.95728 45.1286 1.97343 45.1179L2.00595 45.0976C2.04617 45.0711 2.08499 45.0427 2.12227 45.0124C2.19092 44.9582 2.25672 44.9007 2.31941 44.8399C2.44053 44.7231 2.55287 44.5979 2.65555 44.4651C3.06463 43.9372 3.315 43.3318 3.51411 42.7419C3.56833 42.5801 3.61959 42.4184 3.66887 42.2576C3.71816 42.0968 3.76153 41.9408 3.80688 41.7607Z" fill="#1D1D1D"/>
<path d="M23.7156 40.0354C23.7205 40.0404 23.7266 40.0442 23.7332 40.0465C23.7399 40.0489 23.747 40.0497 23.754 40.0489C23.8493 40.0624 23.9464 40.0443 24.0301 39.9976C24.1158 39.9414 24.1779 39.8349 24.1375 39.6295C24.1332 39.6116 24.1259 39.5946 24.1158 39.5791L23.966 39.4513L23.8083 39.3331L23.6505 39.2149C23.5963 39.1772 23.5411 39.1423 23.4859 39.1055L23.3213 38.997C23.3075 38.9883 23.2947 38.9786 23.2799 38.9708L23.0049 38.811C22.927 38.7636 22.8432 38.7258 22.7624 38.6841C22.6816 38.6425 22.5998 38.5989 22.516 38.5631C22.3474 38.4914 22.1808 38.4139 22.0073 38.3548C20.6241 37.8369 19.1107 37.757 17.679 38.1262C16.9792 38.3035 16.3217 38.5408 15.6652 38.6531C15.3454 38.7135 15.019 38.7324 14.6942 38.7093C14.3768 38.681 14.0661 38.6032 13.7736 38.4788C13.1844 38.2241 12.6912 37.7946 12.363 37.2506C12.2033 36.9813 12.0801 36.6839 12.0752 36.4214C12.0757 36.2893 12.1045 36.1588 12.1597 36.0383C12.2149 35.9178 12.2952 35.8101 12.3955 35.7221C12.5018 35.6234 12.6211 35.5393 12.7504 35.4722C12.8863 35.4052 13.0295 35.3535 13.1772 35.3182C13.4994 35.2486 13.8282 35.2128 14.158 35.2116H14.2881H14.3542C14.2201 35.7095 14.5513 34.5336 14.5089 34.6537L14.5 34.6488L14.4843 34.6401L14.4517 34.6227L14.3197 34.5549C14.2766 34.5303 14.2314 34.5096 14.1846 34.4929C14.0032 34.4161 13.8138 34.359 13.6198 34.3224C13.2364 34.2517 12.843 34.2517 12.4596 34.3224C11.6962 34.4579 10.9977 34.8315 10.4674 35.3879C9.95982 35.9481 9.6188 36.6347 9.48172 37.3726C9.35328 38.0312 9.35094 38.7076 9.47482 39.367C9.59994 40.019 9.82389 40.6488 10.1392 41.2355C10.7789 42.3918 11.6866 43.384 12.7888 44.1317C13.3312 44.5027 13.9089 44.8213 14.5138 45.0829C15.1135 45.3485 15.7326 45.5693 16.366 45.7435C16.9952 45.9189 17.634 46.0592 18.2793 46.1639C18.44 46.1919 18.6007 46.2162 18.7623 46.2394C18.8422 46.251 18.923 46.2636 19.0038 46.2733L19.2749 46.3092L19.75 46.3644L19.9886 46.3915L20.1078 46.405H20.1374H20.1522V46.3915L20.1345 46.3353L19.8683 45.4781L19.5854 44.5724L19.5499 44.4591L19.5411 44.431V44.4165V44.4097C18.438 44.894 19.2375 44.5482 18.992 44.6576L19.0285 44.7119C19.0778 44.7836 19.1271 44.8591 19.1773 44.926C19.2818 45.0627 19.3957 45.1922 19.5184 45.3134C20.0114 45.7933 20.6135 46.1512 21.275 46.3576C21.9263 46.5636 22.6126 46.6416 23.2947 46.5871C23.9638 46.5344 24.6224 46.3924 25.2524 46.1648C25.5658 46.0554 25.8714 45.9295 26.1701 45.7909L26.3928 45.6854L26.5791 45.5885L26.6186 45.5682L26.7773 45.4829C26.8827 45.4238 26.9872 45.3628 27.0897 45.2969L27.1183 45.2785C27.281 45.1565 27.4336 45.0221 27.5747 44.8766C27.6969 44.7494 27.8061 44.6109 27.901 44.463C27.9975 44.3119 28.0734 44.1491 28.1267 43.9786C28.196 43.7929 28.222 43.5943 28.2026 43.3975C28.1849 43.289 28.1533 43.2619 28.1218 43.287C28.0587 43.3384 27.9799 43.5931 27.8103 43.8556C27.7105 44.005 27.5974 44.1454 27.4722 44.275C27.266 44.472 27.0339 44.6411 26.7822 44.7778L26.6905 44.8281C26.6008 44.8833 26.5092 44.9366 26.4145 44.987L26.3436 45.0238L26.3081 45.0432L26.1109 45.14C25.5714 45.4076 25.0061 45.6218 24.4234 45.7793C23.8509 45.9356 23.2577 46.0062 22.6638 45.9885C22.0783 45.9746 21.5017 45.8448 20.9684 45.6069C20.4431 45.3729 19.9862 45.0128 19.6396 44.5598C19.5953 44.5056 19.5608 44.4445 19.5213 44.3874L19.5066 44.3661L19.4997 44.3545V44.3496C19.6179 44.2925 18.4459 44.8117 18.9437 44.5957L18.9605 44.6509L18.995 44.7603L19.132 45.2001L19.2897 45.7047L18.9092 45.6544C18.6046 45.6098 18.3 45.5575 17.9994 45.5052C17.3967 45.3955 16.801 45.2516 16.2152 45.0742C15.0486 44.7356 13.9488 44.2053 12.9623 43.506C12.4782 43.1534 12.0337 42.7511 11.6365 42.3058C11.4387 42.0843 11.2541 41.8518 11.0835 41.6094C10.9166 41.366 10.7651 41.1127 10.6301 40.851C10.3589 40.333 10.1685 39.7779 10.0653 39.2043C9.96481 38.6344 9.96949 38.0513 10.0791 37.483C10.1948 36.854 10.4847 36.2685 10.9169 35.7908C11.3572 35.3317 11.9354 35.0232 12.567 34.9104C12.8762 34.8537 13.1933 34.8537 13.5025 34.9104C13.6537 34.9393 13.8014 34.9837 13.9431 35.0431C13.9775 35.0561 14.0105 35.0723 14.0417 35.0915L14.1403 35.1438L14.1659 35.1574L14.1777 35.1632H14.1846C14.156 35.2862 14.4675 34.1045 14.3315 34.6043H14.2654H14.1314C13.7576 34.6064 13.3851 34.6483 13.0205 34.7292C12.8262 34.7756 12.6379 34.8438 12.4596 34.9326C12.2771 35.0262 12.1091 35.1449 11.9608 35.2852C11.8061 35.4305 11.6804 35.603 11.5902 35.7938C11.4965 35.9927 11.4503 36.21 11.4551 36.4292C11.463 36.6341 11.5039 36.8365 11.5764 37.0288C11.6428 37.2088 11.7263 37.3823 11.8258 37.547C12.2198 38.2054 12.8157 38.7245 13.5281 39.0299C13.8823 39.181 14.2586 39.2758 14.643 39.3108C15.0204 39.3372 15.3997 39.3161 15.7716 39.2479C16.5021 39.12 17.1704 38.8759 17.8318 38.7093C19.1421 38.3726 20.5267 38.4474 21.7915 38.9234C21.9502 38.9767 22.102 39.0483 22.2567 39.1171C22.3336 39.15 22.4066 39.1917 22.4815 39.2275C22.5564 39.2634 22.6323 39.3011 22.7033 39.3447L22.9546 39.49C22.9677 39.4972 22.9802 39.5053 22.9921 39.5142L23.1419 39.6111C23.1922 39.644 23.2405 39.676 23.2917 39.708L23.4357 39.8155L23.5825 39.9191L23.7156 40.0354Z" fill="#1D1D1D"/>
<path d="M34.5811 39.2829C34.5758 39.2884 34.5716 39.295 34.5689 39.3021C34.5662 39.3093 34.565 39.3169 34.5653 39.3245C34.5557 39.3722 34.5559 39.4212 34.5659 39.4688C34.5759 39.5164 34.5955 39.5615 34.6235 39.6016C34.6885 39.68 34.8098 39.7178 35.003 39.6849C35.0198 39.6817 35.0358 39.6754 35.0503 39.6664C35.2475 39.4326 35.4802 39.23 35.7403 39.0659C36.0349 38.8771 36.3613 38.7413 36.7043 38.6649C37.0607 38.5915 37.4246 38.559 37.7886 38.568C38.1612 38.568 38.5457 38.5971 38.9252 38.6261C39.3047 38.6552 39.6842 38.6969 40.0627 38.7472C40.4412 38.7976 40.8168 38.8576 41.1914 38.9284C41.5659 38.9991 41.9395 39.0833 42.3328 39.1531C42.7352 39.2312 43.1453 39.2637 43.5551 39.2499C43.9884 39.2332 44.4123 39.1217 44.7962 38.9235C44.9941 38.8186 45.1749 38.6851 45.3324 38.5273C45.4938 38.3643 45.6234 38.1736 45.7149 37.9646C45.8 37.7622 45.8551 37.5489 45.8785 37.3311C45.9016 37.1246 45.9065 36.9166 45.8933 36.7092C45.8821 36.273 45.7517 35.8478 45.5157 35.4781C45.4489 35.3805 45.3709 35.2908 45.2831 35.2108C45.24 35.1705 45.1942 35.1329 45.1461 35.0984L45.0722 35.049L45.0653 35.0442L45.156 35.0258C45.2417 35.0122 45.3275 34.9996 45.4142 34.9928C45.5869 34.9793 45.7606 34.9822 45.9327 35.0016C46.2763 35.0392 46.6078 35.1478 46.9056 35.3202C47.2053 35.4948 47.4675 35.7251 47.6774 35.9983C47.7485 36.0905 47.8127 36.1876 47.8697 36.2889C48.034 36.5772 48.1404 36.8939 48.1831 37.2216C48.2451 37.7693 48.2375 38.3225 48.1604 38.8683C48.0916 39.4227 47.9662 39.9689 47.7859 40.4985C47.4358 41.5571 46.8449 42.5234 46.0579 43.324C45.9593 43.4208 45.8607 43.5177 45.7523 43.6078C45.6439 43.6979 45.5443 43.7938 45.428 43.8722C45.3117 43.9507 45.2062 44.0398 45.0889 44.1153C44.9716 44.1909 44.8523 44.2665 44.7301 44.3372C44.2291 44.6165 43.712 44.8671 43.1815 45.0878C42.1209 45.5431 41.0189 45.9034 39.8922 46.0361C39.7512 46.0478 39.6103 46.0671 39.4693 46.072L39.2574 46.0826H39.0602L39.0671 46.0603C39.091 45.9776 39.1098 45.8935 39.1233 45.8085C39.1436 45.67 39.1508 45.5299 39.145 45.3901C39.145 45.3223 39.1332 45.2603 39.1253 45.1963L39.0937 45.0181L39.0247 44.6568L39.0099 44.5803V44.5706C39.0099 44.5648 39.0099 44.5706 39.003 44.5706L38.9804 44.59L38.936 44.6287L38.7497 44.7876C38.6216 44.899 38.5003 44.9929 38.3771 45.0917C38.319 45.1364 38.2581 45.1775 38.1948 45.2147C38.1672 45.2322 38.1386 45.2496 38.109 45.2651C38.0518 45.298 37.9927 45.329 37.9325 45.362C37.4426 45.5929 36.9046 45.7083 36.3613 45.6991C35.8072 45.686 35.2596 45.5789 34.7427 45.3823C34.4811 45.2847 34.2266 45.1698 33.9808 45.0384C33.8612 44.9749 33.7453 44.9047 33.6338 44.8283L33.5914 44.7982C33.549 44.7672 33.5076 44.7362 33.4672 44.7014C33.388 44.6373 33.3132 44.568 33.2434 44.4941L33.208 44.4582C33.1922 44.4427 33.1528 44.4069 33.0976 44.3449C32.9794 44.2124 32.8799 44.0648 32.8018 43.9061C32.7036 43.7028 32.6298 43.4889 32.582 43.2688C32.5318 43.0121 32.518 42.8358 32.4953 42.7331C32.4726 42.6304 32.447 42.5985 32.4135 42.6227C32.3494 42.6711 32.2538 42.952 32.2459 43.3153C32.2366 43.4776 32.2492 43.6405 32.2833 43.7996C32.3126 43.9576 32.3568 44.1126 32.4154 44.2626C32.4735 44.4088 32.5461 44.5489 32.6323 44.681C32.6767 44.7469 32.719 44.804 32.7535 44.8486C32.8156 44.9241 32.8521 44.9677 32.8521 44.9677C32.9409 45.0563 33.0354 45.1391 33.135 45.2157L33.2099 45.2709L33.2474 45.298L33.2809 45.3213C33.345 45.3649 33.409 45.4065 33.478 45.4462C33.7358 45.5999 34.0051 45.7343 34.2834 45.8482C34.5601 45.9639 34.8451 46.0594 35.136 46.134C35.7272 46.2914 36.3436 46.3358 36.9517 46.2647C37.2584 46.2265 37.5596 46.1544 37.8497 46.0497C37.9957 45.9963 38.1383 45.9342 38.2766 45.8637C38.3456 45.8288 38.4136 45.7911 38.4806 45.7514L38.5191 45.7281V45.7504C38.5141 45.7794 38.5082 45.8075 38.5003 45.8366C38.4976 45.8507 38.494 45.8646 38.4895 45.8782L38.4757 45.9276C38.424 46.0713 38.358 46.2095 38.2785 46.3403L38.1593 46.5534L38.1031 46.6502C38.1357 46.655 38.1687 46.6572 38.2016 46.657C38.4836 46.6657 38.7684 46.6841 39.0484 46.6851H39.283L39.5058 46.6735C39.6546 46.6735 39.8015 46.6493 39.9493 46.6367C40.0972 46.6241 40.2451 46.6008 40.389 46.5757C41.5571 46.3819 42.664 45.9848 43.7178 45.5179C44.2554 45.2885 44.7758 45.0221 45.2752 44.7207C45.7811 44.4049 46.2447 44.0281 46.6552 43.5991C47.4613 42.7353 48.0634 41.7073 48.4187 40.5886C48.5998 40.0349 48.7256 39.4653 48.7943 38.8877C48.8731 38.3045 48.8784 37.714 48.81 37.1296C48.7561 36.728 48.625 36.3401 48.4236 35.9866C48.3469 35.862 48.2612 35.7429 48.1673 35.6302C47.9091 35.2944 47.5863 35.0116 47.2171 34.7981C46.8459 34.5834 46.4327 34.4481 46.0047 34.401C45.7926 34.3771 45.5787 34.3736 45.3659 34.3903C45.2595 34.3981 45.154 34.4136 45.0485 34.431L44.8514 34.4717C44.7587 34.495 44.672 34.525 44.5823 34.5521C44.4973 34.5787 44.4143 34.611 44.3339 34.649L44.2146 34.6993L44.116 34.7536C44.048 34.7904 43.977 34.8253 43.9189 34.864L43.8725 34.8921C43.8656 34.8969 43.8548 34.9018 43.8518 34.9066L43.8597 34.9221L43.8893 34.9802L43.976 35.1527C43.976 35.1594 43.981 35.1623 43.976 35.1527V35.1459V35.1372L44.0421 35.2679L44.0815 35.3483L44.1042 35.3929L44.119 35.4219L44.1269 35.4365C44.1269 35.4365 44.1535 35.4365 44.1663 35.4365C44.3184 35.4038 44.4771 35.4204 44.6187 35.4839L44.7419 35.5488C44.7636 35.5624 44.7735 35.5701 44.7902 35.5818C44.8199 35.603 44.8482 35.626 44.875 35.6505C44.9291 35.7001 44.977 35.7557 45.018 35.8162C45.1914 36.0961 45.2857 36.4164 45.291 36.7441C45.3225 37.078 45.2777 37.4145 45.1599 37.7292C45.0274 38.0164 44.7994 38.2508 44.5133 38.3937C44.2099 38.5501 43.8748 38.6378 43.5325 38.6504C43.1688 38.6618 42.805 38.6322 42.4482 38.5622C42.0795 38.4973 41.701 38.4101 41.3136 38.3385C40.9262 38.2668 40.5408 38.2048 40.1524 38.1525C39.764 38.1002 39.3737 38.0556 38.9833 38.0275C38.593 37.9994 38.2036 37.9723 37.8005 37.9675C37.3894 37.9579 36.9785 37.9953 36.5762 38.0789C36.1628 38.171 35.7696 38.3351 35.415 38.5632C35.1009 38.7594 34.8196 39.0022 34.5811 39.2829Z" fill="#1D1D1D"/>
</g>
<defs>
<clipPath id="clip0_1_942">
<rect width="50" height="66.3043" fill="white" transform="matrix(-1 0 0 1 50 0)"/>
</clipPath>
</defs>
</svg>
