<svg width="318" height="334" viewBox="0 0 318 334" fill="none" xmlns="http://www.w3.org/2000/svg">
<path d="M227.47 288.471C227.211 287.648 226.688 287.318 226.166 286.899C226.524 284.841 224.24 277.113 224.026 274.648C224.084 274.698 224.141 274.739 224.199 274.788C221.903 270.196 221.565 264.85 221.923 259.571C219.442 248.283 227.12 240.699 226.03 240.172C223.754 239.069 213.59 242.843 212.125 240.514C212.512 241.962 196.595 247.904 188.365 247.834C182.797 247.789 167.58 245.378 165.6 251.402C163.934 256.484 160.304 273.393 155.72 273.566C146.342 271.126 136.486 269.599 126.927 267.797C121.203 265.468 117.104 259.694 110.586 259.595C104.455 259.184 98.496 258.332 92.5539 256.735C91.8543 256.546 91.2412 256.628 90.7351 256.879C88.5706 254.163 84.7517 257.974 86.9327 260.636C87.7145 261.587 87.3113 264.044 87.4183 265.196C88.1631 273.212 91.5951 281.162 97.5084 286.73C105.488 300.388 129.4 306.865 144.815 307.783C156.255 308.667 168.382 305.425 179.155 310.515C184.752 314.824 178.04 320.083 173.732 321.58C149.502 322.766 124.009 309.836 100.829 321.873C99.1379 322.741 99.352 324.617 100.405 325.675C102.809 324.346 106.586 324.033 108.553 323.733C111.273 323.288 113.899 322.362 116.66 322.095C117.129 323.058 118.133 323.807 119.462 323.584C135.565 322.136 151.222 328.86 167.23 330.189C180.637 332.325 195.002 334.424 206.891 325.975C214.899 321.955 220.783 314.675 224.079 306.384C229.256 302.24 229.33 295.54 227.244 289.792C227.511 289.409 227.647 288.948 227.478 288.475L227.47 288.471Z" fill="#94E3E7"/>
<path d="M195.081 309.272C189.044 306.819 185.682 315.984 185.637 320.387C185.485 323.251 186.797 326.053 189.608 327.078C190.719 329.415 193.303 326.86 194.402 325.703C198.554 321.946 201.385 312.235 195.081 309.268V309.272Z" fill="#E85253"/>
<path d="M218.459 308.918C214.081 311.083 208.809 312.309 203.958 313.235C202.674 311.992 200.279 312.005 199.974 314.19C199.834 315.19 199.793 316.889 199.065 317.646C197.303 319.486 199.089 322.276 201.468 321.774C206.657 320.498 212.443 320.136 216.92 316.98C218.369 315.815 219.446 314.293 220.957 313.182C223.487 311.317 221.36 307.486 218.463 308.918H218.459Z" fill="#FFBC00"/>
<path d="M185.444 313.543C184.469 311.992 182.136 311.901 181.181 313.543C180.498 314.716 180.128 316.288 179.082 316.922C176.272 318.56 178.934 322.917 181.658 321.127C183.123 322.419 185.847 321.267 185.708 319.234C185.514 317.374 186.522 315.251 185.444 313.539V313.543Z" fill="#FFBC00"/>
<path d="M98.5311 325.802C96.8563 326.601 95.6177 324.518 97.379 323.255C111.794 310.379 134.591 315.634 152.278 318.021C160.17 318.996 168.763 321.58 176.359 318.173C187.021 312.029 169.899 308.914 164.833 309.14C158.06 308.98 151.208 310.017 144.402 310.037C134.67 310.021 124.921 307.478 116.345 303.186C100.671 295.322 85.9926 281.265 85.3959 262.817C85.2107 260.71 86.7373 251.085 87.1982 258.521C87.5686 282.697 108.173 299.984 130.645 305.758C145.599 310.305 161.701 303.474 176.606 308.593C183.063 310.239 184.589 316.403 178.487 319.938C173.783 322.662 168.043 322.695 162.817 322.115C143.287 320.305 114.078 310.692 98.5351 325.806L98.5311 325.802Z" fill="#1D1D1D"/>
<path d="M98.4354 326.987C97.6617 326.892 96.5547 326.143 97.5629 324.678C98.5999 324.119 100.003 323.958 101.608 323.543C126.986 317.51 152.256 327.168 177.21 331.106C194.481 333.629 208.842 327.016 218.681 312.74C227.615 301.375 227.393 295.177 224.517 281.676C222.204 266.356 216.266 248.574 228.142 236.295C229.512 235.398 228.167 237.612 227.681 238.871C220.229 253.282 224.953 268.405 227.508 284.046C229.089 291.466 230.109 299.445 225.887 306.284C193.473 363.508 149.116 311.88 98.4354 326.991V326.987Z" fill="#1D1D1D"/>
<path d="M181.012 313.942C180.926 313.535 181.025 312.444 181.531 311.436C182.231 311.642 185.42 312.008 185.745 311.967C186.214 312.115 188.424 313.354 186.893 314.062C185.642 314.909 182.741 314.243 181.017 313.946L181.012 313.942Z" fill="#1D1D1D"/>
<path d="M200.24 314.152C199.503 313.823 198.763 312.749 200.195 311.687C201.565 311.51 203.071 311.77 204.491 311.609C207.676 311.432 210.84 310.84 213.873 309.852C217.178 308.815 220.996 307.202 224.148 305.901C224.157 305.897 224.239 305.873 224.243 305.864C224.227 305.93 224.231 305.914 224.153 305.885C224.111 305.922 224.185 306.066 224.054 306.083C223.161 305.066 226.716 305.194 222.745 308.012C216.062 313.008 208.26 314.49 200.24 314.148V314.152Z" fill="#1D1D1D"/>
<path d="M175.084 321.399C174.828 321.02 174.68 319.819 175.363 318.852C175.479 318.868 183.923 319.942 183.923 319.942C184.108 320.008 189.305 321.777 185.947 322.3C184.256 322.818 177.005 321.58 175.08 321.399H175.084Z" fill="#1D1D1D"/>
<path d="M215.016 316.905C215.756 316.86 217.028 317.349 216.304 319.004C213.497 320.785 210.036 321.724 206.777 322.46C205.448 323.02 191.519 322.625 200.004 321.197C204.304 320.592 210.896 319.16 215.016 316.905Z" fill="#1D1D1D"/>
<path d="M191.128 328.505C181.828 327.818 183.141 313.283 188.959 308.794C196.099 302.864 202.79 310.995 200.082 319.732C198.893 324.09 195.585 328.402 191.128 328.505ZM193.86 309.662C187.643 310.209 184.322 322.777 190.317 325.513C197.523 326.756 200.864 310.189 193.86 309.662Z" fill="black"/>
<path d="M212.632 184.437C211.57 180.841 207.262 178.985 204.003 180.17C204.455 172.866 201.233 165.825 195.127 161.512C194.505 159.447 194.423 147.027 194.657 146.155C195.674 143.999 195.427 141.674 195.921 139.431C195.62 132.481 187.506 130.008 181.638 130.872C174.44 131.534 168.366 128.065 161.791 125.222C153.651 121.535 145.655 117.547 137.804 113.284C135.199 111.868 132.236 112.325 130.076 114.28C113.035 130.604 95.1882 148.048 83.7731 168.664C79.4975 175.302 78.6047 183.265 76.4566 190.709C64.848 194.602 77.1027 224.247 82.8679 230.588C87.6743 238.09 111.583 255.41 118.208 244.221C131.442 246.443 143.4 253.686 157.079 253.904C164.161 254.278 176.712 253.533 177.308 244.361C199.394 233.958 220.805 210.457 212.632 184.433V184.437Z" fill="#94E3E7"/>
<path d="M241.973 149.694C233.878 145.801 222.903 148.62 218.957 157.072C217.204 158.118 216.151 160.262 217.537 162.504C221.179 168.401 225.138 174.096 229.405 179.557C234.08 187.717 239.508 186.454 245.577 180.557C254.931 172.286 253.672 155.192 241.969 149.698L241.973 149.694Z" fill="#94E3E7"/>
<path d="M143.592 189.767C142.888 189.425 142.172 189.162 141.448 188.956C141.275 188.47 141.366 184.861 139.551 183.977C134.428 181.487 123.65 180.977 122.581 180.894C121.124 180.783 121.79 183.759 121.181 186.289C120.634 188.548 118.692 190.33 119.26 191.137C120.77 194.626 128.267 193.824 131.621 194.544C135.103 194.857 138.642 195.396 142.139 195.133C144.74 194.935 146.374 191.124 143.592 189.767Z" fill="#FFFCE9"/>
<path d="M157.191 196.622C153.71 195.882 150.183 195.178 146.829 193.989C144.805 193.511 142.924 194.194 140.924 194.408C136.826 194.853 132.719 194.046 128.74 193.17C124.896 192.33 120.925 191.001 117.008 191.894C113.012 192.721 109.066 194.124 105.144 195.244C102.313 196.054 102.695 199.733 104.769 200.692C105.885 205.935 114.234 199.931 117.613 199.63C126.32 205.745 138.126 201.379 147.056 206.297C149.076 207.284 150.994 207.618 152.903 206.19C155.409 203.98 163.047 199.429 157.195 196.618L157.191 196.622Z" fill="#5C2254"/>
<path d="M147.789 207.116C147.69 206.19 147.147 205.4 146.361 204.951C136.686 199.05 124.93 195.972 113.753 199.449C112.671 198.914 111.428 199.935 110.383 200.429C107.305 200.314 106.198 205.206 109.543 206.087C110.679 206.387 111.761 206.815 112.827 207.293C122.399 213.572 134.464 213.177 145.447 210.539C146.974 210.144 148.06 208.601 147.789 207.116Z" fill="#A4659C"/>
<path d="M238.249 192.783C234.999 185.129 229.974 178.43 224.818 171.969C223.18 169.916 221.608 167.767 219.295 166.418C213.547 162.903 208.675 167.471 209.247 173.586C213.765 201.256 202.773 231.292 175.984 243.205C174.779 243.764 174.248 245.176 174.396 246.48C161.216 253.414 130.097 251.575 120.563 239.23C118.291 235.674 112.703 238.884 114.88 242.55C115.884 244.172 118.16 248.13 119.119 249.694C119.102 249.702 119.09 249.715 119.073 249.723C114.79 247.834 109.679 248.085 105.057 246.892C88.589 240.46 76.9021 224.666 73.7705 207.47C72.6512 201.499 72.6431 195.26 73.7747 189.289C74.1492 187.314 72.9023 185.882 71.4086 185.368C72.8447 182.792 72.6307 178.973 69.1905 178.261C68.7379 177.051 67.7708 176.039 66.2853 175.726C65.3388 173.096 62.1291 169.619 59.158 171.282C57.298 169.788 54.7138 170.895 54.006 173.01C51.5328 178.816 54.5697 184.133 57.8906 188.705C34.9656 217.539 63.5076 269.191 99.6749 266.726C102.806 268.656 107.037 267.673 110.6 267.591C120.822 277.611 155.738 282.857 169.771 278.825C172.33 281.043 176.388 279.039 179.215 278.055C184.034 276.533 188.412 271.989 187.005 266.619C186.338 264.163 184.075 263.171 181.82 262.558C179.536 261.998 178.96 265.558 181.276 265.825C181.387 266.035 181.523 266.22 181.68 266.372C182.556 270.557 179.4 273.121 175.573 273.166C174.388 273.113 173.334 272.512 172.277 272.845C170.429 267.171 165.137 265.57 170.474 259.06C179.346 251.064 192.395 257.875 202.934 255.426C227.954 248.295 250.146 218.691 238.245 192.779L238.249 192.783Z" fill="#00386B"/>
<path d="M218.483 157.768C219.981 156.719 220.981 155.155 222.397 154.007C220.561 147.056 214.38 141.719 213.475 134.979C213.405 134.065 214.22 131.045 214.158 130.024C213.998 123.37 205.159 121.292 202.068 127.173C198.546 126.987 194.933 129.773 195.101 133.543C195.447 141.172 195.665 148.809 195.764 156.447C195.406 162.155 194.073 172.722 202.204 173.068C205.595 172.916 208.451 170.368 208.57 166.908C211.776 164.932 214.265 161.924 216.055 158.636C216.668 158.628 217.281 158.521 217.874 158.328C217.965 158.056 218.178 157.821 218.483 157.772V157.768Z" fill="#00386B"/>
<path d="M216.184 163.228C217.296 156.089 211.72 150.299 205.913 147.221C204.296 146.311 202.844 148.797 204.461 149.706C205.522 150.303 206.568 150.949 207.555 151.669C209.226 156.368 205.897 159.5 203.794 163.249C203.662 163.306 203.477 163.385 203.308 163.459C199.132 161.216 194.86 166.512 187.359 164.212C177.227 160.488 166.861 164.166 157.664 168.73C153.603 170.553 149.85 172.713 146.389 175.475C128.616 179.293 148.204 207.333 173.672 193.322C175.252 194.688 177.639 195.054 179.602 194.548C195.111 191.202 217.032 181.976 216.184 163.232V163.228Z" fill="#00386B"/>
<path d="M121.766 182.948C121.041 174.524 113.758 168.343 106.552 164.916C101.322 162.772 95.7172 163.372 90.2648 164.125C81.4544 166.228 60.122 168.796 67.8377 153.352C67.9611 153.319 68.0764 153.278 68.1875 153.233C68.5579 152.295 69.2369 151.451 70.0722 150.908C70.241 141.118 53.5337 151.34 54.6366 157.834C55.2044 166.977 57.4101 177.117 63.2947 184.417C66.4838 188.075 70.9281 190.161 75.6151 191.157C82.0716 194.198 89.1785 196.313 96.3222 195.836C96.2399 195.429 96.2686 195.042 96.4908 194.721C97.0216 192.882 98.643 195.034 99.643 195.346C101.375 194.774 103.017 194.997 104.704 195.585C112.19 197.104 121.441 190.721 121.766 182.944V182.948Z" fill="#00386B"/>
<path d="M218.067 135.214C218.137 135.135 218.208 135.057 218.274 134.974C218.319 135.073 218.369 135.168 218.419 135.264C218.303 135.247 218.187 135.226 218.067 135.214Z" fill="#4868A0"/>
<path d="M212.171 101.783C197.806 79.6807 163.326 67.8334 138.73 77.0964C131.747 73.6274 123.912 75.8413 117.476 79.4996C109.496 83.3143 103.954 90.4663 99.1965 97.6964C98.6533 98.4906 98.9414 99.2601 99.5299 99.7087C97.2542 104.104 95.6453 108.84 94.8223 113.729C94.4067 116.202 92.2874 121.193 95.0527 120.329C125.903 110.992 120.373 129.633 133.545 111.35C135.055 115.214 138.52 118.054 142.401 119.078C144.043 123.136 148.697 120.066 151.277 118.395C162.564 113.033 176.337 116.539 184.284 126.197C185.856 127.95 186.983 132.349 188.827 133.86C193.04 137.312 198.559 137.045 204.287 136.654C221.825 134.983 220.521 112.638 212.167 101.787L212.171 101.783Z" fill="#E85253"/>
<path d="M113.226 100.852C109.267 92.5561 85.1281 108.588 79.5933 111.897C75.8075 114.308 79.3092 120.366 83.1239 117.938C91.749 112.448 100.543 106.918 110.785 105.152C112.649 104.831 113.695 102.543 113.23 100.848L113.226 100.852Z" fill="#374E82"/>
<path d="M188.137 106.552C180.989 100.062 170.899 99.0706 161.669 97.6386C156.706 93.7046 151.698 103.589 158.702 104.293C161.722 106.507 165.743 107.227 169.339 108.292C174.779 109.856 180.182 111.609 185.647 113.07C190.087 115.3 192.832 108.083 188.137 106.552Z" fill="#374E82"/>
<path d="M143.978 86.9933C138.641 77.685 129.127 86.4418 126.761 93.4251C123.629 100.82 128.831 115.268 138.336 108.651C145.517 105.746 146.213 93.3469 143.974 86.9892L143.978 86.9933Z" fill="#FED130"/>
<path d="M183.457 49.1385C201.329 42.9248 225.974 25.9296 213.773 4.48604C212.192 2.05404 208.789 3.66714 209.258 6.39131C211.044 15.8971 202.349 21.7899 193.946 23.0902C188.86 24.5223 183.004 22.8186 178.297 25.3782C168.709 23.5141 159.766 31.4109 154.108 38.3941C151.746 38.2871 149.446 40.0607 148.063 42.0154C142.302 49.6858 136.01 62.71 143.775 71.0018C145.125 72.2569 146.866 71.6109 147.639 70.4216C152.763 67.5904 188.411 58.7595 181.617 50.4883C182.091 49.8751 182.831 49.5829 183.449 49.1385H183.457Z" fill="#3CE878"/>
<path d="M134.985 129.259C129.117 112.593 105.234 108.597 93.5427 121.535C77.638 137.279 89.1395 164.751 111.439 164.739C128.932 164.916 142.956 145.386 134.985 129.259Z" fill="#FAF9E7"/>
<path d="M155.968 165.224C155.034 163.459 151.845 163.669 150.331 162.496C144.891 158.163 142.8 151.179 141.047 144.727C140.504 139.772 136.492 136.098 132.405 140.591C127.875 144.18 126.323 149.669 123.393 154.34C120.817 156.805 117.892 158.586 115.46 161.101C113.274 165.199 111.624 169.784 113.719 174.252C120.628 188.951 160.844 184.631 155.968 165.232V165.224Z" fill="#E794DC"/>
<path d="M188.021 138.592C186.889 105.149 138.455 105.256 137.406 138.592C138.538 172.035 186.972 171.928 188.021 138.592Z" fill="#FAF9E7"/>
<path d="M182.124 139.472C181.687 164.99 143.734 164.986 143.302 139.472C143.739 113.959 181.692 113.963 182.124 139.472Z" fill="black"/>
<path d="M130.534 139.472C130.534 143.147 127.979 144.299 126.209 147.225C122.81 152.846 118.172 158.883 111.123 158.883C100.404 158.883 91.7125 150.192 91.7125 139.472C92.1487 113.955 130.102 113.959 130.534 139.472Z" fill="black"/>
<path d="M255.356 187.82C254.875 183.951 254.669 179.96 252.793 176.462C251.542 174.129 247.986 176.203 249.241 178.54C250.846 181.647 250.826 185.235 251.34 188.622C251.402 189.132 251.673 189.815 251.274 190.128C246.241 189.062 244.205 182.84 243.522 178.244C243.332 175.618 239.217 175.598 239.406 178.244C240.217 194.025 257.488 200.494 255.356 187.824V187.82Z" fill="#FED033"/>
<path d="M100.827 196.564C100.839 195.457 101.757 194.716 103.028 195.445C103.773 196.576 104.222 197.996 105.066 199.12C113.242 211.456 132.505 212.461 145.364 208.074C149.479 206.444 152.002 204.51 155.368 201.383C157.076 200.14 162.364 192.268 159.405 199.14C149.813 218.789 108.522 217.448 100.831 196.56L100.827 196.564Z" fill="#1D1D1D"/>
<path d="M117.721 191.717C116.955 190.795 117.531 189.462 119.021 189.511C120.157 190.194 121.436 190.832 122.655 191.338C130.292 194.708 139.053 194.136 147.057 192.601V193.141C146.868 192.918 146.505 193.042 146.374 192.881C146.37 192.54 146.868 192.33 147.341 192.441V193.309C146.88 193.606 146.197 193.992 145.398 194.35C137.024 198.079 125.63 196.457 117.721 191.725V191.717Z" fill="#1D1D1D"/>
<path d="M150.72 205.744C151.185 206.386 151.325 207.699 149.551 207.917C148.242 207.398 147.065 206.37 145.765 205.752C140.597 202.876 134.992 200.757 129.185 199.889C121.441 198.629 113.643 200.284 106.376 203.061L105.783 202.399C106.437 201.806 107.236 201.526 107.507 201.979C107.458 202.172 106.919 202.452 106.652 203.053L105.824 202.131C106.137 201.888 106.499 201.621 106.894 201.345C120.597 192.844 138.074 197.563 150.715 205.752L150.72 205.744Z" fill="#1D1D1D"/>
<path d="M53.6597 171.08C54.6144 170.458 55.709 170.903 55.7707 172.347C55.2604 173.512 54.4375 174.648 54.1823 175.968C52.9725 180.355 55.0998 185.285 59.0585 187.487C59.4906 187.775 60.112 188.054 60.507 188.355L60.4823 188.388L60.4371 188.458L60.3467 188.598C56.4621 194.194 53.5608 200.49 52.0382 207.144C46.3389 227.456 64.9843 253.06 82.7161 261.66C87.2056 263.829 92.0367 265.315 96.9912 265.915C98.6537 266.068 100.481 266.442 102.304 266.574C104.435 266.866 111.085 266.673 104.464 268.166C81.9754 271.01 62.2847 253.019 53.1946 233.843C45.0221 219.806 48.3511 202.247 56.8981 189.17C51.0588 185.314 49.5034 176.73 53.6555 171.084L53.6597 171.08Z" fill="#1D1D1D"/>
<path d="M245.405 183.166C244.352 183.569 243.36 182.882 243.615 181.471C244.529 180.285 245.821 179.253 246.636 177.923C254.384 167.722 248.36 147.859 234.052 148.632C227.706 148.925 220.999 153.426 218.024 158.83C217.769 162.533 221.382 165.825 223.217 168.928C228.608 176.273 235.122 182.915 239.332 191.178C248.529 208.375 240.854 229.699 227.044 242.024C218.468 249.525 208.226 257.451 196.198 256.965C189.564 256.714 182.795 254.418 176.355 256.55C170.573 258.076 166.561 266.097 172.26 270.142C174.894 272.825 182.309 270.533 179.527 266.389C178.84 265.64 176.429 265.459 175.947 265.002C175.651 264.722 174.795 264.187 175.013 263.743C175.466 262.821 177.606 261.887 178.387 261.566C189.782 256.932 198.646 279.73 168.594 280.989C146.101 283.026 119.863 280.746 103.399 263.554C102.555 262.611 101.773 261.694 101.037 260.443C99.6994 258.801 95.893 249.801 100.23 255.858C109.518 269.401 125.423 276.277 141.389 278.117C154.512 279.643 168.585 279.907 181.231 275.763C191.185 271.792 185.107 258.426 176.857 265.488C178.495 267.072 174.544 263.414 175.013 263.739C177.655 261.48 181.647 263.665 182.548 266.636C184.108 272.989 174.997 275.952 170.754 272.199C164.808 268.101 166.392 259.237 172.174 255.784C186.63 247.867 196.984 261.299 214.691 248.348C229.529 239.139 242.179 223.152 240.677 204.889C240.545 183.771 205.909 163.875 218.275 154.06C240.797 130.625 265.24 163.673 245.405 183.166Z" fill="#1D1D1D"/>
<path d="M235.932 188.169C235.702 187.824 235.368 186.795 235.364 185.671C235.973 185.601 238.492 184.713 238.718 184.552C239.228 184.49 241.36 184.828 240.529 185.972C239.969 187.21 237.41 187.782 235.936 188.169H235.932Z" fill="#1D1D1D"/>
<path d="M72.103 190.926C72.4857 190.132 74 189.696 74.6255 191.371C74.5432 192.325 74.2181 193.416 74.1975 194.35C72.823 206.518 76.2798 219.205 83.6746 228.97C91.5714 239.406 103.9 246.294 116.883 247.78C114.718 244.368 113.18 240.496 112.394 236.533C112.258 235.813 111.867 233.854 111.735 233.167C111.575 232.937 112.842 233.863 112.867 233.846C129.94 246.319 153.186 256.055 173.609 245.969C172.346 244.953 168.938 242.262 167.737 241.274C170.671 241.311 173.881 241.599 176.77 241.052C194.756 236.291 206.176 216.464 208.624 198.963C208.957 195.798 209.032 192.428 208.678 189.272C209.036 187.622 206.143 174.668 209.488 182.511C217.632 204.535 199.073 240.574 175.078 243.883C175.922 244.57 177.432 245.735 178.23 246.414C158.334 258.565 133.376 251.331 115.55 238.723C115.55 238.723 115.55 238.723 115.55 238.718C116.595 242.315 118.356 245.714 120.636 248.706C120.969 249.179 121.702 250.142 122.043 250.615L122.142 250.751C122.208 250.813 122.084 250.776 122.051 250.776C90.6166 250.257 66.5682 222.085 72.0947 190.934L72.103 190.926Z" fill="#1D1D1D"/>
<path d="M193.848 137.237C194.033 136.402 195.432 135.571 196.403 137.073C196.79 143.097 196.913 149.138 196.794 155.175C196.823 158.101 196.23 162.072 195.559 165.244L194.695 165.475C194.305 164.853 194.572 163.5 195.234 163.672C195.304 163.977 195.271 164.598 195.625 164.849L194.44 165.166C194.407 164.808 194.383 164.409 194.366 163.989C194.041 155.249 194.551 145.978 193.848 137.233V137.237Z" fill="#1D1D1D"/>
<path d="M223.039 151.48C223.207 152.212 222.919 153.537 221.171 153.089C218.936 150.538 217.331 147.303 215.755 144.275C214.94 143.131 211.348 129.703 215.121 137.431C217.269 141.9 220.097 147.488 223.039 151.484V151.48Z" fill="#1D1D1D"/>
<path d="M84.4162 165.187C83.9347 165.092 83.1365 164.199 83.0747 163.006C83.3669 162.829 83.7865 162.557 84.1939 162.24C85.6301 161.989 93.0373 151.031 92.1443 155.953C91.6505 158.854 87.6177 163.232 84.4162 165.187Z" fill="#1D1D1D"/>
<path d="M189.127 135.402C188.353 134.583 188.538 133.427 189.946 133.073C191.283 133.373 192.604 134.134 193.991 134.447C211.365 139.752 221.319 128.982 215.476 111.917C209.225 92.4037 190.172 78.9063 170.115 76.8076C162.523 75.7213 154.972 75.2686 147.326 75.9558C145.536 76.0793 142.569 77.0875 141.063 77.6101C140.783 77.6636 140.462 77.7829 140.565 77.4866C140.577 77.5607 140.536 77.3179 140.594 77.6553C140.577 77.5977 140.586 77.4578 140.524 77.4413C141.03 76.6101 141.799 76.1575 142.746 75.5402C151.511 69.9273 180.008 74.6555 189.287 79.5153C226.755 96.8274 232.524 151.2 189.131 135.394L189.127 135.402Z" fill="#1D1D1D"/>
<path d="M139.284 76.5318C140.053 77.3836 139.773 78.5152 138.353 78.8156C137.103 78.4864 135.852 77.7827 134.457 77.6387C123.235 75.7993 111.647 81.4369 105.478 90.8933C104.594 92.0208 95.0797 105.926 98.808 97.4486C101.199 91.9632 105.795 85.4038 110.688 81.4739C118.507 75.4865 129.963 72.5525 139.284 76.5318Z" fill="#1D1D1D"/>
<path d="M132.015 111.35C132.435 111.403 133.476 111.909 134.039 112.917C133.398 113.889 129.92 117.654 129.496 117.95C129.217 118.177 125.55 119.942 126.781 117.646C127.591 115.905 130.636 113.366 132.019 111.35H132.015Z" fill="#1D1D1D"/>
<path d="M133.719 112.375C134.097 111.65 135.258 111.412 136.171 111.638C136.402 112.638 137.488 114.42 138.587 115.44C139.352 116.691 148.471 122.152 143.776 121.564C139.895 120.843 134.83 116.284 133.719 112.375Z" fill="#1D1D1D"/>
<path d="M140.31 82.5195C139.894 83.2561 138.306 83.6758 137.812 81.9557L138.8 77.783C141.956 65.0058 149.417 53.4178 159.429 44.912C161.309 43.3729 163.375 41.7516 165.42 40.4348C166.63 39.4019 179.263 34.1593 172.119 38.8999C155.877 48.669 143.775 63.5408 140.314 82.5195H140.31Z" fill="#1D1D1D"/>
<path d="M142.274 67.0756C142.175 67.9727 141.393 69.1867 140.2 68.4089C139.077 66.981 139.422 65.0798 139.319 63.4585C139.57 55.0021 143.06 40.4389 151.932 37.3814C153.356 37.2086 154.936 37.9205 154.59 38.6118C153.932 38.5748 152.981 38.3978 152.167 38.7805C145.373 43.7474 140.398 58.8661 142.274 67.0756Z" fill="#1D1D1D"/>
<path d="M146.38 72.2565C137.652 71.5858 144.998 64.2157 145.508 69.2608C148.039 69.8451 150.047 67.7958 152.145 66.6271C156.145 64.2857 160.614 63.6684 164.861 62.1705C170.379 60.1871 175.322 56.6852 180.046 53.2409C178.408 53.3149 176.564 51.2121 178.642 50.1381C185.457 47.4427 192.502 44.6569 198.856 40.6735C211.637 33.4227 224.554 14.1437 210.16 4.04536C214.303 12.2508 207.057 20.0817 198.847 22.7113C194.778 24.2133 190.914 24.8963 187.375 24.7441C184.774 24.5795 179.972 23.8182 179.585 27.2502C179.778 29.0896 176.894 29.3735 176.721 27.5341C176.634 26.7481 175.721 26.1391 174.889 26.0033C166.98 26.707 160.141 33.0359 156.1 39.5789C155.701 40.2661 154.816 40.4965 154.129 40.0974C153.442 39.6982 153.211 38.8135 153.61 38.1263C157.61 31.3323 169.363 19.9583 177.762 24.1968C180.103 21.1681 184.177 21.5878 187.494 21.8636C195.185 22.0611 208.222 17.8637 208.473 8.70772C208.464 6.11112 206.909 3.61739 204.765 2.77792C203.341 2.27588 203.711 0.0249485 205.217 0.000258119C218.044 -0.0738129 222.78 15.8103 216.435 26.4971C210.83 38.5131 195.444 46.8954 182.836 51.5619C186.284 56.1379 165.244 65.7424 161.33 66.2403C158.549 67.014 155.919 67.7423 153.586 69.1085C151.417 70.4336 149.08 72.31 146.364 72.2524L146.38 72.2565Z" fill="black"/>
<path d="M182.553 35.5954C175.265 33.6366 193.993 28.0936 195.627 27.4394C199.841 25.9785 203.873 24.3901 207.392 21.7812C208.955 20.9005 212.885 18.0447 213.354 15.9419C214.284 14.3658 214 18.057 213.453 18.6496C206.704 29.6286 192.487 29.3323 182.549 35.5954H182.553Z" fill="#1D1D1D"/>
<path d="M80.0737 120.049C75.5225 119.654 74.2838 114.707 78.3166 111.057C85.9583 103.403 96.0813 98.6421 106.085 97.9878C106.892 97.922 110.393 97.7327 111.904 98.2512C112.982 98.4816 115.513 99.0207 115.183 102.276C114.953 104.551 111.912 105.638 106.875 107.432C100.838 109.321 93.0073 113.304 87.6989 116.46C83.1517 119.04 81.3082 120.049 80.0778 120.049H80.0737ZM108.69 100.774C98.3487 100.79 88.1885 105.304 80.3534 113.09C78.7897 114.753 77.728 116.691 80.1147 117.152C84.3903 115.382 90.8304 111.082 96.143 108.638C101.081 105.963 108.682 104.366 112.319 101.893C112.653 100.835 109.702 100.819 108.69 100.774Z" fill="black"/>
<path d="M187.885 114.633C182.967 114.93 171.062 108.51 164.157 108.099C158.359 107.094 152.882 106.144 153.248 101.128C153.368 99.461 154.018 98.28 155.228 97.5228C166.133 93.9345 178.803 97.8027 187.955 104.214C192.831 106.535 195.218 114.514 187.881 114.637L187.885 114.633ZM163.384 99.103C161.306 99.4281 156.388 98.457 156.125 101.333C155.915 105.695 171.338 105.28 175.745 108.099C186.514 112.683 188.938 111.802 189.424 111.424C190.617 109.3 187.572 107.452 185.729 106.164C179.26 101.584 171.309 99.103 163.38 99.103H163.384Z" fill="black"/>
<path d="M134.6 112.782C118.115 111.448 124.645 79.0545 138.62 81.6676C152.973 84.9637 147.278 113.107 134.6 112.782ZM137.279 84.4329C127.699 84.2189 122.757 108.308 134.608 109.901C144.188 110.119 149.13 86.0254 137.279 84.4329Z" fill="black"/>
<path d="M93.7626 111.477C94.1865 111.362 95.318 111.563 96.174 112.337C95.6637 113.337 94.7008 118.09 94.7749 118.592C94.635 119.353 92.808 122.481 92.2607 123.382L92.9066 120.625C93.1782 119.707 93.635 120.172 94.063 120.497L92.7256 120.559C92.6803 120.468 92.6433 120.37 92.6063 120.263C91.7544 118.254 92.8861 113.95 93.7626 111.469V111.477Z" fill="#1D1D1D"/>
<path d="M111.958 165.677C79.1899 165.685 76.3835 116.07 109.111 112.576C123.628 111.012 136.722 121.621 138.29 136.221C138.488 137.954 135.792 138.238 135.624 136.509C134.212 123.382 122.447 113.848 109.394 115.247C79.4903 118.502 82.8153 163.998 112.814 162.981C115.258 163.245 114.131 166.269 111.958 165.681V165.677Z" fill="black"/>
<path d="M135.764 136.842C137.019 136.953 137.422 138.32 136.385 139.328C133.291 140.147 130.813 142.566 128.941 145.155C127.06 147.681 126.266 150.673 124.74 153.455C120.867 159.269 112.979 162.578 113.851 170.849C114.394 185.038 148.887 185.91 153.705 174.162C154.569 172.331 155.24 170.396 155.286 168.277C155.656 166.722 154.063 164.652 155.067 163.446C155.158 163.421 155.212 163.454 155.236 163.537C155.421 164.257 156.22 165.076 156.504 165.899C158.08 169.405 157.17 174.351 154.693 177.351C146.784 187.194 128.805 186.19 118.427 181.248C105.855 174.577 111.621 160.878 121.04 154.249C125.353 147.982 127.052 139.122 135.768 136.846L135.764 136.842Z" fill="#1D1D1D"/>
<path d="M162.836 166.578C127.207 165.94 127.216 112.996 162.836 112.358C190.065 111.539 200.122 150.595 176.057 163.138L174.72 160.747C196.349 149.467 187.316 114.358 162.832 115.094C130.804 115.666 130.808 163.265 162.832 163.837V166.574L162.836 166.578Z" fill="black"/>
<path d="M237.738 176.688C237.833 175.832 239.129 174.869 240.261 176.252C241.285 183.12 243.709 191.893 251.252 193.832C257.029 195.77 253.774 184.318 253.116 181.577C253.108 179.622 247.565 168.94 252.589 175.429C255.095 178.602 257.145 185.141 257.075 189.548C258.009 197.778 250.803 198.033 245.676 193.852C240.392 189.749 238.754 182.877 237.734 176.688H237.738Z" fill="#1D1D1D"/>
<path d="M241.197 177.396C241.332 176.252 242.431 175.754 243.542 176.643C243.929 177.199 243.966 178.051 244.254 178.762C245.468 182.717 246.879 187.009 250.233 189.49C250.657 187.733 246.443 170.94 250.278 179.487C258.385 200.054 244.283 193.289 241.197 177.396Z" fill="#1D1D1D"/>
<path d="M158.089 170.067C157.027 170.433 155.813 169.54 156.414 168.129C157.418 167.236 158.607 166.388 159.73 165.656C169.845 158.866 180.894 160.841 191.692 164.199C203.585 167.322 215.304 149.064 197.165 149.554C197.725 151.669 196.359 146.673 196.519 147.179C224.234 136.036 232.806 192.646 172.977 197.152C173.685 194.815 174.853 191.013 175.569 188.675C180.174 190.737 176.837 189.264 177.857 189.729C171.528 199.881 157.451 199.514 147.891 194.56C144.06 193.05 139.036 189.149 139.406 184.425C139.809 182.931 140.221 185.301 141.044 186.375C141.176 187.042 144.451 190.095 145.32 190.293C154.323 196.045 168.981 198.757 175.681 188.391C175.183 188.153 180.079 190.354 178.001 189.437C177.598 190.753 176.96 192.823 176.557 194.148C226.666 188.951 221.703 140.649 197.836 149.36C197.955 149.883 196.655 144.862 197.223 146.99C215.769 146.348 210.313 165.429 195.955 166.977C191.375 167.38 186.824 165.503 182.643 164.425C174.191 162.146 164.693 164.322 158.084 170.059L158.089 170.067Z" fill="#1D1D1D"/>
<path d="M112.728 166.87C113.143 168.022 112.119 169.026 110.753 168.5C108.004 165.06 103.638 163.652 99.3087 163.837C91.0868 163.603 83.3053 166.504 75.1287 166.726C65.8163 166.911 62.0098 154.591 68.8408 148.933C64.273 147.307 57.6973 151.015 56.3557 156.183C54.1624 166.944 58.6438 179.166 67.1208 186.112C74.6843 191.466 84.0089 195.194 93.2637 195.766C94.4694 195.807 93.9632 195.82 93.848 194.811C93.4776 192.972 93.9509 191.186 94.2842 189.404C100.42 195.766 109.831 195.165 116.835 190.355C118.966 188.865 120.625 186.528 121.127 183.812C121.456 180.302 122.176 180.059 122.53 184.009C122.736 195.412 104.576 199.708 96.3417 194.248C96.1277 194.425 97.6133 197.474 98.0906 198.186C91.3049 198.824 84.4451 197.437 78.182 194.861C70.9683 192.075 63.7916 188.198 59.479 181.536C53.471 172.146 48.6029 155.414 59.7177 147.982C65.0303 144.579 71.4703 146.027 76.2396 149.636C76.1985 149.607 75.9228 149.439 75.9392 149.447C77.2561 150.27 75.1121 151.159 73.0669 150.743C72.7995 150.69 72.03 150.5 71.7625 150.447C71.4415 150.554 71.0013 150.628 70.7132 150.809C68.8368 151.76 68.2401 153.809 68.0714 155.912C67.3225 160.521 70.7255 164.121 75.285 164.175C87.3709 163.948 103.144 155.973 112.732 166.874L112.728 166.87Z" fill="#1D1D1D"/>
<path d="M275.198 313.259C265.334 317.695 262.149 290.577 257.902 292.594C253.656 294.61 264.272 316.642 252.318 322.485C240.364 328.329 244.57 292.338 239.52 293.236C234.471 294.133 238.241 316.082 231.08 318.584C219.204 318.572 224.756 290.511 224.756 290.511C224.756 290.511 214.18 268.574 244.685 263.957C245.491 263.833 249.536 260.541 257.91 261.418C266.285 262.294 264.816 264.315 272.795 266.237C280.375 268.064 288.045 267.381 285.045 271.022C278.885 278.495 264.227 274.368 265.075 276.467C267.099 283.141 285.062 308.819 275.194 313.259H275.198Z" fill="#94E3E7"/>
<path d="M274.168 312.49C274.695 312.564 277.258 311.436 277.353 311.934C277.378 312.062 277.271 312.626 276.917 313.037C276.304 313.745 275.234 314.403 274.806 314.56C264.934 318.119 263.37 299.075 258.35 293.569C258.354 293.552 258.358 293.499 258.362 293.495C256.959 300.21 260.761 308.14 258.827 315.321C258.02 320.164 252.708 326.115 247.486 323.531C239.923 316.885 243.482 302.667 239.68 294.305C239.68 294.318 239.68 294.297 239.68 294.305C236.149 298.519 238.046 309.498 235.314 315.263C233.754 319.584 230.207 321.086 226.454 317.975C220.084 310.609 222.614 299.466 223.643 290.635C223.643 290.635 223.643 290.627 223.643 290.639C217.034 274.598 229.565 264.574 244.515 262.887C249.819 259.829 256.477 259.607 262.407 261.08C266.028 262.06 268.999 264.405 272.703 265.088C275.847 266.623 290.447 265.455 285.879 271.706C281.114 277.323 273.119 276.837 266.51 276.866C266.51 276.874 266.362 276.862 266.374 276.882L266.592 277.413C269.271 284.804 286.32 308.264 275.608 313.247C274.296 313.37 276.118 312.358 276.538 311.366C279.254 303.774 270.88 291.161 267.543 284.137C266.79 282.261 263.206 277.158 264.247 275.475C265.642 274.084 269.037 274.903 270.831 274.705C275.732 274.627 281.764 274.105 284.624 269.693V269.677C280.633 268.068 275.876 268.409 271.666 267.055C264.975 264.85 259.592 261.175 252.095 262.574C249.42 262.846 247.288 264.023 244.84 265.031C231.137 266.603 219.327 275.393 225.833 290.244C225.121 296.993 221.335 316.103 230.898 317.494H230.886C236.449 313 234.178 302.688 236.211 296.202C236.54 294.128 238.639 290.882 241.042 292.631C244.605 298.075 243.301 306.391 244.877 312.675C245.692 315.959 246.21 322.625 250.774 321.913C253.984 320.979 256.066 318.111 256.716 314.856C258.498 307.622 254.794 300.239 256.16 293.017C262.79 284.186 265.436 315.593 274.176 312.486L274.168 312.49Z" fill="#1D1D1D"/>
<path d="M40.3249 308.35C49.448 314.164 56.5095 287.787 60.4188 290.396C64.3281 293.005 50.6456 313.276 61.6328 320.781C72.62 328.287 73.6487 292.067 78.5168 293.688C83.3849 295.305 76.484 316.481 83.2121 319.991C94.9647 321.691 93.5203 293.124 93.5203 293.124C93.5203 293.124 107.149 272.944 77.6281 263.969C76.8503 263.73 73.3194 259.891 64.9041 259.549C56.4888 259.208 57.6534 261.418 49.4809 262.171C41.7199 262.883 34.2265 261.105 36.6668 265.138C41.683 273.417 56.7851 271.45 55.6453 273.409C52.6783 279.721 31.1978 302.539 40.3209 308.354L40.3249 308.35Z" fill="#94E3E7"/>
<path d="M40.5308 309.695C40.3333 309.498 39.3334 308.535 38.6997 307.654C38.1565 306.893 37.9508 306.206 38.0207 306.033C38.1113 305.815 38.8807 306.79 39.7819 307.374C40.3251 307.728 41.0781 307.802 41.2921 307.757C42.1192 307.934 42.9587 308.296 43.8393 308C47.1931 306.872 49.0902 303.49 51.0119 300.65C53.5303 297.585 55.9006 289.247 60.2955 289.186C62.1473 289.7 62.3202 291.581 62.1967 292.988C61.2338 299.609 57.95 305.852 58.3903 312.605C58.5672 316.176 60.6863 320.086 64.3816 320.724C68.1346 320.209 69.1675 315.238 70.4226 312.156C72.8916 306.16 72.793 297.757 77.1056 292.877C79.7351 291.498 81.3398 295.004 81.3645 297.107C82.4426 303.823 78.6981 313.691 83.5621 318.95C93.2036 318.966 92.2407 299.478 92.5041 292.708C101.084 278.947 90.6687 268.545 77.3318 265.01C75.0562 263.656 73.1138 262.183 70.509 261.528C63.106 258.973 57.094 262.137 49.9627 263.199C45.8147 263.837 41.2715 262.862 37.2799 263.866C40.7571 272.553 57.0898 269.52 56.7483 273.351C51.6785 283.19 42.5801 290.98 39.4074 301.831C38.6584 303.621 38.6791 306.634 40.1317 308C40.8683 309.345 38.3005 307.601 38.0824 306.926C33.4695 297.762 49.9213 281.659 54.2997 273.631C47.8556 272.623 40.1769 272.075 36.0536 266.174C34.3953 264.104 35.0373 261.714 37.8849 261.45C43.1769 260.944 48.4276 261.742 53.5796 260.409C61.4352 257.315 71.1879 257.64 77.9613 262.932C92.5204 266.763 103.462 278.499 94.615 293.408C94.6192 301.539 94.6974 310.354 90.3766 317.567C86.9858 322.452 80.7637 322.711 79.5045 316.09C77.6321 309.954 81.1013 299.449 78.2125 294.721C73.2785 302.379 74.6694 317.102 66.2706 322.509C60.7235 324.312 56.3285 317.658 56.2257 312.744C55.3533 305.362 60.2544 298.062 59.8388 291.214C59.8388 291.219 59.8388 291.268 59.8388 291.289C54.0859 296.004 50.4235 313.156 40.5268 309.683L40.5308 309.695Z" fill="#1D1D1D"/>
<path d="M104.277 124.654C104.339 128.881 97.7012 128.881 97.7629 124.654C97.7012 120.428 104.339 120.428 104.277 124.654Z" fill="white"/>
<path d="M157.455 124.094C157.517 128.32 150.879 128.32 150.941 124.094C150.879 119.868 157.517 119.868 157.455 124.094Z" fill="white"/>
<path d="M72.2828 274.944C69.6081 240.851 99.5287 212.852 131.297 204.326C182.62 188.261 254.625 216.362 258.769 275.072H266.546C261.094 212.902 184.612 183.298 130.124 201.186C97.5164 210.445 67.0321 239.831 70.7439 274.94H72.2828V274.944Z" fill="#FD241F"/>
<path d="M73.822 274.944C72.0525 237.052 109.458 209.222 144.897 204.889C190.422 197.062 248.798 224.909 250.996 275.067H258.773C254.609 216.35 182.641 188.264 131.297 204.325C99.537 212.839 69.5916 240.859 72.2829 274.944H73.822Z" fill="#FD241F"/>
<path d="M75.3616 274.948C74.8513 233.567 119.52 206.906 157.807 207.531C196.925 206.231 242.659 232.967 243.223 275.068H251C248.782 224.905 190.439 197.075 144.902 204.894C109.475 209.219 72.0407 237.065 73.8266 274.948H75.3658H75.3616Z" fill="#FCFF28"/>
<path d="M76.9014 274.948C77.5721 235.156 120.813 209.984 157.799 211.272C193.917 210.741 236.059 236.008 235.442 275.059H243.22C242.639 232.958 196.933 206.235 157.803 207.527C119.533 206.898 74.8355 233.576 75.3622 274.944H76.9014V274.948Z" fill="#FCFF28"/>
<path d="M78.4395 274.949C80.6905 232.531 130.133 209.157 168.675 216.021C198.291 219.832 229.507 243.345 227.664 275.052H235.441C236.042 236 193.929 210.75 157.798 211.273C120.821 209.976 77.5508 235.165 76.9006 274.949H78.4395Z" fill="#3FFB22"/>
<path d="M79.9774 274.948C83.9319 230.67 138.736 209.346 177.578 222.288C200.849 228.942 222.597 249.974 219.889 275.047H227.667C229.494 243.336 198.302 219.839 168.677 216.021C130.148 209.153 80.6769 232.538 78.4425 274.948H79.9814H79.9774Z" fill="#3FFB22"/>
<path d="M81.5185 274.953C86.5759 232.925 139.055 212.819 176.062 226.321C196.814 232.942 215.867 252.558 212.11 275.043H219.887C222.587 249.966 200.855 228.95 177.576 222.288C138.747 209.342 83.9134 230.679 79.9753 274.948H81.5144L81.5185 274.953Z" fill="#330AFE"/>
<path d="M267.366 270.969C267.045 272.006 266.028 272.496 264.987 271.471C264.712 270.356 264.362 268.278 264.148 267.056C258.21 236.415 232.133 213.478 203.451 203.791C174.506 193.873 141.371 195.252 113.907 209.05C89.7559 220.901 69.4644 245.629 71.9129 273.685C72.81 273.685 79.6944 273.689 80.4269 273.693C85.3156 238.156 124.45 217.877 157.877 221.255C185.127 222.946 216.862 243.308 213.525 273.788C226.47 274.068 252.037 273.224 265.16 274.257C265.337 274.265 265.827 274.566 265.847 274.29C265.938 273.907 265.963 272.858 266.053 272.455C266.617 270.755 267.275 274.829 267.374 275.438C264.572 277.356 229.116 275.882 224.265 276.315L211.734 276.306C211.57 276.335 210.969 276.286 210.825 276.306C210.562 276.376 210.751 276.047 210.73 275.924C212.027 268.311 210.969 260.414 207.496 253.488C183.419 209.758 108.928 215.556 87.4802 259.048C84.9042 264.237 83.3857 269.932 82.6862 275.673L82.6163 276.154C82.6368 276.273 82.4886 276.195 82.431 276.216H82.1883H79.3694L71.1023 276.212H70.2464H69.8184H69.6044C69.3451 273.644 69.1723 270.636 69.2381 268.043C69.7196 241.086 89.4925 218.354 112.776 206.811C168.576 177.59 256.848 203.153 267.37 270.977L267.366 270.969Z" fill="#1D1D1D"/>
<path fill-rule="evenodd" clip-rule="evenodd" d="M64.0712 264.031C51.8948 246.925 75.4329 233.749 77.1365 257.929C77.153 250.76 86.0499 253.678 84.3051 261.624C95.6709 255.6 102.214 270.949 90.3953 273.965C93.494 274.879 96.9877 277.759 93.4117 280.558C85.3997 284.656 69.0258 280.195 60.5817 278.023C43.4795 272.323 56.5366 252.468 64.0712 264.031Z" fill="#FEF0FF"/>
<path d="M64.5367 262.571C64.693 263.55 64.1662 264.653 62.6972 264.213C61.5038 263.126 60.9607 261.39 60.3969 259.962C54.5864 244.415 74.0589 235.061 77.5855 253.41C81.4866 250.604 86.1613 255.377 85.8074 259.595C94.8975 255.921 102.914 267.788 94.2268 273.702C94.0292 273.838 93.8275 273.965 93.6135 274.068C93.5888 274.072 93.7289 274.146 93.7289 274.154C96.7329 275.887 97.0414 279.965 93.9057 281.759C87.5356 285.105 79.9845 282.858 73.2235 282.199C66.0468 280.673 57.0061 280.265 52.4342 273.702C50.0393 270.068 50.5578 264.92 53.4877 261.731C55.4629 259.299 59.3269 258.571 61.8165 260.665C63.8287 262.353 65.804 266.163 61.6931 262.497C54.8703 257.982 47.953 272.311 60.3435 276.566C68.5036 279.039 84.075 282.66 92.0911 279.899C94.161 278.767 94.0168 277.294 92.1116 276.15C90.3874 275.052 87.8732 274.636 86.0708 273.936C88.5069 273.06 91.5971 272.718 93.6053 270.986C96.8973 268.332 95.1938 262.871 91.3215 261.809C88.5356 260.855 85.507 262.435 83.0132 263.669C82.9474 263.686 82.5646 263.929 82.614 263.817C82.9555 261.702 83.7334 259.303 82.7788 257.258C82.2068 255.764 79.9762 254.176 78.8857 255.859C78.7664 256.229 78.606 256.727 78.4867 257.093C78.4743 257.233 78.4331 257.789 78.4208 257.941C77.6266 258.007 76.7419 258.077 75.9477 258.143C75.8284 258.258 75.7749 257.373 75.742 257.34C75.0465 253.74 74.5033 249.616 71.7832 246.995C70.2195 245.555 67.9769 245.773 66.1045 246.514C60.2324 249.184 61.4462 258.11 64.5407 262.579L64.5367 262.571Z" fill="#1D1D1D"/>
<path d="M217.928 280.89C185.469 284.767 192.283 255.949 207.155 265.887C185.148 242.534 209.237 206.803 225.002 244.785C224.249 239.863 226.105 234.3 230.841 234.937C235.956 235.625 235.524 242.443 236.24 247.081C247.166 233.419 262.005 251.875 252.766 266.586C258.791 266.047 276.012 260.862 278.563 272.277C280.884 282.66 261.42 280.619 256.511 280.89C240.52 281.771 217.928 280.89 217.928 280.89Z" fill="#FEF0FF"/>
<path d="M217.006 279.619C217.471 279.796 252.079 280.257 252.062 280.861C252.05 281.224 217.747 281.639 217.24 282.071C214.64 282.409 211.767 282.207 209.097 282.133C185.09 281.861 192.307 253.986 208.043 264.973C209.739 263.447 205.768 267.088 206.167 266.697C181.386 237.102 212.508 207.132 226.224 244.431C226.767 244.328 221.512 245.443 223.734 244.958C221.771 230.625 237.33 229.325 237.182 244.209C237.853 243.583 238.692 242.962 239.499 242.489C251.679 235.892 260.198 253.208 255.799 263.2C255.593 263.772 255.338 264.442 255.066 264.977C257.231 264.644 259.683 264.204 261.897 263.965C266.778 263.475 272.411 263.233 276.502 266.446C280.468 269.59 281.678 276.919 276.612 279.619C270.251 283.042 262.802 281.87 255.943 282.191C247.605 282.606 239.231 282.598 230.894 282.487C227.232 282.433 226.055 282.442 220.664 281.602C216.047 280.903 217.924 280.401 220.8 280.191C233.256 279.602 246.289 280.277 258.757 279.59C263.691 279.602 268.847 279.812 273.522 278.265C277.864 277.006 278.411 273.1 276.078 269.714C269.872 262.961 258.901 267.743 250.943 268.068C250.897 268.08 250.56 268.125 250.585 268.084C250.618 268.076 251.07 267.097 251.116 267.055C251.996 265.294 253.083 263.574 253.622 261.669C256.663 253.986 250.671 239.987 241.071 244.526C238.964 245.645 237.112 248.143 235.392 249.752C235.322 249.842 235.343 249.752 235.326 249.702C235.252 249.361 235.211 248.797 235.145 248.455C234.861 246.674 234.659 244.624 234.466 242.826C233.828 232.213 224.627 235.378 226.261 244.583C228.495 244.106 223.22 245.258 223.763 245.126C211.319 211.638 186.205 239.11 208.126 265.064C208.55 264.702 204.537 268.323 206.229 266.78C194.435 258.92 190.032 279.623 209.257 279.586C211.842 279.746 214.401 279.676 217.006 279.627V279.619Z" fill="#1D1D1D"/>
<path fill-rule="evenodd" clip-rule="evenodd" d="M25.7371 273.109L17.1572 262.986L3.94782 264.286L14.0709 255.702L12.7705 242.493L21.3546 252.616L34.5638 251.315L24.4409 259.899L25.7371 273.109Z" fill="#FFFCF3"/>
<path d="M26.1299 271.594C26.4838 272.38 25.8542 273.87 24.1753 273.249C22.3029 271.039 18.2125 266.212 16.6077 264.323C14.1839 264.558 3.55876 265.607 1.03212 265.854C0.768756 265.862 0.270834 265.94 0.003355 265.957C-0.0172203 265.961 0.0693647 265.895 0.0734797 265.891C2.68654 263.677 6.61624 260.34 9.24576 258.113C9.24576 258.113 12.7313 255.163 12.7313 255.159C12.5009 252.554 11.3527 241.332 11.0975 238.559C14.5089 242.575 18.4759 247.258 21.8873 251.282C27.1011 250.772 33.2778 250.163 38.4834 249.653C36.2077 251.583 27.9571 258.574 25.7596 260.438C26.1176 261.475 26.739 279.804 24.6527 270.339C24.0601 267.566 23.307 262.385 23.0889 259.356C25.0723 257.677 28.5743 254.702 30.5948 252.99C28.0764 253.163 23.2124 253.859 20.7434 253.883C18.9287 251.747 16.2703 248.608 14.435 246.447C14.7025 249.188 15.1345 253.533 15.3978 256.229C13.3444 258.006 9.97019 260.834 7.89209 262.607C10.2788 262.381 15.3607 261.858 17.6899 261.652C20.1671 264.57 23.6362 268.664 26.1217 271.594H26.1299Z" fill="#FFAF22"/>
<path fill-rule="evenodd" clip-rule="evenodd" d="M285.911 227.14L286.314 209.86L272.335 199.696L289.614 200.1L299.779 186.121L299.375 203.4L313.354 213.56L296.075 213.161L285.911 227.14Z" fill="#E794DC"/>
<path fill-rule="evenodd" clip-rule="evenodd" d="M285.915 227.139L286.318 209.86L272.34 199.696L289.619 200.099L299.783 186.12L299.38 203.4L313.358 213.56L296.079 213.16L285.915 227.139Z" fill="#FFFCF3"/>
<path d="M287.218 226.267C286.963 227.09 285.498 227.786 284.658 226.206L284.761 221.963C284.815 219.696 284.98 212.651 285.029 210.494C281.943 208.248 271.474 200.639 268.289 198.322C274.774 198.47 282.482 198.655 288.983 198.803C292.848 193.495 297.3 187.355 301.156 182.068C301.069 185.792 300.753 199.248 300.674 202.754C305.88 206.544 312.221 211.136 317.402 214.922C313.168 214.823 300.925 214.539 296.724 214.441C295.531 216.079 293.67 218.642 292.477 220.284C291.724 221.189 282.741 231.905 286.963 224.354C289.033 220.638 292.852 215.371 295.444 211.869C298.567 211.922 306.082 212.116 309.3 212.186C306.798 210.367 301.777 206.717 299.288 204.906C299.131 204.7 297.917 204.145 298.103 203.791C298.181 200.314 298.341 193.738 298.419 190.191C296.123 193.31 292.531 198.359 290.251 201.396C286.679 201.314 280.009 201.157 276.424 201.075C279.148 203.071 284.984 207.272 287.63 209.235C287.514 214.107 287.346 221.391 287.23 226.272L287.218 226.267Z" fill="#FFAF22"/>
<path fill-rule="evenodd" clip-rule="evenodd" d="M260.313 281.541L251.441 269.105L236.17 269.323L248.605 260.455L248.387 245.184L257.255 257.62L272.526 257.402L260.095 266.27L260.313 281.541Z" fill="#FFFCF3"/>
<path d="M260.832 280.063C261.12 280.874 260.367 282.306 258.746 281.549L256.281 278.092C255.227 276.611 251.787 271.796 250.787 270.389C247.281 270.438 235.673 270.603 232.101 270.656C236.845 267.274 242.565 263.191 247.318 259.805C247.281 257.109 247.1 244.085 247.055 241.127C248.82 243.6 256.297 254.089 257.906 256.336C263.676 256.282 270.935 256.093 276.543 256.097C273.655 258.159 264.161 264.928 261.375 266.916C261.696 267.846 260.898 289.05 259.474 278.689C259.009 275.212 258.791 269.306 258.807 265.611C261.141 263.949 266.058 260.438 268.449 258.735C265.26 258.768 259.779 258.879 256.598 258.891C254.725 256.266 251.631 251.929 249.73 249.262C249.775 252.562 249.853 257.838 249.898 261.08C247.351 262.961 242.837 266.117 240.257 267.981C243.141 267.948 249.289 267.833 252.104 267.821C254.639 271.372 258.297 276.5 260.836 280.059L260.832 280.063Z" fill="#FFAF22"/>
<path fill-rule="evenodd" clip-rule="evenodd" d="M25.7371 273.109L17.1572 262.986L3.94782 264.286L14.0709 255.702L12.7705 242.493L21.3546 252.616L34.5638 251.315L24.4409 259.899L25.7371 273.109Z" fill="#FFFCF3"/>
<path d="M26.1299 271.594C26.4838 272.38 25.8542 273.87 24.1753 273.249C22.3029 271.039 18.2125 266.212 16.6077 264.323C14.1839 264.558 3.55876 265.607 1.03212 265.854C0.768756 265.862 0.270834 265.94 0.003355 265.957C-0.0172203 265.961 0.0693647 265.895 0.0734797 265.891C2.68654 263.677 6.61624 260.34 9.24576 258.113C9.24576 258.113 12.7313 255.163 12.7313 255.159C12.5009 252.554 11.3527 241.332 11.0975 238.559C14.5089 242.575 18.4759 247.258 21.8873 251.282C27.1011 250.772 33.2778 250.163 38.4834 249.653C36.2077 251.583 27.9571 258.574 25.7596 260.438C26.1176 261.475 26.739 279.804 24.6527 270.339C24.0601 267.566 23.307 262.385 23.0889 259.356C25.0723 257.677 28.5743 254.702 30.5948 252.99C28.0764 253.163 23.2124 253.859 20.7434 253.883C18.9287 251.747 16.2703 248.608 14.435 246.447C14.7025 249.188 15.1345 253.533 15.3978 256.229C13.3444 258.006 9.97019 260.834 7.89209 262.607C10.2788 262.381 15.3607 261.858 17.6899 261.652C20.1671 264.57 23.6362 268.664 26.1217 271.594H26.1299Z" fill="#FFAF22"/>
<path fill-rule="evenodd" clip-rule="evenodd" d="M285.911 227.14L286.314 209.86L272.335 199.696L289.614 200.1L299.779 186.121L299.375 203.4L313.354 213.56L296.075 213.161L285.911 227.14Z" fill="#E794DC"/>
<path fill-rule="evenodd" clip-rule="evenodd" d="M285.915 227.139L286.318 209.86L272.34 199.696L289.619 200.099L299.783 186.12L299.38 203.4L313.358 213.56L296.079 213.16L285.915 227.139Z" fill="#FFFCF3"/>
<path d="M287.218 226.267C286.963 227.09 285.498 227.786 284.658 226.206L284.761 221.963C284.815 219.696 284.98 212.651 285.029 210.494C281.943 208.248 271.474 200.639 268.289 198.322C274.774 198.47 282.482 198.655 288.983 198.803C292.848 193.495 297.3 187.355 301.156 182.068C301.069 185.792 300.753 199.248 300.674 202.754C305.88 206.544 312.221 211.136 317.402 214.922C313.168 214.823 300.925 214.539 296.724 214.441C295.531 216.079 293.67 218.642 292.477 220.284C291.724 221.189 282.741 231.905 286.963 224.354C289.033 220.638 292.852 215.371 295.444 211.869C298.567 211.922 306.082 212.116 309.3 212.186C306.798 210.367 301.777 206.717 299.288 204.906C299.131 204.7 297.917 204.145 298.103 203.791C298.181 200.314 298.341 193.738 298.419 190.191C296.123 193.31 292.531 198.359 290.251 201.396C286.679 201.314 280.009 201.157 276.424 201.075C279.148 203.071 284.984 207.272 287.63 209.235C287.514 214.107 287.346 221.391 287.23 226.272L287.218 226.267Z" fill="#FFAF22"/>
<path fill-rule="evenodd" clip-rule="evenodd" d="M260.313 281.541L251.441 269.105L236.17 269.323L248.605 260.455L248.387 245.184L257.255 257.62L272.526 257.402L260.095 266.27L260.313 281.541Z" fill="#FFFCF3"/>
<path d="M260.832 280.063C261.12 280.874 260.367 282.306 258.746 281.549L256.281 278.092C255.227 276.611 251.787 271.796 250.787 270.389C247.281 270.438 235.673 270.603 232.101 270.656C236.845 267.274 242.565 263.191 247.318 259.805C247.281 257.109 247.1 244.085 247.055 241.127C248.82 243.6 256.297 254.089 257.906 256.336C263.676 256.282 270.935 256.093 276.543 256.097C273.655 258.159 264.161 264.928 261.375 266.916C261.696 267.846 260.898 289.05 259.474 278.689C259.009 275.212 258.791 269.306 258.807 265.611C261.141 263.949 266.058 260.438 268.449 258.735C265.26 258.768 259.779 258.879 256.598 258.891C254.725 256.266 251.631 251.929 249.73 249.262C249.775 252.562 249.853 257.838 249.898 261.08C247.351 262.961 242.837 266.117 240.257 267.981C243.141 267.948 249.289 267.833 252.104 267.821C254.639 271.372 258.297 276.5 260.836 280.059L260.832 280.063Z" fill="#FFAF22"/>
<path fill-rule="evenodd" clip-rule="evenodd" d="M25.7371 273.109L17.1572 262.986L3.94782 264.286L14.0709 255.702L12.7705 242.493L21.3546 252.616L34.5638 251.315L24.4409 259.899L25.7371 273.109Z" fill="#FFFDC6"/>
<path d="M26.1299 271.594C26.4838 272.38 25.8542 273.87 24.1753 273.249C22.3029 271.039 18.2125 266.212 16.6077 264.323C14.1839 264.558 3.55876 265.607 1.03212 265.854C0.768756 265.862 0.270834 265.94 0.003355 265.957C-0.0172203 265.961 0.0693647 265.895 0.0734797 265.891C2.68654 263.677 6.61624 260.34 9.24576 258.113C9.24576 258.113 12.7313 255.163 12.7313 255.159C12.5009 252.554 11.3527 241.332 11.0975 238.559C14.5089 242.575 18.4759 247.258 21.8873 251.282C27.1011 250.772 33.2778 250.163 38.4834 249.653C36.2077 251.583 27.9571 258.574 25.7596 260.438C26.1176 261.475 26.739 279.804 24.6527 270.339C24.0601 267.566 23.307 262.385 23.0889 259.356C25.0723 257.677 28.5743 254.702 30.5948 252.99C28.0764 253.163 23.2124 253.859 20.7434 253.883C18.9287 251.747 16.2703 248.608 14.435 246.447C14.7025 249.188 15.1345 253.533 15.3978 256.229C13.3444 258.006 9.97019 260.834 7.89209 262.607C10.2788 262.381 15.3607 261.858 17.6899 261.652C20.1671 264.57 23.6362 268.664 26.1217 271.594H26.1299Z" fill="black"/>
<path fill-rule="evenodd" clip-rule="evenodd" d="M285.911 227.141L286.314 209.862L272.335 199.697L289.614 200.101L299.778 186.122L299.375 203.401L313.354 213.561L296.075 213.162L285.911 227.141Z" fill="#E794DC"/>
<path d="M285.693 227.794L286.108 209.964L271.685 199.479L289.515 199.894L300.001 185.471L299.585 203.301L314.012 213.787L296.182 213.371L285.697 227.794H285.693ZM272.994 199.919L286.528 209.758L286.137 226.486L295.976 212.951L312.704 213.342L299.169 203.503L299.56 186.775L289.721 200.31L272.994 199.919Z" fill="#E276D8"/>
<path fill-rule="evenodd" clip-rule="evenodd" d="M285.915 227.139L286.318 209.86L272.34 199.696L289.619 200.099L299.783 186.12L299.38 203.4L313.358 213.56L296.079 213.16L285.915 227.139Z" fill="#FFFDC6"/>
<path d="M287.218 226.267C286.963 227.09 285.498 227.786 284.658 226.206L284.761 221.963C284.815 219.696 284.98 212.651 285.029 210.494C281.943 208.248 271.474 200.639 268.289 198.322C274.774 198.47 282.482 198.655 288.983 198.803C292.848 193.495 297.3 187.355 301.156 182.068C301.069 185.792 300.753 199.248 300.674 202.754C305.88 206.544 312.221 211.136 317.402 214.922C313.168 214.823 300.925 214.539 296.724 214.441C295.531 216.079 293.67 218.642 292.477 220.284C291.724 221.189 282.741 231.905 286.963 224.354C289.033 220.638 292.852 215.371 295.444 211.869C298.567 211.922 306.082 212.116 309.3 212.186C306.798 210.367 301.777 206.717 299.288 204.906C299.131 204.7 297.917 204.145 298.103 203.791C298.181 200.314 298.341 193.738 298.419 190.191C296.123 193.31 292.531 198.359 290.251 201.396C286.679 201.314 280.009 201.157 276.424 201.075C279.148 203.071 284.984 207.272 287.63 209.235C287.514 214.107 287.346 221.391 287.23 226.272L287.218 226.267Z" fill="black"/>
<path fill-rule="evenodd" clip-rule="evenodd" d="M260.313 281.541L251.441 269.105L236.17 269.323L248.605 260.455L248.387 245.184L257.255 257.62L272.526 257.402L260.095 266.27L260.313 281.541Z" fill="#FA8BB3"/>
<path d="M260.832 280.063C261.12 280.874 260.367 282.306 258.746 281.549L256.281 278.092C255.227 276.611 251.787 271.796 250.787 270.389C247.281 270.438 235.673 270.603 232.101 270.656C236.845 267.274 242.565 263.191 247.318 259.805C247.281 257.109 247.1 244.085 247.055 241.127C248.82 243.6 256.297 254.089 257.906 256.336C263.676 256.282 270.935 256.093 276.543 256.097C273.655 258.159 264.161 264.928 261.375 266.916C261.696 267.846 260.898 289.05 259.474 278.689C259.009 275.212 258.791 269.306 258.807 265.611C261.141 263.949 266.058 260.438 268.449 258.735C265.26 258.768 259.779 258.879 256.598 258.891C254.725 256.266 251.631 251.929 249.73 249.262C249.775 252.562 249.853 257.838 249.898 261.08C247.351 262.961 242.837 266.117 240.257 267.981C243.141 267.948 249.289 267.833 252.104 267.821C254.639 271.372 258.297 276.5 260.836 280.059L260.832 280.063Z" fill="black"/>
<path fill-rule="evenodd" clip-rule="evenodd" d="M40.4688 220.995L40.8288 210.445L32.3543 204.139L42.9096 204.502L49.2111 196.028L48.8516 206.583L57.3256 212.885L46.7708 212.525L40.4688 220.995Z" fill="#FA8BB3"/>
<path d="M41.7789 220.141C41.513 220.96 40.0445 221.639 39.2188 220.052C39.306 217.579 39.4469 213.525 39.5274 211.066C37.3008 209.411 30.4976 204.351 28.3118 202.724C32.5363 202.869 38.0553 203.057 42.284 203.202C43.6397 201.384 49.2308 193.858 50.6224 191.995C50.4723 196.316 50.2923 201.626 50.1432 205.955C53.1944 208.227 56.9601 211.026 60.016 213.302C60.1542 213.451 61.6167 214.373 61.2046 214.29C59.3031 214.23 49.0377 213.864 47.3908 213.818C46.5432 214.969 37.2286 225.714 41.5353 218.226C41.6477 217.956 45.0608 212.578 46.105 211.271C48.0261 211.184 51.2913 211.449 53.2701 211.463C51.5941 210.215 49.336 208.539 47.6783 207.305C47.4601 207.249 47.5854 206.844 47.5667 206.689C47.6228 205.127 47.7378 201.615 47.7933 200.083C46.609 201.673 44.7444 204.186 43.5817 205.748C41.6544 205.852 38.3875 205.57 36.4133 205.56C37.8028 206.598 40.7834 208.8 42.1337 209.823C42.0304 212.849 41.8842 217.098 41.7793 220.145L41.7789 220.141Z" fill="black"/>
</svg>
