<svg width="49" height="48" viewBox="0 0 49 48" fill="none" xmlns="http://www.w3.org/2000/svg">
<rect x="1" y="0.5" width="47" height="47" rx="23.5" fill="white"/>
<rect x="1" y="0.5" width="47" height="47" rx="23.5" stroke="#1B1E22"/>
<path d="M33.4969 29.3035V37.4901" stroke="#8C33E0" stroke-width="2"/>
<path d="M37.6252 33.3618H29.4385" stroke="#8C33E0" stroke-width="2"/>
<path d="M27.899 33.3618H14.6044C14.0446 33.3618 13.6248 32.942 13.6248 32.3822V31.1227C13.6248 27.0644 16.1438 23.5658 19.7823 22.1664C18.173 21.0469 17.1234 19.2276 17.1234 17.1285C17.1234 13.49 20.2721 10.6212 23.9806 11.041C26.5696 11.3209 28.8087 13.35 29.2285 15.939C29.7183 18.4579 28.5987 20.837 26.7095 22.0964C29.0186 23.0061 30.9078 24.7553 31.9574 26.9245L32.2373 27.5542" stroke="#8C33E0" stroke-width="2"/>
</svg>
