<svg width="29" height="28" viewBox="0 0 29 28" fill="none" xmlns="http://www.w3.org/2000/svg">
<path fill-rule="evenodd" clip-rule="evenodd" d="M15.0845 12.2364C16.9737 10.907 18.0933 8.5979 17.6035 6.07894C17.1137 3.49 14.9446 1.46084 12.3556 1.18095C8.64712 0.761125 5.4984 3.62995 5.4984 7.26845C5.4984 10.907 6.54797 11.1868 8.15732 12.3064C4.58877 13.7058 1.99982 17.2044 1.99982 21.2627V22.5222C1.99982 23.0819 2.41964 23.5018 2.97942 23.5018H20.2624C20.8222 23.5018 21.242 23.0819 21.242 22.5222V21.2627C21.242 17.2044 18.723 13.7058 15.0845 12.3064V12.2364Z" fill="#EBDAFB"/>
<path d="M21.8719 19.3035V27.4902" stroke="black" stroke-width="1.4694"/>
<path d="M26.0002 23.3618H17.8136" stroke="black" stroke-width="1.4694"/>
<path d="M16.274 23.3618H2.97942C2.41964 23.3618 1.99982 22.942 1.99982 22.3822V21.1227C1.99982 17.0644 4.5188 13.5658 8.15732 12.1664C6.54797 11.0469 5.4984 9.22763 5.4984 7.1285C5.4984 3.48999 8.64712 0.621171 12.3556 1.041C14.9446 1.32088 17.1837 3.35005 17.6035 5.93899C18.0933 8.45795 16.9737 10.837 15.0845 12.0965C17.3936 13.0061 19.2828 14.7554 20.3324 16.9245L20.6123 17.5542" stroke="black" stroke-width="1.4694"/>
</svg>
