<svg width="38" height="32" viewBox="0 0 38 32" fill="none" xmlns="http://www.w3.org/2000/svg">
<path d="M36.0999 11.5498C35.9137 11.4582 35.5064 11.3558 35.3429 11.2246C35.1636 11.0791 34.7424 11.4995 34.5823 11.336C34.3857 11.1384 34.1665 11.1474 33.9159 11.2121C33.0214 11.451 28.5246 13.1342 27.7501 13.7323C26.1648 14.3593 24.7325 14.5533 23.0271 14.2892C21.6627 13.9138 20.5072 12.8324 19.5866 11.7635C19.3986 11.4995 19.2334 11.2174 19.0994 10.9175C19.0994 10.9211 19.0994 10.9228 19.0994 10.9264C18.847 10.2079 18.6416 9.35463 17.9299 8.9738C17.9716 8.76542 17.9595 8.52291 17.9317 8.30375C18.0761 7.45228 16.7935 7.1972 17.0998 8.89835C16.0678 9.69054 16.3846 11.4204 15.5284 12.4048C13.8072 14.6144 10.1631 14.6844 7.91993 14.2551C7.69022 14.115 7.41702 14.0144 7.15424 14.1168C5.44183 13.3336 3.57804 12.3581 2.78101 10.5007C2.64875 10.163 2.54431 9.76599 2.49906 9.4157C2.47296 9.14085 2.46078 8.84625 2.49906 8.575C2.53735 8.34687 2.6261 8.1313 2.7601 7.94448C2.84886 7.82951 3.01767 7.65707 3.12209 7.58162C3.24391 7.49181 3.37612 7.41455 3.51186 7.34809C3.66152 7.28162 3.8721 7.21696 4.04439 7.18822C4.19231 7.16846 4.38724 7.16307 4.54386 7.18103C4.97892 7.24031 5.40699 7.5403 5.59668 7.96783C4.07918 9.94383 8.33592 10.1414 6.72445 7.07864C5.57936 5.05594 2.50084 5.45115 1.44973 7.36786C-0.231355 11.3737 3.987 14.6126 7.26216 15.7119C9.12597 21.0058 14.6756 22.4393 19.6492 21.974C23.3786 21.6327 26.4137 18.7406 28.5942 15.8071C29.2537 15.403 33.8497 13.1288 34.8243 13.0767C36.3574 13.0479 38.6162 13.2779 36.1016 11.5552L36.0999 11.5498ZM36.6759 12.421C36.7264 12.4264 36.7212 12.3474 36.6759 12.421Z" fill="#FFBC00"/>
<path d="M19.1023 10.9179C19.0878 10.8169 19.0644 10.8114 19.0752 10.8529C19.0843 10.8728 19.0951 10.8981 19.1023 10.9179Z" fill="#FFBC00"/>
<path d="M21.8495 24.913C21.7851 23.7956 20.7722 23.2549 20.0274 22.6118C17.8834 21.0706 14.657 21.931 13.4649 24.322C13.0072 24.6597 13.1482 25.4447 13.6964 25.5992C14.9685 26.2135 22.1401 27.2357 21.8495 24.913Z" fill="#FFBC00"/>
<path d="M5.14752 7.56694C5.34939 7.44299 5.74614 7.53281 5.81227 7.7843C5.86273 8.00705 5.687 8.24955 5.75661 8.49027C5.44859 8.73277 5.86105 9.05072 6.12556 8.95552C7.10011 8.48487 6.40918 7.09091 5.68872 6.67235C3.12358 5.00354 0.375761 8.51542 1.9855 10.9962C2.95656 13.8739 10.0429 16.5164 6.0055 15.5499C2.95135 14.835 -0.798937 10.989 0.82646 7.43041C2.26391 3.85746 8.45405 4.71612 7.54564 8.93935C6.7225 11.3501 3.13931 9.38664 5.14582 7.56334L5.14752 7.56694Z" fill="#1D1D1D"/>
<path d="M5.70142 7.18433C5.93635 7.84539 5.43691 7.94779 4.88525 7.85258C4.74429 7.81845 4.64159 7.62623 4.41883 7.61725C3.51042 7.50049 2.80737 8.47411 2.90656 9.38307C3.27028 11.9555 6.17826 13.2003 8.36576 13.75C10.3688 14.1308 12.6641 14.0213 14.3748 12.7854C15.5878 12.0075 15.3842 10.495 15.9741 9.32918C17.3315 7.16457 19.1918 8.76153 19.5277 10.6729C20.6345 13.5524 24.1498 14.4721 26.795 13.4033C27.9767 12.9147 29.2523 12.3291 30.4496 11.8692C30.1415 11.8441 36.925 10.1052 33.3436 11.7489C31.2396 12.683 28.718 13.8901 26.5584 14.6464C23.372 15.6721 19.3763 14.1255 18.3669 10.6369C17.7422 8.31963 16.6163 9.78546 16.498 11.3986C14.6394 16.8344 6.32265 15.5733 3.08926 12.1566C0.242202 9.6166 2.79341 4.63351 5.69964 7.18613L5.70142 7.18433Z" fill="#1D1D1D"/>
<path d="M10.7588 15.3934C10.5064 14.9623 10.7431 14.4952 11.347 14.506C11.8203 14.7539 12.2815 15.1257 12.8523 15.2856C15.4731 16.0922 18.3636 16.2359 21.0575 15.7185C22.2235 15.4491 23.4539 15.1886 24.6234 14.7467C25.0863 14.5832 25.3333 14.4503 25.4847 14.3497C25.6327 14.2491 25.7006 14.2168 25.7215 14.294C25.7389 14.6677 25.2237 15.0934 24.8635 15.3125C21.1533 17.7412 14.4951 17.8436 10.7588 15.3934Z" fill="#1D1D1D"/>
<path d="M34.7111 11.7182C33.0091 9.56972 37.8209 11.014 37.7896 12.3702C37.9027 14.251 35.3411 13.1642 34.4693 13.6888C32.5828 14.551 30.5833 15.3827 28.843 16.536C28.8134 16.5216 28.7507 16.4605 28.7177 16.439C28.9491 16.6456 28.7786 16.5001 28.8291 16.5486C25.8445 20.5131 21.6992 23.3819 16.6334 22.6723C12.9666 22.4406 8.84747 20.8778 7.45701 17.0228C6.67215 15.1905 7.23422 15.6953 7.98775 16.7354C11.0158 21.6017 18.3666 23.0029 23.2359 20.3155C25.1101 19.2018 26.6294 17.4593 28.0581 15.7689C28.2008 15.6216 28.3905 15.4887 28.5576 15.3827C29.6905 14.6875 30.8948 14.1235 32.0834 13.5504C33.4756 12.8193 35.0505 12.1601 36.6237 12.4295C36.1016 12.0182 35.3707 11.7307 34.7094 11.7164L34.7111 11.7182Z" fill="#1D1D1D"/>
<path d="M14.05 25.3131C11.4571 26.3389 14.5339 21.0755 18.2545 21.6091C20.4542 21.751 22.8888 23.6264 22.9062 26.0281C21.7176 27.5191 18.0335 27.2891 16.2306 26.9173C15.3257 26.8364 11.5441 25.0832 14.6296 25.7317C16.6378 26.0011 19.7964 26.4269 21.822 25.579C20.7118 21.9576 15.397 21.7815 14.0518 25.3131H14.05Z" fill="#1D1D1D"/>
<path d="M17.51 8.89096C17.3482 8.96281 16.8817 9.03467 16.4275 8.88018C16.2257 5.82817 19.6593 7.02635 17.8059 9.12988C17.8128 8.94126 17.7902 8.63408 18.0582 8.75983C18.0599 8.76163 17.7362 8.8227 17.731 8.8245C17.6788 8.78318 17.6301 8.72569 17.5884 8.66282C17.5327 8.60893 17.3499 8.1796 17.296 8.05565C17.3551 8.02332 17.4282 7.96584 17.4543 7.92452C17.4613 7.91015 17.4387 7.95865 17.47 7.89039C17.4543 7.9353 17.47 7.91913 17.4526 7.89039C17.4787 7.95506 17.557 8.01793 17.6196 8.06284C17.5187 8.23889 17.5066 8.75264 17.5083 8.88736L17.51 8.89096Z" fill="#1D1D1D"/>
</svg>
