<svg width="26" height="26" viewBox="0 0 26 26" fill="none" xmlns="http://www.w3.org/2000/svg">
<mask id="mask0_1_1023" style="mask-type:alpha" maskUnits="userSpaceOnUse" x="0" y="0" width="26" height="26">
<rect width="26" height="26" fill="#D9D9D9"/>
</mask>
<g mask="url(#mask0_1_1023)">
<path d="M11.9167 18.4167H7.58335C6.08474 18.4167 4.80731 17.8886 3.75106 16.8323C2.69481 15.7761 2.16669 14.4986 2.16669 13C2.16669 11.5014 2.69481 10.224 3.75106 9.16772C4.80731 8.11147 6.08474 7.58334 7.58335 7.58334H11.9167V9.75001H7.58335C6.68058 9.75001 5.91321 10.066 5.28127 10.6979C4.64933 11.3299 4.33335 12.0972 4.33335 13C4.33335 13.9028 4.64933 14.6701 5.28127 15.3021C5.91321 15.934 6.68058 16.25 7.58335 16.25H11.9167V18.4167ZM8.66669 14.0833V11.9167H17.3334V14.0833H8.66669ZM14.0834 18.4167V16.25H18.4167C19.3195 16.25 20.0868 15.934 20.7188 15.3021C21.3507 14.6701 21.6667 13.9028 21.6667 13C21.6667 12.0972 21.3507 11.3299 20.7188 10.6979C20.0868 10.066 19.3195 9.75001 18.4167 9.75001H14.0834V7.58334H18.4167C19.9153 7.58334 21.1927 8.11147 22.249 9.16772C23.3052 10.224 23.8334 11.5014 23.8334 13C23.8334 14.4986 23.3052 15.7761 22.249 16.8323C21.1927 17.8886 19.9153 18.4167 18.4167 18.4167H14.0834Z" fill="#343840"/>
</g>
</svg>
