<svg width="33" height="32" viewBox="0 0 33 32" fill="none" xmlns="http://www.w3.org/2000/svg">
<path d="M3.42427 19.9597C3.42427 19.5001 3.42427 18.9255 3.42427 18.4659H4.34353C4.34353 18.9255 4.34353 19.3852 4.34353 19.8448H3.42427V19.9597Z" fill="#68607C"/>
<path d="M6.64228 25.8204C5.2634 24.6713 4.34414 23.0626 3.76961 21.4539L4.68886 21.2241C5.14849 22.7179 6.06774 24.0968 7.33172 25.2458L6.75719 25.9353L6.64228 25.8204Z" fill="#68607C"/>
<path d="M24.3371 1.11485L30.4272 7.20495L26.6353 9.04348L22.3837 4.79189L24.2222 0.999939L24.3371 1.11485Z" fill="#FE9F30"/>
<path d="M28.4735 10.9967L26.635 12.8352L25.2561 11.4563L23.5325 13.18C24.3369 14.7887 24.7965 16.5123 24.7965 18.4657C24.7965 20.4191 24.6816 20.649 24.3369 21.6831C22.958 26.6242 18.4766 30.1863 13.076 30.1863C7.67539 30.1863 1.35551 25.0155 1.35551 18.4657C1.35551 11.916 1.58533 15.9377 1.93005 14.7887C3.42384 10.0775 7.90521 6.74513 13.076 6.74513C18.2468 6.74513 16.753 7.20476 18.3617 8.00912L20.0853 6.2855L18.7065 4.90661L20.545 3.06808L28.4735 10.9967Z" fill="#E0ECFA"/>
<path d="M24.3369 21.6833C22.958 26.6243 18.4766 30.1865 13.076 30.1865C7.67539 30.1865 1.35551 25.0156 1.35551 18.4659C1.35551 11.9162 1.58533 15.9379 1.93005 14.7888C3.19402 14.3292 4.68781 14.2143 6.52632 14.7888C11.6971 16.1677 13.1909 21.2237 17.7872 22.2578C20.0853 22.7175 22.3835 22.4877 24.3369 21.6833Z" fill="#B4E6FF"/>
<path d="M18.7067 15.5932C19.4682 15.5932 20.0855 14.9759 20.0855 14.2143C20.0855 13.4528 19.4682 12.8354 18.7067 12.8354C17.9451 12.8354 17.3278 13.4528 17.3278 14.2143C17.3278 14.9759 17.9451 15.5932 18.7067 15.5932Z" fill="#B4E6FF"/>
<path d="M13.0747 15.5934C14.0901 15.5934 14.9132 14.7703 14.9132 13.7549C14.9132 12.7395 14.0901 11.9164 13.0747 11.9164C12.0593 11.9164 11.2362 12.7395 11.2362 13.7549C11.2362 14.7703 12.0593 15.5934 13.0747 15.5934Z" fill="#B4E6FF"/>
<path d="M16.8669 19.3847C17.3746 19.3847 17.7862 18.9731 17.7862 18.4654C17.7862 17.9577 17.3746 17.5462 16.8669 17.5462C16.3592 17.5462 15.9477 17.9577 15.9477 18.4654C15.9477 18.9731 16.3592 19.3847 16.8669 19.3847Z" fill="#91CBD7"/>
<path d="M24.2205 1.68917C24.2205 1.45936 24.2205 0.999728 24.795 1.11464L25.8292 2.1488L29.1615 5.48113L29.9658 6.28548L30.5404 6.86002L31 7.31965C31 7.43456 31 7.43456 30.8851 7.43456H30.6553C30.6553 7.54947 28.2422 8.81345 28.2422 8.81345L26.8634 9.5029H26.5186C26.5186 9.73271 26.2888 9.5029 26.2888 9.5029L25.9441 9.15817L25.4845 8.69854L23.4161 6.63021L22.7267 5.94076L22.382 5.59604L22.0373 5.25131L22.4969 4.21714C22.4969 4.21714 23.1863 3.06807 23.7609 2.26371C24.6801 0.88482 24.5652 1.57427 24.2205 2.49353L23.3012 4.79168L23.0714 5.13641L24.1056 6.17057L26.1739 8.23891L26.8634 8.92836L28.0124 8.35382L29.736 7.54947L28.7019 6.5153L25.3696 3.18297L24.3354 2.1488L24.2205 1.68917Z" fill="#1D1D1D"/>
<path d="M27.898 10.8817C28.1278 10.8817 28.5874 10.8817 28.4725 11.4562L27.898 12.0307L27.6682 12.2606H27.5533C27.5533 12.3755 27.5533 12.4904 27.5533 12.4904L27.2085 12.8351L26.7489 13.2947C26.7489 13.2947 26.7489 13.2947 26.634 13.2947H26.5191C26.5191 13.1798 26.2893 12.95 26.2893 12.95L25.37 12.0307L24.9104 12.4904L24.3359 13.0649H24.221C24.221 13.1798 24.221 13.1798 24.221 13.2947C24.4508 13.7544 24.6806 14.3289 24.7955 14.9034C25.9446 18.5805 25.2551 22.8321 22.8421 25.9346C20.5439 29.0371 16.5222 30.8756 12.7303 30.6458C8.82344 30.5309 5.14642 28.3476 3.0781 25.0153C1.00977 21.7979 0.550145 17.4314 2.15884 13.8693C3.65263 10.3071 6.98493 7.54934 10.7769 6.74498C12.6154 6.28535 14.6837 6.40026 16.5222 6.85989C16.9818 6.9748 17.4415 7.08971 17.9011 7.31952C18.1309 7.31952 18.3607 7.54934 18.5905 7.54934L19.6247 6.51517H19.7396C19.7396 6.40026 19.5098 6.17044 19.5098 6.17044L19.0502 5.71081L18.5905 5.25118L18.3607 5.02137C18.3607 5.02137 18.4756 4.90646 18.5905 4.79155L19.7396 3.64248L20.3141 3.06794L20.7738 2.60831C20.7738 2.60831 20.7738 2.60831 20.8887 2.60831H21.0036C21.0036 2.72321 21.2334 2.95303 21.2334 2.95303L22.2675 3.9872L26.0595 7.77915L26.634 8.35369C26.634 8.35369 26.634 8.35369 26.7489 8.58351C26.7489 8.58351 26.7489 8.58351 26.8638 8.69841C26.8638 8.69841 26.8638 8.81332 26.9787 8.92823C27.2085 9.27295 27.6682 9.73258 28.0129 10.1922C29.0471 11.4562 28.4725 11.2264 27.6682 10.5369C27.6682 10.5369 27.0936 9.9624 26.5191 9.50277C26.5191 9.50277 26.4042 9.38786 26.2893 9.27295C26.2893 9.27295 26.2893 9.27295 26.1744 9.15805C26.1744 9.15805 26.0595 9.04314 25.9446 9.04314L25.8297 8.92823L24.4508 7.54934L20.6589 3.75738L19.3949 5.02137L19.8545 5.481L20.5439 6.17044L20.7738 6.40026C20.7738 6.40026 20.7738 6.40026 20.7738 6.51517H20.6589C20.6589 6.63008 20.1992 7.08971 20.1992 7.08971L19.28 8.00897L18.9352 8.35369L18.7054 8.58351C18.7054 8.58351 18.7054 8.58351 18.5905 8.58351H18.4756C18.016 8.23878 17.9011 8.23878 17.6713 8.12388C16.8669 7.77915 16.0626 7.54934 15.1433 7.43443C13.4197 7.08971 11.5812 7.31952 9.97251 7.77915C6.64021 8.81332 3.76754 11.5711 2.73338 14.9034C1.58431 18.2358 2.15884 22.1426 4.22717 25.0153C5.26133 26.3942 6.64021 27.6582 8.134 28.4625C9.7427 29.2669 11.4663 29.7265 13.1899 29.7265C16.752 29.7265 20.1992 28.1178 22.2675 25.2451C24.4508 22.4873 25.0253 18.5805 23.9912 15.2482C23.8762 14.6736 23.6464 14.3289 23.4166 13.7544C23.4166 13.5245 23.0719 13.2947 23.4166 13.0649L23.8762 12.6053L24.4508 12.0307L25.0253 11.4562L25.4849 10.9966C25.4849 10.9966 25.4849 10.9966 25.5998 10.9966H25.7148C25.7148 11.1115 25.9446 11.3413 25.9446 11.3413L26.8638 12.2606L28.1278 10.9966L27.898 10.8817Z" fill="#1D1D1D"/>
<path d="M23.7612 21.798C23.991 21.6831 24.3357 21.4533 24.5655 22.0278C24.4506 22.4875 24.2208 23.062 23.991 23.5216C22.8419 26.0496 20.7736 28.1179 18.3606 29.267C15.8326 30.531 12.9599 30.7608 10.3171 30.1863C7.67422 29.6117 5.14626 28.003 3.53757 25.8198C1.81396 23.6365 0.894708 20.8788 1.00962 18.121C1.00962 17.4315 1.00962 16.7421 1.23943 16.0526C1.23943 15.7079 1.35434 15.3632 1.46924 15.0185L1.69906 14.329C1.69906 14.2141 1.92887 14.2141 2.15868 14.0992H2.3885C3.76738 13.6396 5.26117 13.6396 6.52515 14.0992C7.90403 14.4439 9.168 15.0185 10.2022 15.9377C11.3512 16.7421 12.2705 17.7763 13.1897 18.6955C14.109 19.6148 15.1432 20.534 16.1773 21.1086C17.2115 21.6831 18.5904 21.9129 19.8543 21.9129H20.314H20.5438H21.0034C21.0034 21.9129 21.3481 21.9129 21.8078 21.9129C22.2674 21.9129 22.8419 21.9129 23.3016 21.798C24.9102 21.4533 24.3357 21.798 23.3016 22.2577C23.3016 22.2577 22.727 22.4875 22.1525 22.6024C21.5779 22.7173 20.8885 22.8322 20.8885 22.8322C20.7736 22.8322 20.5438 22.8322 20.4289 22.8322H20.1991H19.7394C19.3947 22.8322 19.05 22.8322 18.7053 22.8322C17.3264 22.7173 15.9475 22.2577 14.7984 21.4533C13.6494 20.6489 12.7301 19.7297 11.8109 18.8104C10.8916 17.8912 9.97235 16.9719 8.93819 16.2825C7.90403 15.593 6.75496 15.1334 5.49098 14.9036C4.91645 14.9036 4.22701 14.7887 3.65247 14.9036C3.30775 14.9036 3.07794 14.9036 2.73322 15.0185C2.61831 15.0185 2.3885 15.0185 2.27359 15.0185V15.3632V15.8228C2.04378 16.1675 2.04378 16.3974 2.04378 16.7421C2.04378 17.3166 1.92887 18.0061 2.04378 18.5806C2.04378 21.1086 3.07794 23.5216 4.68664 25.4751C6.29533 27.4285 8.59347 28.6925 11.0065 29.267C13.4196 29.7267 16.0624 29.3819 18.3606 28.2329C20.5438 27.0838 22.4972 25.2453 23.5314 22.9471C23.7612 22.4875 23.8761 22.0278 23.991 21.5682L23.7612 21.798Z" fill="#1D1D1D"/>
<path d="M18.9357 13.2952C18.9357 13.2952 18.8208 13.0654 18.7059 12.9504C18.7059 12.8355 18.7059 12.6057 19.0506 12.4908C19.74 12.6057 20.1996 13.1803 20.4295 13.7548C20.5444 14.3293 20.4295 15.0188 19.9698 15.4784C19.5102 15.938 18.9357 16.1679 18.2462 16.053C17.9015 16.053 17.5568 15.8231 17.2121 15.5933C17.2121 15.5933 17.2121 15.5933 16.9822 15.3635C16.9822 15.2486 16.7524 15.0188 16.7524 14.6741C16.6375 14.0995 16.9822 13.2952 17.4419 13.0654C17.9015 12.8355 18.1313 12.8355 18.3611 12.8355C18.476 12.8355 18.5909 12.8355 18.476 12.9504C18.476 12.9504 18.0164 13.1803 17.7866 13.4101C17.7866 13.4101 17.4419 13.7548 17.5568 14.2144C17.5568 14.4442 17.6717 14.6741 17.7866 14.789C17.7866 14.9039 18.0164 15.0188 18.0164 15.0188C18.1313 15.0188 18.2462 15.1337 18.476 15.2486C19.1655 15.3635 19.74 14.6741 19.5102 14.0995C19.5102 13.7548 19.1655 13.525 18.8208 13.4101L18.9357 13.2952Z" fill="#1D1D1D"/>
<path d="M13.3054 12.376C13.3054 12.2611 12.8458 11.9164 13.3054 11.5717C13.8799 11.5717 14.4545 12.0313 14.7992 12.6059C15.4886 13.64 15.2588 15.1338 14.2247 15.8233C13.3054 16.5127 11.8116 16.3978 11.0073 15.3636C10.7775 15.1338 10.6625 14.7891 10.5476 14.4444C10.5476 14.4444 10.5476 13.9847 10.5476 13.4102C10.6625 12.8357 11.2371 12.2611 11.6967 12.1462C12.1563 11.9164 12.3861 12.0313 12.616 12.0313C12.7309 12.0313 12.8458 12.0313 12.7309 12.1462C12.7309 12.1462 12.2712 12.2611 11.9265 12.6059C11.9265 12.6059 11.4669 12.9506 11.352 13.4102C11.352 13.64 11.352 13.8698 11.352 14.0997C11.352 14.3295 11.352 14.4444 11.352 14.4444C11.352 14.6742 11.4669 14.7891 11.5818 14.904C12.0414 15.4785 12.9607 15.5935 13.5352 15.1338C14.1098 14.6742 14.3396 13.7549 13.8799 13.1804C13.6501 12.8357 13.3054 12.6059 12.9607 12.6059L13.3054 12.376Z" fill="#1D1D1D"/>
<path d="M16.8662 18.0058C16.8662 17.8909 16.6364 17.5462 16.8662 17.2014C16.8662 17.2014 17.3258 17.2014 17.6705 17.6611C18.0152 18.1207 18.1301 19.04 17.5556 19.6145C16.9811 20.189 16.0618 20.0741 15.7171 19.6145C15.4873 19.3847 15.3724 19.1549 15.3724 19.04C15.3724 18.9251 15.3724 18.8102 15.3724 18.8102C15.3724 18.8102 15.3724 18.5803 15.3724 18.2356C15.4873 17.8909 15.832 17.6611 16.0618 17.5462C16.5214 17.4313 16.6364 17.5462 16.6364 17.6611C16.6364 17.6611 16.4065 17.776 16.2916 18.0058C16.2916 18.0058 16.1767 18.1207 16.0618 18.3505C16.0618 18.5803 16.0618 18.6952 16.0618 18.6952C16.0618 18.6952 16.0618 18.8102 16.1767 18.9251C16.2916 19.04 16.6364 19.04 16.8662 18.9251C17.096 18.6952 16.9811 18.4654 16.8662 18.2356C16.7513 18.1207 16.6364 18.1207 16.6364 18.1207L16.8662 18.0058Z" fill="#1D1D1D"/>
</svg>
