<svg width="29" height="28" viewBox="0 0 29 28" fill="none" xmlns="http://www.w3.org/2000/svg">
<path d="M25.2616 10.7427C23.3896 10.4752 22.1193 8.73692 22.3199 6.93176C22.3199 6.66433 22.3867 6.46376 22.4536 6.19633C22.6542 5.59461 22.4536 4.85917 21.9188 4.39116C20.7822 3.45516 19.5119 2.65286 18.1747 2.118C17.573 1.85057 16.8376 2.05114 16.4364 2.58601C15.3667 4.05688 13.2941 4.25745 11.8232 3.18773C11.6227 3.05401 11.4221 2.85344 11.2884 2.58601C10.8872 2.05114 10.1518 1.85057 9.55007 2.118C8.27977 2.65286 7.07632 3.32144 6.07345 4.19059C5.53859 4.6586 5.27117 5.39403 5.5386 5.99575C6.14032 7.6672 5.33801 9.60607 3.59971 10.3415C3.26542 10.4752 2.99799 10.5421 2.6637 10.6089C1.99513 10.6758 1.3934 11.2107 1.25969 11.8792C0.925398 13.2832 0.925414 14.7541 1.19285 16.1581C1.32656 16.8267 1.92826 17.3616 2.59684 17.4953C4.46886 17.6959 5.80602 19.3004 5.73916 21.1725C5.73916 21.5068 5.60545 21.9079 5.47174 22.2422C5.20431 22.8439 5.47173 23.6462 6.00659 24.1142C7.14317 25.0502 8.34662 25.8525 9.75063 26.3874C9.9512 26.3874 10.0849 26.5211 10.2855 26.5211C10.7535 26.5211 11.2215 26.2537 11.4889 25.8525C12.4918 24.3816 14.4975 23.9805 15.9684 24.9834C16.3027 25.1839 16.5701 25.4514 16.7707 25.7856C17.1718 26.3874 17.9073 26.5879 18.5759 26.2537C19.8462 25.7188 20.9827 24.9834 21.9856 24.1142C22.5205 23.6462 22.721 22.9108 22.5205 22.309C21.8519 20.6376 22.721 18.6987 24.3925 17.9633C24.6599 17.8296 24.9942 17.7627 25.3285 17.6959C25.9971 17.5621 26.5988 17.0941 26.7325 16.4256C26.8662 15.757 26.9331 15.0215 26.9999 14.353C26.9999 13.6175 26.9331 12.8821 26.7994 12.1467C26.6656 11.4781 26.1308 11.0101 25.4622 10.8764L25.2616 10.7427ZM18.2416 14.2193C18.2416 16.5593 16.3027 18.565 13.8958 18.565C11.4889 18.565 9.55007 16.6261 9.55007 14.2193C9.55007 11.8124 11.4889 9.8735 13.8958 9.8735C16.2358 9.8735 18.2416 11.8124 18.2416 14.2193Z" fill="#D7F6FE" stroke="black" stroke-width="1.40401"/>
</svg>
